<svg width="41" height="54" viewBox="0 0 41 54" fill="none" xmlns="http://www.w3.org/2000/svg">
  <path d="M19.5197 9.09562C19.5197 9.27867 19.5939 9.45399 19.7263 9.58289C19.8588 9.7118 20.0389 9.78399 20.227 9.78399H20.325C20.513 9.78399 20.6932 9.7118 20.8256 9.58289C20.958 9.45399 21.0322 9.27867 21.0322 9.09562C21.0322 7.19808 22.6136 5.65893 24.5631 5.65893C24.9551 5.65893 25.2704 5.35214 25.2704 4.97054C25.2704 4.59155 24.9552 4.28472 24.5631 4.28472C22.6136 4.28472 21.0322 2.74558 21.0322 0.845466C21.0322 0.664993 20.958 0.48968 20.8256 0.360767C20.6932 0.23186 20.513 0.159668 20.325 0.159668H20.227C19.8376 0.159668 19.5197 0.466468 19.5197 0.845486C19.5197 1.75815 19.1488 2.63214 18.4867 3.27671C17.8245 3.92125 16.9265 4.28474 15.9888 4.28474C15.5994 4.28474 15.2815 4.59154 15.2815 4.97056C15.2815 5.35213 15.5994 5.65896 15.9888 5.65896C16.9265 5.65896 17.8244 6.0199 18.4867 6.66699C19.1489 7.31153 19.5197 8.18553 19.5197 9.09562ZM20.2773 3.19676C20.6985 3.91868 21.305 4.52193 22.0362 4.94988C21.3078 5.37786 20.7011 5.97858 20.2773 6.69786C19.8508 5.97858 19.2469 5.37784 18.5184 4.94988C19.2468 4.5219 19.8535 3.91861 20.2773 3.19676ZM10.7411 17.2016V27.3235C10.7358 27.3622 10.7358 27.4009 10.7411 27.4395C10.7358 27.4524 10.7358 27.4679 10.7411 27.4808C10.757 27.5555 10.7888 27.6277 10.8312 27.6948V27.736C10.8736 27.7902 10.9239 27.8391 10.9795 27.8804L17.2653 31.8199L17.2679 39.0107L14.5052 37.3117C13.2814 36.5692 11.6735 36.8682 10.8179 38.0001C9.93057 39.2067 10.2087 40.8851 11.4404 41.7616L14.7594 44.2031V44.2006C14.8336 44.2521 14.8813 44.3321 14.8866 44.4223L15.1276 47.4259C15.1726 47.9157 15.3422 48.3901 15.6203 48.8L17.6758 51.8268C18.2347 52.6569 19.1857 53.1597 20.2055 53.1597H28.3563C29.3841 53.1545 30.29 52.4971 30.5813 51.538L31.7548 47.6269V47.6243C31.8157 47.4207 31.8475 47.2067 31.8475 46.9927V40.7561C31.8475 39.7042 30.9707 38.8534 29.89 38.8534H29.686C29.4423 38.8586 29.2013 38.9127 28.9788 39.0107C28.5814 38.0387 27.6173 37.3968 26.5418 37.3942C26.02 37.3942 25.5114 37.5437 25.0797 37.8273C24.9366 37.536 24.7459 37.2704 24.5155 37.0384C23.9804 36.5099 23.2493 36.216 22.4864 36.2185H22.0494V31.8666L29.4584 27.9271C29.5246 27.8858 29.5855 27.8368 29.6358 27.7775L29.6782 27.7285C29.718 27.6693 29.7524 27.6074 29.7762 27.5429C29.7868 27.481 29.7868 27.4192 29.7762 27.3573V17.2017C29.7842 16.6293 29.4822 16.0931 28.9789 15.794L21.279 11.442C20.6592 11.094 19.8936 11.094 19.2738 11.442L11.5739 15.7862C11.0574 16.0801 10.7395 16.619 10.7422 17.2016L10.7411 17.2016ZM22.4731 37.5794C22.8572 37.5769 23.228 37.7264 23.4982 37.9919C23.7763 38.2601 23.9246 38.6287 23.914 39.0103V39.8225C23.9114 39.8612 23.9114 39.8998 23.914 39.9385V40.2685C23.914 40.4515 23.9882 40.6269 24.1207 40.7558C24.2531 40.8847 24.4332 40.9569 24.6213 40.9569C24.8067 40.9569 24.9868 40.8847 25.1193 40.7558C25.2517 40.6269 25.3259 40.4515 25.3259 40.2685V39.8637C25.3895 39.2501 25.9272 38.7861 26.5602 38.8041C27.1933 38.8196 27.7072 39.3094 27.7364 39.9256V41.6297C27.7364 42.0087 28.0516 42.3181 28.441 42.3181C28.833 42.3181 29.1482 42.0087 29.1482 41.6297V40.7557C29.1482 40.6139 29.2065 40.4799 29.3098 40.3793C29.4131 40.2814 29.5535 40.2246 29.6992 40.2272H29.8767C30.0197 40.2246 30.1601 40.2814 30.2634 40.3793C30.3641 40.4799 30.4223 40.6165 30.4197 40.7557V46.9923C30.4276 47.0826 30.417 47.1728 30.3906 47.2605L29.2171 51.1716H29.2197C29.1005 51.5454 28.7509 51.8006 28.351 51.8058H20.1845C19.6441 51.8109 19.1382 51.5531 18.8362 51.1174L16.8019 48.119C16.6509 47.8947 16.5609 47.6368 16.5397 47.3713L16.2642 44.3187C16.2218 43.834 15.9649 43.3906 15.5569 43.107L12.2379 40.6655V40.6681C11.9465 40.4593 11.7532 40.1447 11.7081 39.7941C11.6313 39.2836 11.8671 38.7757 12.3121 38.4947C12.7571 38.2136 13.3292 38.2111 13.7769 38.4869L17.676 40.8459C17.8933 40.9774 18.1661 40.9852 18.3912 40.8666C18.6164 40.7454 18.7568 40.5185 18.7568 40.2684V28.9116C18.7992 28.4424 19.2018 28.0814 19.6865 28.0814C20.1713 28.0814 20.5739 28.4424 20.6163 28.9116V38.2627V38.2601C20.6163 38.6416 20.9315 38.9485 21.3209 38.9485C21.7129 38.9485 22.0282 38.6417 22.0282 38.2601V37.5717L22.4731 37.5794ZM19.697 26.6351C18.4044 26.6351 17.3555 27.6535 17.3528 28.9116V30.2033L12.8021 27.3234L20.2769 23.1287L27.6649 27.3234L22.0149 30.3219V28.9452C22.0228 28.3393 21.7844 27.754 21.35 27.3209C20.9156 26.8878 20.3195 26.6403 19.697 26.6351ZM28.2717 17.0108C28.3565 17.0521 28.4068 17.1371 28.4068 17.23V26.1685L20.9897 21.9815V12.8859L28.2717 17.0108ZM12.1585 17.23H12.1612C12.1585 17.1397 12.2088 17.0572 12.2883 17.0108L19.578 12.8857V21.9609L12.1608 26.1479L12.1585 17.23ZM40.6736 10.4569C38.6101 7.10788 28.9261 10.9725 26.0095 12.2384H26.0122C25.84 12.3132 25.7076 12.4498 25.6387 12.62C25.5725 12.7901 25.5751 12.9784 25.6519 13.1459C25.7288 13.3135 25.8692 13.4424 26.044 13.5095C26.2188 13.5739 26.4122 13.5713 26.5843 13.4966C34.0089 10.279 38.6845 9.89488 39.4603 11.1659C39.8073 11.7306 39.4603 12.7954 38.5623 14.1283H38.565C38.2391 13.989 37.8868 13.9143 37.5319 13.9169C36.1042 13.9169 34.9466 15.0435 34.9466 16.4332C34.9599 16.8792 35.095 17.3149 35.336 17.6965C34.2685 18.6942 33.0553 19.759 31.6833 20.7774C31.3786 21.012 31.3257 21.4452 31.5667 21.7442C31.8104 22.0407 32.2527 22.0923 32.56 21.8576C33.9718 20.7567 35.2645 19.6791 36.3744 18.6324C37.4313 19.166 38.7266 18.9237 39.5053 18.0471C40.2841 17.1706 40.3424 15.8866 39.6457 14.9482C40.986 13.0558 41.341 11.5089 40.6682 10.4312L40.6736 10.4569ZM37.5268 17.5468C37.0527 17.5468 36.6236 17.2683 36.4434 16.8404C36.2606 16.415 36.3613 15.9251 36.6977 15.5977C37.0314 15.2703 37.5374 15.1749 37.9744 15.3502C38.4115 15.5281 38.6975 15.9432 38.6975 16.4047C38.6975 17.0337 38.1731 17.5468 37.5268 17.5468ZM0.336658 34.5962C0.935298 35.5733 2.13785 35.9291 3.6901 35.9291C7.51239 35.9291 13.1626 33.6268 15.2891 32.6909C15.5964 32.513 15.7183 32.1366 15.5699 31.8169C15.4216 31.4998 15.0507 31.34 14.7091 31.4483C7.13053 34.7767 2.34715 35.2021 1.5497 33.9027C1.21064 33.3536 1.51526 32.3223 2.38411 31.0358C3.41714 31.4741 4.62505 31.2059 5.36405 30.3758C6.10306 29.5456 6.20111 28.3442 5.6051 27.4108C6.86333 26.2378 8.17981 25.1266 9.55453 24.085C9.8618 23.8529 9.91743 23.4224 9.68168 23.1208C9.56513 22.9764 9.3956 22.8836 9.20753 22.8604C9.02211 22.8398 8.83139 22.8913 8.68571 23.0048C7.24473 24.0901 5.87 25.2529 4.55881 26.4827C4.20122 26.3074 3.80917 26.2146 3.40922 26.2094C2.44502 26.2094 1.56558 26.7302 1.1206 27.5604C0.675597 28.3905 0.739169 29.3934 1.29013 30.1618C0.0186798 32.018 -0.328227 33.5107 0.336658 34.5962ZM3.4093 27.5704C3.88345 27.5704 4.31254 27.8488 4.49271 28.2768C4.67283 28.7048 4.56953 29.1972 4.23313 29.522C3.89407 29.8469 3.38814 29.9423 2.9511 29.7618C2.51138 29.5813 2.23061 29.1611 2.2359 28.697C2.24649 28.0731 2.76826 27.5729 3.4093 27.5704ZM40.2814 34.6167C42.4005 31.18 33.9665 24.4149 31.3175 22.4196C31.0076 22.216 30.5891 22.283 30.3612 22.5692C30.1334 22.8579 30.1732 23.2679 30.4539 23.5076C37.2059 28.5892 39.8973 32.5828 39.0707 33.9028C38.7528 34.4185 37.7648 34.6376 36.3238 34.5345C36.3211 33.3614 35.4841 32.3482 34.308 32.093C33.1319 31.8377 31.9293 32.4075 31.4154 33.4697C29.3917 32.82 27.413 32.0491 25.4899 31.1596C25.1376 31.0049 24.7244 31.1545 24.5602 31.4948C24.3986 31.8325 24.5443 32.2373 24.8886 32.4023C26.9335 33.3485 29.0367 34.1632 31.1903 34.8438C31.3068 35.9035 32.1068 36.7749 33.1743 37.0095C34.2444 37.2441 35.3463 36.7903 35.9212 35.8828C36.2894 35.8828 36.6284 35.937 36.9595 35.937C38.6362 35.937 39.7437 35.4958 40.2814 34.6167ZM33.7414 35.6892H33.7387C33.2646 35.6892 32.8381 35.4107 32.6553 34.9853C32.4752 34.5574 32.5759 34.0675 32.9096 33.7401C33.246 33.4152 33.7493 33.3173 34.189 33.4926C34.6261 33.6705 34.9121 34.0856 34.9121 34.5471C34.9095 35.1659 34.4036 35.6712 33.7678 35.6892L33.7414 35.6892ZM14.3997 11.8258C12.7203 11.0936 10.9986 10.4542 9.24238 9.91537C9.17086 8.79645 8.34179 7.86313 7.21599 7.63114C6.0902 7.3991 4.94325 7.92505 4.41086 8.91763C2.34209 8.77326 0.97001 9.19865 0.342218 10.2041C-1.75571 13.5712 6.37629 20.1301 8.87688 22.0692C9.00137 22.1646 9.15501 22.2161 9.31394 22.2135C9.5285 22.2135 9.73246 22.1182 9.8649 21.9531C10.106 21.6567 10.0556 21.2261 9.751 20.9915C3.30898 16.0672 0.724034 12.1975 1.54997 10.9184C1.85459 10.4311 2.77904 10.23 4.11403 10.2713C4.19085 11.3876 5.01991 12.3184 6.14571 12.5504C7.26879 12.7798 8.41581 12.2539 8.94555 11.2613C10.6064 11.7821 12.2355 12.3905 13.8274 13.0841C13.9201 13.1202 14.0181 13.1382 14.1161 13.1382C14.4472 13.1356 14.7306 12.9062 14.7995 12.5916C14.8657 12.2771 14.7017 11.9599 14.3997 11.8258ZM6.67812 11.2276C6.20397 11.2276 5.77488 10.9492 5.5947 10.5212C5.41459 10.0933 5.51524 9.60342 5.85165 9.27599C6.18805 8.95113 6.69399 8.85574 7.13368 9.03364C7.57074 9.21153 7.85417 9.63177 7.85152 10.0933C7.84887 10.7198 7.32446 11.2276 6.67812 11.2276Z" fill="url(#paint0_linear_3_10889)" fill-opacity="0.94902"/>
  <defs>
    <linearGradient id="paint0_linear_3_10889" x1="23.3916" y1="-7.51138" x2="23.3916" y2="73.9064" gradientUnits="userSpaceOnUse">
      <stop stop-color="white"/>
      <stop offset="1" stop-color="#AF87FF"/>
    </linearGradient>
  </defs>
</svg>