<svg width="25" height="25" viewBox="0 0 25 25" fill="none" xmlns="http://www.w3.org/2000/svg">
  <path d="M2.75 18.9097C8.21719 18.9097 13.5136 19.6409 18.5468 21.0109C19.2738 21.2088 20 20.6682 20 19.9148V18.9097M4.25 4.65967V5.40967C4.25 5.82388 3.91421 6.15967 3.5 6.15967H2.75M2.75 6.15967V5.78467C2.75 5.16335 3.25368 4.65967 3.875 4.65967H20.75M2.75 6.15967V15.1597M20.75 4.65967V5.40967C20.75 5.82388 21.0858 6.15967 21.5 6.15967H22.25M20.75 4.65967H21.125C21.7463 4.65967 22.25 5.16335 22.25 5.78467V15.5347C22.25 16.156 21.7463 16.6597 21.125 16.6597H20.75M22.25 15.1597H21.5C21.0858 15.1597 20.75 15.4955 20.75 15.9097V16.6597M20.75 16.6597H4.25M4.25 16.6597H3.875C3.25368 16.6597 2.75 16.156 2.75 15.5347V15.1597M4.25 16.6597V15.9097C4.25 15.4955 3.91421 15.1597 3.5 15.1597H2.75M15.5 10.6597C15.5 12.3165 14.1569 13.6597 12.5 13.6597C10.8431 13.6597 9.5 12.3165 9.5 10.6597C9.5 9.00281 10.8431 7.65967 12.5 7.65967C14.1569 7.65967 15.5 9.00281 15.5 10.6597ZM18.5 10.6597H18.5075V10.6672H18.5V10.6597ZM6.5 10.6597H6.5075V10.6672H6.5V10.6597Z" stroke="white" stroke-width="1.5" stroke-linecap="round" stroke-linejoin="round"/>
</svg>
