<svg width="24" height="25" viewBox="0 0 24 25" fill="none" xmlns="http://www.w3.org/2000/svg">
  <path d="M16.3399 2.65967C19.7299 2.65967 22.0001 5.03963 22.0001 8.57959V16.7505C22.0001 20.2795 19.7299 22.6597 16.3399 22.6597H7.67001C4.28006 22.6596 2.00009 20.2795 2.00009 16.7505V8.57959C2.00013 5.03966 4.28008 2.6597 7.67001 2.65967H16.3399ZM16.1798 9.65967C15.8398 9.3199 15.2805 9.31994 14.9405 9.65967L10.8097 13.7896L9.05966 12.0396C8.71971 11.6999 8.16033 11.6999 7.8204 12.0396C7.4804 12.3796 7.4804 12.9298 7.8204 13.2798L10.2003 15.6499C10.3701 15.8196 10.5899 15.8998 10.8097 15.8999C11.0395 15.8999 11.2598 15.8197 11.4298 15.6499L16.1798 10.8999C16.5198 10.5599 16.5198 10.0097 16.1798 9.65967Z" fill="#AF87FF"/>
</svg>
