<svg width="49" height="49" viewBox="0 0 49 49" fill="none" xmlns="http://www.w3.org/2000/svg">
  <path d="M33.0599 35.6451C32.3784 35.6451 31.737 35.8962 31.2496 36.3733C30.9858 36.6306 30.7854 36.9361 30.6545 37.273C27.3483 36.6683 24.4537 34.9002 22.4342 32.3767C22.4173 32.3558 22.3962 32.3286 22.3793 32.3077C21.2674 30.8932 20.4234 29.2486 19.9382 27.4386C18.1722 20.8768 21.6135 13.9924 27.9371 11.417C28.2873 11.2726 28.4561 10.875 28.3105 10.534C28.1649 10.1866 27.7641 10.0192 27.4202 10.1636C25.5571 10.9253 23.9198 12.0217 22.5652 13.3609V5.58733C22.5652 2.87136 20.3393 0.659668 17.6006 0.659668C15.0666 0.659668 12.9672 2.55543 12.6697 4.99307C12.2056 4.87589 11.7308 4.81103 11.254 4.81731C8.15872 4.81731 5.63762 7.3136 5.63762 10.3871C5.63762 10.8098 5.68615 11.2283 5.77899 11.6405C4.1037 12.5612 2.92214 14.3836 2.55928 16.6372C2.20903 18.8279 2.72596 20.9497 3.92648 22.3891C1.5887 23.8622 0.166626 26.3961 0.166626 29.1915C0.166626 32.3134 1.95373 35.1111 4.7578 36.4546C4.73037 36.7119 4.7156 36.9693 4.7156 37.2267C4.7156 38.909 5.32537 40.5369 6.42887 41.8174C7.4163 42.9641 8.7519 43.7613 10.2204 44.1003C10.9652 46.7681 13.4443 48.6597 16.2759 48.6597C19.7446 48.6597 22.5636 45.8642 22.5636 42.424V34.5439C24.6967 36.6447 27.4565 38.0947 30.5371 38.6367C30.63 39.1347 30.8663 39.5908 31.2292 39.9549C31.7102 40.4361 32.3474 40.704 33.0268 40.7103H33.0437C33.7188 40.7103 34.3518 40.4529 34.8308 39.9821C35.3161 39.505 35.5861 38.8731 35.5925 38.1994C35.5988 37.5235 35.3393 36.8874 34.8582 36.404C34.3772 35.9228 33.74 35.655 33.0606 35.6486L33.0599 35.6451ZM11.2475 6.17132C11.8572 6.17132 12.4733 6.30524 13.024 6.55633C13.235 6.65258 13.484 6.63584 13.6781 6.51448C13.8722 6.39103 13.9904 6.17133 13.9904 5.94116V5.58754C13.9904 3.62064 15.6045 2.01992 17.5878 2.01992C19.5711 2.01992 21.1852 3.62064 21.1852 5.58754V9.23465H19.8834C19.5817 8.14238 18.5752 7.33889 17.3768 7.33889C15.9463 7.33889 14.7795 8.49603 14.7795 9.91467C14.7795 11.3333 15.9463 12.4905 17.3768 12.4905C18.571 12.4905 19.5795 11.687 19.8834 10.5947H21.1852V14.9114C20.8877 15.2964 20.6134 15.6939 20.3582 16.1062H14.8871C14.5854 15.0139 13.5789 14.2104 12.3805 14.2104C12.1801 14.2104 11.986 14.2313 11.8024 14.2753L10.2791 11.6618C10.1546 11.4526 9.93305 11.325 9.68405 11.325H7.09728C7.02765 11.0195 6.98967 10.7035 6.98967 10.3875C6.98967 8.06288 8.89701 6.17756 11.2412 6.17756L11.2475 6.17132ZM18.6112 9.91051C18.6112 10.5801 18.0605 11.1262 17.3853 11.1262C16.7102 11.1262 16.1595 10.5801 16.1595 9.91051C16.1595 9.24094 16.7102 8.69483 17.3853 8.69483C18.0605 8.69483 18.6112 9.24094 18.6112 9.91051ZM12.3888 15.5682C13.064 15.5682 13.6146 16.1143 13.6146 16.7839C13.6146 17.4534 13.064 17.9996 12.3888 17.9996C11.7136 17.9996 11.1629 17.4534 11.1629 16.7839C11.1629 16.1143 11.7136 15.5682 12.3888 15.5682ZM3.90699 16.8425C4.21926 14.8714 5.27419 13.3293 6.72587 12.6744H9.29152L10.5997 14.9133C10.1017 15.3841 9.78948 16.0432 9.78948 16.7777C9.78948 18.1963 10.9563 19.3534 12.3868 19.3534C13.581 19.3534 14.5895 18.5499 14.8934 17.4577H19.6132C18.0962 20.5796 17.6574 24.2226 18.6131 27.7799C18.9634 29.0814 19.4824 30.3033 20.1365 31.427H17.9654L16.5771 29.0437C16.9927 28.5876 17.2459 27.9829 17.2459 27.3195C17.2459 25.9009 16.0791 24.7438 14.6486 24.7438C14.4819 24.7438 14.3195 24.7605 14.1633 24.7919L12.6505 22.1931C12.526 21.9838 12.3045 21.8562 12.0555 21.8562H5.29297C4.10931 20.7368 3.5797 18.841 3.90044 16.8364L3.90699 16.8425ZM14.6568 26.11C15.332 26.11 15.8827 26.6561 15.8827 27.3256C15.8827 27.7441 15.6717 28.1082 15.3489 28.3279C15.3425 28.3279 15.332 28.3384 15.3278 28.3447C15.1337 28.4681 14.9058 28.5434 14.6589 28.5434C13.9837 28.5434 13.4331 27.9973 13.4331 27.3278C13.4331 26.6582 13.9837 26.1121 14.6589 26.1121L14.6568 26.11ZM16.2772 47.2959C13.9395 47.2959 11.914 45.6513 11.454 43.381C11.3991 43.1027 11.1734 42.8872 10.8927 42.8453C8.10549 42.3955 6.08634 40.0331 6.08634 37.2316C6.08634 37.0663 6.09267 36.8947 6.10744 36.7273H13.0914L14.3616 38.9118C13.8278 39.3826 13.4923 40.0689 13.4923 40.8347C13.4923 42.2534 14.6591 43.4105 16.0896 43.4105C17.5201 43.4105 18.6869 42.2534 18.6869 40.8347C18.6869 39.4161 17.5201 38.2589 16.0896 38.2589C15.923 38.2589 15.7542 38.2757 15.5917 38.3071L14.0789 35.7083C13.9544 35.499 13.7328 35.3714 13.4839 35.3714H5.64536C3.3561 34.4026 1.80952 32.3018 1.56689 29.8744H4.07767C4.37938 30.9667 5.38583 31.7702 6.58423 31.7702C8.01474 31.7702 9.18154 30.613 9.18154 29.1944C9.18154 27.7757 8.01474 26.6186 6.58423 26.6186C5.39004 26.6186 4.38149 27.4221 4.07767 28.5144H1.56689C1.79476 26.2545 3.1388 24.2835 5.19597 23.2268H11.6668L12.937 25.4071C12.3969 25.8779 12.0572 26.5705 12.0572 27.3363C12.0572 28.755 13.224 29.9121 14.6545 29.9121C14.9246 29.9121 15.1841 29.8703 15.4267 29.7949L16.9817 32.4628C17.1062 32.672 17.3278 32.7997 17.5768 32.7997H21.0455C21.094 32.8645 21.1489 32.9336 21.1974 32.9985V42.4272C21.1974 45.1159 18.9946 47.3026 16.2813 47.3026L16.2772 47.2959ZM16.0831 39.6146C16.7583 39.6146 17.309 40.1607 17.309 40.8302C17.309 41.4998 16.7583 42.0459 16.0831 42.0459C15.408 42.0459 14.8573 41.4998 14.8573 40.8302C14.8573 40.1607 15.408 39.6146 16.0831 39.6146ZM5.35652 29.19C5.35652 28.5204 5.90719 27.9743 6.58236 27.9743C7.25754 27.9743 7.80821 28.5204 7.80821 29.19C7.80821 29.8596 7.25754 30.4057 6.58236 30.4057C5.90719 30.4057 5.35652 29.8596 5.35652 29.19ZM33.8742 39.0076C33.6527 39.2274 33.3552 39.3445 33.0429 39.3445H33.0323C32.7201 39.3445 32.4226 39.2169 32.201 38.9972C31.9795 38.7712 31.8613 38.4783 31.8613 38.1665C31.8613 37.5241 32.3951 37.0031 33.045 37.0031H33.0555C33.3678 37.0031 33.6653 37.1307 33.8868 37.3504C34.1084 37.5701 34.2265 37.8693 34.2265 38.1811C34.2265 38.4908 34.0978 38.7858 33.8763 39.0056L33.8742 39.0076ZM29.6881 20.4689C28.7534 21.3854 28.2302 22.6053 28.2239 23.9089C28.2175 25.2104 28.7155 26.4428 29.6396 27.3697C30.5638 28.2967 31.7939 28.8156 33.1083 28.8219H33.14C34.4418 28.8219 35.6677 28.3239 36.5918 27.4178C37.5265 26.5014 38.0497 25.2815 38.0561 23.9779C38.0666 22.6764 37.5644 21.4439 36.6403 20.517C34.733 18.6004 31.6124 18.5773 29.6839 20.4689L29.6881 20.4689ZM35.6361 26.4533C34.9673 27.1062 34.0811 27.466 33.1401 27.466H33.1127C32.1611 27.4598 31.2771 27.0852 30.6061 26.4157C29.9415 25.7461 29.5743 24.8568 29.5849 23.9194C29.5913 22.9757 29.9689 22.099 30.6441 21.4336C31.3361 20.7577 32.2371 20.4209 33.1401 20.4209C34.0432 20.4209 34.9757 20.7682 35.6678 21.4712C36.3324 22.1408 36.6996 23.0301 36.689 23.9675C36.6827 24.9112 36.305 25.7879 35.6298 26.4533H35.6361ZM38.6765 15.2778L35.4842 13.9554C35.3175 13.8863 35.1276 13.8863 34.9609 13.9554C34.7943 14.0244 34.6592 14.1541 34.5875 14.3194L34.214 15.2087C33.522 15.123 32.8257 15.123 32.1336 15.2025L31.7665 14.3069C31.6969 14.1416 31.5661 14.0077 31.3994 13.9365C31.2327 13.8675 31.0428 13.8675 30.8761 13.9365L27.6775 15.238C27.3272 15.3824 27.1584 15.78 27.304 16.121L27.6711 17.0166C27.1205 17.4393 26.6288 17.9268 26.1963 18.4687L25.2996 18.0984C25.1329 18.0293 24.943 18.0293 24.7763 18.0984C24.6096 18.1674 24.4746 18.2971 24.4028 18.4624L23.0693 21.6283C22.9238 21.9757 23.0862 22.3732 23.4365 22.5176L24.3332 22.888C24.2467 23.5743 24.2467 24.2648 24.3269 24.9511L23.4301 25.3152C23.2635 25.3843 23.1284 25.514 23.0567 25.6793C22.9871 25.8446 22.9871 26.0329 23.0567 26.1982L24.3691 29.3704C24.5146 29.7177 24.9155 29.8851 25.2594 29.7407L26.1562 29.3766C26.5824 29.9228 27.074 30.4103 27.6204 30.8393L27.247 31.7223C27.1773 31.8876 27.1773 32.0759 27.247 32.2412C27.3166 32.4065 27.4474 32.5404 27.6141 32.6115L30.8064 33.934C31.1567 34.0784 31.5575 33.9172 31.7032 33.5699L32.0766 32.6911C32.7686 32.7769 33.4649 32.7769 34.157 32.6974L34.5241 33.5804C34.6317 33.8419 34.887 34.003 35.1571 34.003C35.2436 34.003 35.3301 33.9863 35.4166 33.9486L38.6153 32.6471C38.782 32.5781 38.917 32.4483 38.9887 32.283C39.0584 32.1177 39.0584 31.9294 38.9887 31.7641L38.6216 30.8811C39.1723 30.4585 39.6639 29.9709 40.0965 29.429L40.9826 29.7994C41.3329 29.9437 41.7337 29.7826 41.8794 29.4353L43.2128 26.2694C43.2825 26.1041 43.2825 25.9158 43.2128 25.7505C43.1432 25.5852 43.0124 25.4513 42.8457 25.3801L41.9554 25.0098C42.0419 24.3235 42.0419 23.633 41.9617 22.9466L42.8584 22.5825C43.2087 22.4381 43.3775 22.0406 43.2319 21.6995L41.9195 18.5232C41.8499 18.3579 41.7191 18.224 41.5524 18.1529C41.3857 18.0838 41.1958 18.0838 41.0291 18.1529L40.1324 18.5169C39.7062 17.9708 39.2146 17.4833 38.6681 17.0543L39.0416 16.165C39.1872 15.8177 39.0247 15.4201 38.6745 15.2757L38.6765 15.2778ZM39.3348 19.7347C39.5184 19.9962 39.8581 20.0988 40.1619 19.9816L40.9172 19.6761L41.7106 21.5927L40.9553 21.8982C40.6578 22.0217 40.4848 22.3314 40.5396 22.6473C40.7021 23.5303 40.6957 24.43 40.5291 25.3152C40.47 25.6311 40.643 25.9429 40.9405 26.0642L41.6916 26.3739L40.8877 28.2864L40.1366 27.9767C39.8391 27.8533 39.4931 27.9495 39.3095 28.2173C38.7905 28.956 38.1491 29.5879 37.4022 30.0984C37.1385 30.2805 37.0351 30.6173 37.1532 30.9186L37.4613 31.6635L35.5286 32.4503L35.2206 31.7054C35.113 31.448 34.8577 31.2827 34.5876 31.2827C34.5496 31.2827 34.5074 31.2827 34.4694 31.2932C33.5791 31.4543 32.6718 31.448 31.7793 31.2827C31.4607 31.2242 31.1463 31.3957 31.0239 31.6908L30.7117 32.4357L28.7832 31.6384L29.0955 30.8935C29.22 30.5985 29.1166 30.2554 28.8528 30.0733C28.108 29.5586 27.4708 28.9225 26.956 28.1818C26.7725 27.9202 26.4328 27.8177 26.129 27.9349L25.3736 28.2446L24.5803 26.3279L25.3356 26.0182C25.6331 25.8948 25.8061 25.5851 25.7513 25.2692C25.5888 24.3862 25.5951 23.4864 25.7618 22.6013C25.8209 22.2853 25.6479 21.9736 25.3504 21.8522L24.5951 21.5363L25.3989 19.6238L26.1543 19.9398C26.4518 20.0632 26.7978 19.967 26.9813 19.6991C27.5004 18.9605 28.1418 18.3286 28.8887 17.818C29.1524 17.636 29.2558 17.2991 29.1376 16.9978L28.8254 16.2424L30.758 15.4557L31.0703 16.2111C31.1948 16.5061 31.5071 16.6777 31.8256 16.6233C32.716 16.4621 33.6233 16.4684 34.5158 16.6337C34.8344 16.6923 35.1488 16.5207 35.2711 16.2257L35.5897 15.4766L37.5182 16.2739L37.1996 17.0229C37.0751 17.318 37.1722 17.6611 37.4422 17.8431C38.187 18.3579 38.8242 18.9939 39.339 19.7347L39.3348 19.7347ZM47.6649 20.105C46.1478 14.4699 41.5084 10.2644 35.7499 9.2643C35.6571 8.7663 35.4208 8.31017 35.0579 7.94609C34.5769 7.46482 33.9397 7.19701 33.2603 7.19069H33.2434C32.5682 7.19069 31.9352 7.44806 31.45 7.91887C30.9647 8.39595 30.6947 9.02785 30.6883 9.70161C30.682 10.3775 30.9415 11.0136 31.4225 11.4969C31.9036 11.9782 32.5408 12.246 33.2202 12.2523H33.2371C34.3237 12.2523 35.252 11.5765 35.6192 10.6244C40.799 11.5723 44.9684 15.3763 46.342 20.4586C48.108 27.0205 44.6667 33.9048 38.3431 36.4803C37.9928 36.6247 37.8241 37.0222 37.9696 37.3633C38.0772 37.6248 38.3325 37.7859 38.6026 37.7859C38.6891 37.7859 38.7756 37.7692 38.8621 37.7315C45.8186 34.8984 49.5996 27.3236 47.6605 20.1029L47.6649 20.105ZM33.2437 10.8922H33.2332C32.9209 10.8922 32.6234 10.7645 32.4018 10.5448C32.1803 10.3188 32.0621 10.0259 32.0621 9.71412C32.0621 9.07176 32.5959 8.55072 33.2458 8.55072H33.2563C33.9104 8.55072 34.4337 9.08638 34.4295 9.72875C34.4295 10.3711 33.8957 10.8922 33.2458 10.8922L33.2437 10.8922Z" fill="url(#paint0_linear_3_10895)" fill-opacity="0.94902"/>
  <linearGradient id="paint0_linear_3_10895" x1="27.5519" y1="-6.2877" x2="27.5519" y2="67.4491" gradientUnits="userSpaceOnUse">
    <stop stop-color="white"/>
    <stop offset="1" stop-color="#AF87FF"/>
  </linearGradient>
</svg>
