<svg width="48" height="49" viewBox="0 0 48 49" fill="none" xmlns="http://www.w3.org/2000/svg">
  <path d="M24 4.49702C30.3614 4.49702 31.2289 4.49702 33.8313 4.49702C36.1446 4.49702 37.3012 5.07533 38.1687 5.36449C39.3253 5.9428 40.1928 6.23196 41.0602 7.09943C41.9277 7.9669 42.506 8.83437 42.7952 9.991C43.0843 10.8585 43.3735 12.0151 43.6627 14.3283C43.6627 16.9308 43.6627 17.5091 43.6627 24.1597C43.6627 30.8103 43.6627 31.3886 43.6627 33.991C43.6627 36.3042 43.0843 37.4609 42.7952 38.3283C42.2169 39.485 41.9277 40.3524 41.0602 41.2199C40.1928 42.0874 39.3253 42.6657 38.1687 42.9549C37.3012 43.244 36.1446 43.5332 33.8313 43.8223C31.2289 43.8223 30.6506 43.8223 24 43.8223C17.3494 43.8223 16.7711 43.8223 14.1687 43.8223C11.8554 43.8223 10.6988 43.244 9.83133 42.9549C8.6747 42.3765 7.80723 42.0874 6.93976 41.2199C6.07229 40.3524 5.49398 39.485 5.20482 38.3283C4.91566 37.4609 4.62651 36.3042 4.33735 33.991C4.33735 31.3886 4.33735 30.8103 4.33735 24.1597C4.33735 17.5091 4.33735 16.9308 4.33735 14.3283C4.33735 12.0151 4.91566 10.8585 5.20482 9.991C5.78313 8.83437 6.07229 7.9669 6.93976 7.09943C7.80723 6.23196 8.6747 5.65365 9.83133 5.36449C10.6988 5.07533 11.8554 4.78617 14.1687 4.49702C16.7711 4.49702 17.6386 4.49702 24 4.49702ZM24 0.159668C17.3494 0.159668 16.7711 0.159668 14.1687 0.159668C11.5663 0.159668 9.83133 0.737983 8.38554 1.3163C6.93976 1.89461 5.49398 2.76208 4.04819 4.20786C2.60241 5.65365 2.0241 6.81027 1.15663 8.54521C0.578315 9.991 0.289157 11.7259 0 14.3283C0 16.9308 0 17.7982 0 24.1597C0 30.8103 0 31.3886 0 33.991C0 36.5934 0.578315 38.3283 1.15663 39.7741C1.73494 41.2199 2.60241 42.6657 4.04819 44.1115C5.49398 45.5573 6.6506 46.1356 8.38554 47.003C9.83133 47.5814 11.5663 47.8705 14.1687 48.1597C16.7711 48.1597 17.6386 48.1597 24 48.1597C30.3614 48.1597 31.2289 48.1597 33.8313 48.1597C36.4337 48.1597 38.1687 47.5814 39.6145 47.003C41.0602 46.4247 42.506 45.5573 43.9518 44.1115C45.3976 42.6657 45.9759 41.5091 46.8434 39.7741C47.4217 38.3283 47.7108 36.5934 48 33.991C48 31.3886 48 30.5211 48 24.1597C48 17.7982 48 16.9308 48 14.3283C48 11.7259 47.4217 9.991 46.8434 8.54521C46.2651 7.09943 45.3976 5.65365 43.9518 4.20786C42.506 2.76208 41.3494 2.18377 39.6145 1.3163C38.1687 0.737983 36.4337 0.448825 33.8313 0.159668C31.2289 0.159668 30.6506 0.159668 24 0.159668Z" fill="url(#paint0_linear_3_19771)" fill-opacity="0.94902"/>
  <path d="M24 11.7259C17.0602 11.7259 11.5663 17.2199 11.5663 24.1597C11.5663 31.0994 17.0602 36.5934 24 36.5934C30.9398 36.5934 36.4337 31.0994 36.4337 24.1597C36.4337 17.2199 30.9398 11.7259 24 11.7259ZM24 32.2561C19.6627 32.2561 15.9036 28.7862 15.9036 24.1597C15.9036 19.8223 19.3735 16.0633 24 16.0633C28.3374 16.0633 32.0964 19.5332 32.0964 24.1597C32.0964 28.497 28.3374 32.2561 24 32.2561Z" fill="url(#paint1_linear_3_19771)" fill-opacity="0.94902"/>
  <path d="M36.7229 14.3283C38.3199 14.3283 39.6145 13.0337 39.6145 11.4368C39.6145 9.83981 38.3199 8.54521 36.7229 8.54521C35.1259 8.54521 33.8313 9.83981 33.8313 11.4368C33.8313 13.0337 35.1259 14.3283 36.7229 14.3283Z" fill="url(#paint2_linear_3_19771)" fill-opacity="0.94902"/>
  <defs>
    <linearGradient id="paint0_linear_3_19771" x1="27.3853" y1="-6.7877" x2="27.3853" y2="66.9491" gradientUnits="userSpaceOnUse">
      <stop stop-color="white"/>
      <stop offset="1" stop-color="#AF87FF"/>
    </linearGradient>
    <linearGradient id="paint1_linear_3_19771" x1="27.3853" y1="-6.7877" x2="27.3853" y2="66.9491" gradientUnits="userSpaceOnUse">
      <stop stop-color="white"/>
      <stop offset="1" stop-color="#AF87FF"/>
    </linearGradient>
    <linearGradient id="paint2_linear_3_19771" x1="27.3853" y1="-6.7877" x2="27.3853" y2="66.9491" gradientUnits="userSpaceOnUse">
      <stop stop-color="white"/>
      <stop offset="1" stop-color="#AF87FF"/>
    </linearGradient>
  </defs>
</svg>
