<svg width="48" height="49" viewBox="0 0 48 49" fill="none" xmlns="http://www.w3.org/2000/svg">
  <path d="M44.4567 0.159668H3.54333C2.60358 0.159668 1.70232 0.532983 1.03782 1.19749C0.373315 1.86199 0 2.76325 0 3.703V44.6163C0 45.5561 0.373315 46.4573 1.03782 47.1219C1.70232 47.7864 2.60358 48.1597 3.54333 48.1597H44.4567C45.3964 48.1597 46.2977 47.7864 46.9622 47.1219C47.6267 46.4573 48 45.5561 48 44.6163V3.703C48 2.76325 47.6267 1.86199 46.9622 1.19749C46.2977 0.532983 45.3964 0.159668 44.4567 0.159668ZM14.3067 41.0497H7.09V18.1263H14.3067V41.0497ZM10.6933 14.9497C9.87473 14.9451 9.07583 14.6981 8.39747 14.2398C7.71911 13.7816 7.19168 13.1327 6.88175 12.375C6.57183 11.6174 6.4933 10.7849 6.65606 9.98258C6.81883 9.1803 7.2156 8.44422 7.79631 7.86723C8.37702 7.29024 9.11563 6.8982 9.91893 6.74059C10.7222 6.58298 11.5542 6.66686 12.3099 6.98164C13.0656 7.29642 13.7111 7.828 14.1649 8.50929C14.6188 9.19058 14.8606 9.99105 14.86 10.8097C14.8677 11.3577 14.765 11.9017 14.558 12.4093C14.351 12.9168 14.044 13.3775 13.6551 13.7638C13.2663 14.1501 12.8037 14.4542 12.2948 14.658C11.786 14.8617 11.2413 14.9609 10.6933 14.9497ZM40.9067 41.0697H33.6933V28.5463C33.6933 24.853 32.1233 23.713 30.0967 23.713C27.9567 23.713 25.8567 25.3263 25.8567 28.6397V41.0697H18.64V18.143H25.58V21.3197H25.6733C26.37 19.9097 28.81 17.4997 32.5333 17.4997C36.56 17.4997 40.91 19.8897 40.91 26.8897L40.9067 41.0697Z" fill="url(#paint0_linear_72_844)" fill-opacity="0.94902"/>
  <defs>
    <linearGradient id="paint0_linear_72_844" x1="27.3853" y1="-6.7877" x2="27.3853" y2="66.9491" gradientUnits="userSpaceOnUse">
      <stop stop-color="white"/>
      <stop offset="1" stop-color="#AF87FF"/>
    </linearGradient>
  </defs>
</svg>
