<svg width="72" height="72" viewBox="0 0 72 72" fill="none" xmlns="http://www.w3.org/2000/svg">
  <path d="M30.2714 43.7695C30.2129 43.7701 30.1549 43.7589 30.1009 43.7364C30.0468 43.7138 29.998 43.6806 29.9572 43.6385L27.0314 40.5818C26.9541 40.5007 26.9109 40.3928 26.911 40.2807V37.4976L22.591 32.5597C22.5216 32.4798 22.4835 32.3775 22.4836 32.2717V25.1345L19.8982 21.3814C19.8656 21.3343 19.8426 21.2812 19.8305 21.2252C19.8185 21.1692 19.8175 21.1114 19.8278 21.0551C19.8381 20.9987 19.8593 20.945 19.8904 20.8968C19.9215 20.8487 19.9617 20.8072 20.0088 20.7746C20.0559 20.742 20.109 20.719 20.1649 20.707C20.2209 20.6949 20.2787 20.694 20.3351 20.7042C20.3914 20.7145 20.4452 20.7358 20.4933 20.7668C20.5415 20.7979 20.583 20.8381 20.6156 20.8852L23.2861 24.7562C23.3363 24.829 23.3633 24.9152 23.3634 25.0036V32.1081L27.6834 37.0473C27.7527 37.1267 27.7909 37.2285 27.7907 37.334V40.1014L30.5948 43.0324C30.6544 43.094 30.6945 43.1717 30.71 43.256C30.7256 43.3402 30.7159 43.4271 30.6822 43.5059C30.6485 43.5846 30.5922 43.6517 30.5206 43.6986C30.4489 43.7454 30.3649 43.7701 30.2793 43.7695H30.2714Z" fill="#009CDE"/>
  <path d="M31.3645 59.9184C31.2766 59.9191 31.1906 59.8926 31.1184 59.8425C31.0711 59.8102 31.0306 59.7689 30.9993 59.7209C30.968 59.673 30.9464 59.6193 30.9358 59.563C30.9253 59.5067 30.9259 59.4489 30.9377 59.3929C30.9494 59.3368 30.9721 59.2836 31.0045 59.2364L33.6436 55.3745V46.9361L31.5753 43.6425C31.5436 43.594 31.5219 43.5397 31.5115 43.4827C31.501 43.4258 31.502 43.3673 31.5144 43.3107C31.5268 43.2542 31.5504 43.2006 31.5837 43.1533C31.617 43.1059 31.6594 43.0657 31.7085 43.0349C31.7575 43.0041 31.8122 42.9834 31.8694 42.974C31.9265 42.9646 31.9849 42.9666 32.0413 42.9801C32.0976 42.9935 32.1507 43.018 32.1975 43.0522C32.2442 43.0863 32.2837 43.1295 32.3136 43.1791L34.4487 46.5827C34.4928 46.6519 34.516 46.7324 34.5155 46.8144V55.5055C34.5157 55.5937 34.4892 55.68 34.4395 55.7529L31.7193 59.7247C31.6802 59.7833 31.6276 59.8315 31.5658 59.8653C31.504 59.899 31.4349 59.9173 31.3645 59.9184Z" fill="#8A69D4"/>
  <path d="M48.3474 29.465V32.1081L44.0274 37.0473C43.958 37.1267 43.9199 37.2285 43.92 37.334V40.1145L41.4982 42.9199C41.4341 43.008 41.4054 43.1169 41.4176 43.2252C41.4298 43.3334 41.4822 43.4332 41.5643 43.5048C41.6464 43.5764 41.7523 43.6146 41.8613 43.612C41.9702 43.6094 42.0742 43.5661 42.1528 43.4906L44.6832 40.5622C44.7514 40.4827 44.789 40.3815 44.7893 40.2768V37.4976L49.1093 32.5597C49.1795 32.4802 49.2182 32.3778 49.2179 32.2717V28.6063C48.9404 28.9113 48.6393 29.1927 48.3474 29.465Z" fill="#009CDE"/>
  <path d="M53.4633 48.8042H49.6486C49.5361 48.8043 49.4278 48.7612 49.3462 48.6838L44.4122 43.9462C44.3339 43.8651 44.2901 43.7567 44.2899 43.644C44.2898 43.5312 44.3333 43.4228 44.4114 43.3415C44.4895 43.2601 44.5961 43.2122 44.7088 43.2078C44.8215 43.2034 44.9315 43.2428 45.0157 43.3178L49.824 47.9324H53.4633C53.5789 47.9324 53.6898 47.9783 53.7715 48.06C53.8533 48.1418 53.8992 48.2527 53.8992 48.3683C53.8992 48.4839 53.8533 48.5948 53.7715 48.6765C53.6898 48.7583 53.5789 48.8042 53.4633 48.8042Z" fill="#009CDE"/>
  <path d="M34.6909 25.1843C34.6324 25.1847 34.5745 25.1733 34.5205 25.1508C34.4665 25.1283 34.4176 25.0952 34.3767 25.0534L32.2586 22.8436C32.1798 22.7623 32.136 22.6532 32.1369 22.5399L32.1748 13.4287C32.1748 13.3715 32.1861 13.3148 32.208 13.262C32.2299 13.2092 32.2621 13.1612 32.3026 13.1209C32.3431 13.0805 32.3911 13.0485 32.444 13.0267C32.4969 13.005 32.5536 12.9939 32.6107 12.994C32.7265 12.9947 32.8372 13.0413 32.9187 13.1235C33.0002 13.2057 33.0457 13.3168 33.0454 13.4326L33.0074 22.3671L35.009 24.446C35.0683 24.5076 35.1082 24.5853 35.1237 24.6694C35.1392 24.7535 35.1296 24.8403 35.0961 24.9191C35.0626 24.9978 35.0067 25.0649 34.9354 25.112C34.864 25.1592 34.7804 25.1843 34.6948 25.1843H34.6909Z" fill="#8A69D4"/>
  <path d="M31.9497 42.9605H27.0759L24.065 39.4823V39.3108C23.7757 39.3605 23.4825 39.4155 23.1932 39.4797V39.6512C23.1934 39.7559 23.231 39.8571 23.2992 39.9365L26.5405 43.6884C26.5817 43.7355 26.6323 43.7733 26.6892 43.7992C26.7461 43.8252 26.8079 43.8387 26.8704 43.8389H31.9445C32.0601 43.8389 32.1709 43.793 32.2527 43.7113C32.3344 43.6295 32.3804 43.5186 32.3804 43.403C32.3804 43.2874 32.3344 43.1765 32.2527 43.0948C32.1709 43.013 32.0601 42.9671 31.9445 42.9671L31.9497 42.9605Z" fill="#FFB81C"/>
  <path d="M29.1299 35.1059V23.3018C29.1303 23.2182 29.1062 23.1363 29.0605 23.0662L27.5786 20.7609V18.1165C27.5792 18.012 27.5415 17.911 27.4726 17.8324L26.2564 16.4239V12.8199C26.2564 12.7043 26.2105 12.5934 26.1288 12.5117C26.047 12.4299 25.9361 12.384 25.8205 12.384C25.7049 12.384 25.594 12.4299 25.5123 12.5117C25.4305 12.5934 25.3846 12.7043 25.3846 12.8199V16.5862C25.3846 16.6909 25.4222 16.7922 25.4906 16.8716L26.7055 18.2788V20.8826C26.7058 20.9666 26.7299 21.0487 26.7748 21.1196L28.2567 23.4249V34.776C28.5199 34.9993 28.8452 35.1364 29.1888 35.1687L29.1299 35.1059Z" fill="#FFB81C"/>
  <path d="M34.8663 41.4563L29.1901 35.1727C28.8465 35.1403 28.5212 35.0032 28.2581 34.7799V35.2774C28.2581 35.3857 28.2982 35.4901 28.3706 35.5706L34.2197 42.0441C34.2983 42.125 34.4053 42.1722 34.518 42.1759C34.6308 42.1796 34.7406 42.1394 34.8243 42.0638C34.9081 41.9882 34.9593 41.883 34.9671 41.7705C34.9749 41.6579 34.9388 41.5467 34.8663 41.4602V41.4563Z" fill="#FF7913"/>
  <path d="M29.0252 36C28.9671 35.9999 28.9097 35.9883 28.8562 35.9659C28.8027 35.9434 28.7543 35.9105 28.7136 35.8691L24.6711 31.7481C24.589 31.6676 24.5419 31.558 24.5402 31.4431V20.9455C24.5402 20.8298 24.5861 20.719 24.6679 20.6372C24.7497 20.5555 24.8605 20.5095 24.9761 20.5095C25.0918 20.5095 25.2026 20.5555 25.2844 20.6372C25.3661 20.719 25.4121 20.8298 25.4121 20.9455V31.2742L29.3315 35.2669C29.413 35.3488 29.4587 35.4597 29.4587 35.5752C29.4587 35.6907 29.413 35.8016 29.3315 35.8835C29.2487 35.9611 29.1386 36.0029 29.0252 36Z" fill="#FF7913"/>
  <path d="M19.0185 32.7783C18.9446 32.7784 18.872 32.7597 18.8074 32.724C18.7428 32.6883 18.6884 32.6367 18.6493 32.5741L16.2929 28.8223C16.2315 28.7242 16.2115 28.6057 16.2374 28.4929C16.2633 28.3801 16.333 28.2822 16.4311 28.2207C16.5291 28.1593 16.6476 28.1393 16.7604 28.1652C16.8732 28.1911 16.9711 28.2608 17.0326 28.3588L19.3889 32.1107C19.4198 32.1587 19.4409 32.2124 19.4511 32.2686C19.4612 32.3248 19.4602 32.3825 19.448 32.4383C19.4359 32.4941 19.4128 32.5469 19.3802 32.5938C19.3476 32.6407 19.3061 32.6807 19.258 32.7116C19.1865 32.757 19.1032 32.7803 19.0185 32.7783Z" fill="#009CDE"/>
  <path d="M23.6343 40.0071H21.7309C21.6731 40.0068 21.6159 39.9951 21.5627 39.9726C21.5095 39.9502 21.4612 39.9174 21.4206 39.8762L18.3665 36.7985H14.4668C14.3511 36.7985 14.2403 36.7526 14.1585 36.6709C14.0768 36.5891 14.0308 36.4782 14.0308 36.3626C14.0308 36.247 14.0768 36.1361 14.1585 36.0544C14.2403 35.9726 14.3511 35.9267 14.4668 35.9267H18.5485C18.6063 35.927 18.6634 35.9387 18.7167 35.9612C18.7699 35.9836 18.8182 36.0164 18.8587 36.0576L21.9089 39.1418H23.6343C23.7499 39.1418 23.8608 39.1877 23.9426 39.2695C24.0243 39.3513 24.0702 39.4621 24.0702 39.5777C24.0702 39.6934 24.0243 39.8042 23.9426 39.886C23.8608 39.9677 23.7499 40.0137 23.6343 40.0137V40.0071Z" fill="#009CDE"/>
  <path d="M22.9091 25.3217C22.7935 25.3217 22.6826 25.2758 22.6009 25.1941C22.5191 25.1123 22.4732 25.0014 22.4732 24.8858V17.6727C22.4732 17.5571 22.5191 17.4462 22.6009 17.3645C22.6826 17.2827 22.7935 17.2368 22.9091 17.2368C23.0247 17.2368 23.1356 17.2827 23.2173 17.3645C23.2991 17.4462 23.345 17.5571 23.345 17.6727V24.8858C23.345 25.0014 23.2991 25.1123 23.2173 25.1941C23.1356 25.2758 23.0247 25.3217 22.9091 25.3217Z" fill="#009CDE"/>
  <path d="M21.816 44.1268C21.7492 44.1268 21.6833 44.1115 21.6234 44.082C21.5634 44.0525 21.5111 44.0096 21.4704 43.9567L19.8092 41.8019H14.8346C14.719 41.8019 14.6081 41.756 14.5264 41.6742C14.4446 41.5925 14.3987 41.4816 14.3987 41.366C14.3987 41.2503 14.4446 41.1395 14.5264 41.0577C14.6081 40.976 14.719 40.93 14.8346 40.93H20.0291C20.0957 40.93 20.1616 40.9452 20.2215 40.9744C20.2814 41.0037 20.3338 41.0463 20.3747 41.0989L22.1681 43.4239C22.2181 43.4884 22.249 43.5656 22.2573 43.6469C22.2655 43.7281 22.2508 43.81 22.2148 43.8832C22.1788 43.9565 22.1229 44.0182 22.0536 44.0612C21.9842 44.1043 21.9042 44.127 21.8225 44.1268H21.816Z" fill="#FFB81C"/>
  <path d="M29.6736 17.2895V11.2847C29.6736 11.1691 29.6276 11.0582 29.5459 10.9765C29.4641 10.8947 29.3532 10.8488 29.2376 10.8488C29.122 10.8488 29.0111 10.8947 28.9294 10.9765C28.8476 11.0582 28.8017 11.1691 28.8017 11.2847V17.465C28.8019 17.5783 28.846 17.6871 28.9248 17.7687L30.5637 19.4522C30.7221 19.1903 30.8766 18.9364 31.0245 18.6772L29.6736 17.2895Z" fill="#8A69D4"/>
  <path d="M32.8844 20.5894L31.015 18.6676C30.8671 18.9295 30.7126 19.1913 30.5542 19.4426L32.256 21.1968C32.2965 21.2387 32.3452 21.2719 32.399 21.2945C32.4528 21.317 32.5106 21.3283 32.5689 21.3277C32.6547 21.3281 32.7388 21.303 32.8104 21.2557C32.882 21.2084 32.9381 21.1409 32.9714 21.0618C33.0047 20.9827 33.0139 20.8955 32.9977 20.8112C32.9815 20.7269 32.9407 20.6492 32.8805 20.5881L32.8844 20.5894Z" fill="#8A69D4"/>
  <path d="M18.7514 45.9216H16.4946C16.3789 45.9216 16.2681 45.8757 16.1863 45.7939C16.1046 45.7122 16.0586 45.6013 16.0586 45.4857C16.0586 45.3701 16.1046 45.2592 16.1863 45.1774C16.2681 45.0957 16.3789 45.0497 16.4946 45.0497H18.6428L21.8226 43.2524C21.8881 43.2156 21.9621 43.1962 22.0372 43.1961H27.453C27.5686 43.1961 27.6794 43.242 27.7612 43.3238C27.843 43.4055 27.8889 43.5164 27.8889 43.632C27.8889 43.7476 27.843 43.8585 27.7612 43.9402C27.6794 44.022 27.5686 44.0679 27.453 44.0679H22.1472L18.9661 45.8653C18.9006 45.9022 18.8266 45.9216 18.7514 45.9216Z" fill="#FFB81C"/>
  <path d="M22.21 49.4535H18.5446C18.429 49.4535 18.3181 49.4076 18.2363 49.3258C18.1546 49.2441 18.1086 49.1332 18.1086 49.0176C18.1086 48.902 18.1546 48.7911 18.2363 48.7093C18.3181 48.6276 18.429 48.5817 18.5446 48.5817H22.0215L27.127 43.3283C27.1662 43.2846 27.2138 43.2492 27.267 43.2243C27.3203 43.1995 27.378 43.1856 27.4367 43.1836C27.4954 43.1816 27.5539 43.1915 27.6087 43.2127C27.6634 43.2339 27.7134 43.2659 27.7555 43.3068C27.7976 43.3478 27.831 43.3968 27.8537 43.451C27.8763 43.5052 27.8878 43.5634 27.8874 43.6221C27.8871 43.6809 27.8748 43.7389 27.8514 43.7928C27.8281 43.8467 27.794 43.8953 27.7514 43.9357L22.515 49.3213C22.4346 49.4036 22.3251 49.451 22.21 49.4535Z" fill="#FFB81C"/>
  <path d="M39.1837 21.5843C39.0993 21.5838 39.0168 21.559 38.9463 21.5127C38.8757 21.4664 38.82 21.4007 38.7859 21.3234C38.7519 21.2462 38.7409 21.1608 38.7544 21.0774C38.7678 20.9941 38.8051 20.9164 38.8617 20.8538L42.1344 17.2852V11.2752C42.1344 11.1596 42.1803 11.0487 42.2621 10.967C42.3439 10.8852 42.4547 10.8393 42.5703 10.8393C42.686 10.8393 42.7968 10.8852 42.8786 10.967C42.9603 11.0487 43.0063 11.1596 43.0063 11.2752V17.4554C43.0064 17.564 42.9657 17.6686 42.8924 17.7487L39.5045 21.4429C39.4639 21.4876 39.4144 21.5233 39.3591 21.5477C39.3039 21.5721 39.2441 21.5845 39.1837 21.5843Z" fill="#8A69D4"/>
  <path d="M22.8842 30.0895C22.8232 30.0896 22.7629 30.0768 22.7072 30.052C22.6514 30.0272 22.6016 29.9909 22.5609 29.9455L17.602 24.4721C17.5245 24.3864 17.4841 24.2733 17.4899 24.1578C17.4957 24.0423 17.5471 23.9339 17.6328 23.8563C17.7186 23.7787 17.8316 23.7383 17.9471 23.7441C18.0626 23.7498 18.1711 23.8012 18.2487 23.887L23.2076 29.3603C23.2461 29.4031 23.2758 29.4531 23.2948 29.5075C23.3138 29.5618 23.3219 29.6194 23.3185 29.6769C23.3151 29.7344 23.3003 29.7906 23.2749 29.8424C23.2496 29.8941 23.2142 29.9402 23.1709 29.9782C23.0924 30.0494 22.9902 30.089 22.8842 30.0895Z" fill="#009CDE"/>
  <path d="M51.8112 21.3814C51.8438 21.3343 51.8668 21.2812 51.8789 21.2252C51.8909 21.1692 51.8919 21.1114 51.8816 21.0551C51.8713 20.9987 51.8501 20.945 51.819 20.8968C51.7879 20.8487 51.7477 20.8072 51.7006 20.7746C51.6535 20.742 51.6004 20.719 51.5445 20.707C51.4885 20.6949 51.4306 20.694 51.3743 20.7042C51.318 20.7145 51.2642 20.7358 51.2161 20.7668C51.1679 20.7979 51.1264 20.8381 51.0938 20.8852L48.4246 24.7562C48.3738 24.8287 48.3468 24.9152 48.3474 25.0036V29.465C48.6393 29.1953 48.9404 28.9113 49.2192 28.601V25.1345L51.8112 21.3814Z" fill="#FFB81C"/>
  <path d="M42.5742 35.1059L36.8391 41.4563C36.7983 41.4983 36.7663 41.5481 36.7452 41.6028C36.724 41.6574 36.7141 41.7158 36.716 41.7744C36.7179 41.8329 36.7316 41.8905 36.7563 41.9437C36.7809 41.9968 36.8161 42.0445 36.8596 42.0837C36.9031 42.123 36.954 42.1531 37.0094 42.1722C37.0648 42.1913 37.1235 42.1991 37.1819 42.195C37.2404 42.191 37.2974 42.1752 37.3497 42.1485C37.4019 42.1219 37.4482 42.0851 37.4858 42.0401L43.3309 35.5667C43.4039 35.4865 43.4441 35.3819 43.4435 35.2735V34.0848L42.5716 35.0156L42.5742 35.1059Z" fill="#FF7913"/>
  <path d="M45.8837 12.384C45.768 12.384 45.6572 12.4299 45.5754 12.5117C45.4937 12.5934 45.4477 12.7043 45.4477 12.8199V16.4239L44.2316 17.8324C44.1632 17.9113 44.1255 18.0121 44.1256 18.1165V20.7556L42.6437 23.0609C42.5986 23.1313 42.5745 23.213 42.5743 23.2966V35.0156L43.4461 34.0848V23.4249L44.928 21.1196C44.9735 21.0489 44.9976 20.9666 44.9974 20.8826V18.2788L46.2109 16.8716C46.2798 16.7925 46.3175 16.691 46.317 16.5862V12.8199C46.317 12.7048 46.2714 12.5943 46.1902 12.5126C46.109 12.4309 45.9988 12.3847 45.8837 12.384Z" fill="#FF7913"/>
  <path d="M42.6954 36.0477C42.6389 36.048 42.5829 36.0372 42.5305 36.0159C42.4782 35.9946 42.4306 35.9631 42.3904 35.9233C42.3493 35.8834 42.3166 35.8357 42.294 35.783C42.2714 35.7303 42.2595 35.6737 42.2589 35.6164C42.2583 35.5591 42.269 35.5022 42.2905 35.4491C42.3119 35.3959 42.3437 35.3475 42.3839 35.3067L46.302 31.314V20.9931C46.302 20.8775 46.3479 20.7666 46.4297 20.6849C46.5114 20.6031 46.6223 20.5572 46.7379 20.5572C46.8535 20.5572 46.9644 20.6031 47.0462 20.6849C47.1279 20.7666 47.1738 20.8775 47.1738 20.9931V31.4999C47.174 31.6139 47.1294 31.7235 47.0495 31.8049L43.0109 35.9168C42.9697 35.9585 42.9206 35.9916 42.8664 36.0141C42.8122 36.0366 42.7541 36.048 42.6954 36.0477Z" fill="#FF7913"/>
  <path d="M49.9785 40.0071H48.0711C47.9555 40.0071 47.8446 39.9612 47.7629 39.8794C47.6811 39.7977 47.6352 39.6868 47.6352 39.5712C47.6352 39.4556 47.6811 39.3447 47.7629 39.263C47.8446 39.1812 47.9555 39.1353 48.0711 39.1353H49.7965L52.8467 36.0563C52.8872 36.0151 52.9355 35.9823 52.9887 35.9599C53.042 35.9374 53.0991 35.9257 53.1569 35.9254H57.2374C57.353 35.9254 57.4639 35.9713 57.5456 36.0531C57.6274 36.1348 57.6733 36.2457 57.6733 36.3613C57.6733 36.4769 57.6274 36.5878 57.5456 36.6696C57.4639 36.7513 57.353 36.7972 57.2374 36.7972H53.3389L50.2874 39.8762C50.2472 39.9175 50.1992 39.9503 50.1461 39.9728C50.0931 39.9953 50.0361 40.0069 49.9785 40.0071Z" fill="#009CDE"/>
  <path d="M37.2122 37.9466C37.1289 37.9461 37.0474 37.9219 36.9774 37.8766C36.9074 37.8314 36.8517 37.767 36.8171 37.6912C36.7824 37.6154 36.7701 37.5313 36.7817 37.4488C36.7933 37.3662 36.8282 37.2887 36.8823 37.2253L39.7008 33.9644V26.9162C39.7008 26.8006 39.7467 26.6897 39.8285 26.608C39.9102 26.5262 40.0211 26.4803 40.1367 26.4803C40.2523 26.4803 40.3632 26.5262 40.445 26.608C40.5267 26.6897 40.5727 26.8006 40.5727 26.9162V34.1267C40.573 34.2315 40.5353 34.3329 40.4666 34.4121L37.5434 37.7961C37.5023 37.8435 37.4514 37.8815 37.3942 37.9074C37.3371 37.9334 37.275 37.9468 37.2122 37.9466Z" fill="#FF7913"/>
  <path d="M48.7951 25.3217C48.6795 25.3214 48.5689 25.2754 48.4872 25.1937C48.4055 25.112 48.3595 25.0013 48.3591 24.8858V17.6727C48.3652 17.5611 48.4139 17.456 48.4951 17.3791C48.5763 17.3023 48.6839 17.2594 48.7957 17.2594C48.9075 17.2594 49.0151 17.3023 49.0963 17.3791C49.1775 17.456 49.2262 17.5611 49.2323 17.6727V24.8858C49.2319 25.0016 49.1857 25.1124 49.1038 25.1941C49.0218 25.2759 48.9108 25.3217 48.7951 25.3217Z" fill="#FFB81C"/>
  <path d="M49.8135 43.8716C49.7292 43.8715 49.6468 43.847 49.5762 43.801C49.5055 43.7551 49.4497 43.6896 49.4155 43.6126C49.3813 43.5356 49.3702 43.4503 49.3834 43.3671C49.3967 43.2839 49.4337 43.2063 49.4902 43.1437L51.3582 41.074C51.3991 41.0288 51.4489 40.9925 51.5046 40.9677C51.5603 40.9429 51.6206 40.9301 51.6816 40.93H56.8695C56.9851 40.93 57.096 40.976 57.1778 41.0577C57.2595 41.1395 57.3054 41.2503 57.3054 41.366C57.3054 41.4816 57.2595 41.5925 57.1778 41.6742C57.096 41.756 56.9851 41.8019 56.8695 41.8019H51.8753L50.1382 43.7236C50.0976 43.7698 50.0476 43.8068 49.9917 43.8323C49.9357 43.8578 49.875 43.8712 49.8135 43.8716Z" fill="#009CDE"/>
  <path d="M55.2162 45.9491H52.9528C52.8671 45.9493 52.7831 45.9253 52.7106 45.8797L49.5413 43.8938H44.2565C44.1349 43.8938 44.0184 43.8455 43.9325 43.7596C43.8466 43.6737 43.7983 43.5571 43.7983 43.4356C43.7983 43.3141 43.8466 43.1976 43.9325 43.1117C44.0184 43.0257 44.1349 42.9774 44.2565 42.9774H49.6722C49.7582 42.9772 49.8427 43.0012 49.9157 43.0468L53.085 45.0327H55.2162C55.3377 45.0327 55.4542 45.081 55.5402 45.1669C55.6261 45.2528 55.6744 45.3694 55.6744 45.4909C55.6744 45.6124 55.6261 45.729 55.5402 45.8149C55.4542 45.9008 55.3377 45.9491 55.2162 45.9491Z" fill="#009CDE"/>
  <path d="M52.0521 51.9329H49.2284C49.1697 51.9334 49.1115 51.9221 49.0573 51.8996C49.0031 51.8771 48.954 51.8439 48.9129 51.802L41.3987 43.9069C41.3592 43.8654 41.3283 43.8165 41.3078 43.7631C41.2872 43.7096 41.2774 43.6526 41.2788 43.5954C41.2803 43.5381 41.293 43.4817 41.3163 43.4294C41.3395 43.377 41.3729 43.3298 41.4144 43.2903C41.4559 43.2508 41.5048 43.22 41.5582 43.1994C41.6117 43.1788 41.6687 43.169 41.7259 43.1705C41.7832 43.1719 41.8396 43.1846 41.8919 43.2079C41.9443 43.2312 41.9915 43.2645 42.031 43.306L49.4156 51.0545H52.0521C52.1637 51.0607 52.2688 51.1093 52.3457 51.1905C52.4226 51.2717 52.4654 51.3793 52.4654 51.4911C52.4654 51.6029 52.4226 51.7105 52.3457 51.7917C52.2688 51.8729 52.1637 51.9216 52.0521 51.9277V51.9329Z" fill="#009CDE"/>
  <path d="M22.9471 51.9329H20.1247C20.013 51.9268 19.9079 51.8782 19.8311 51.797C19.7542 51.7158 19.7113 51.6082 19.7113 51.4964C19.7113 51.3845 19.7542 51.277 19.8311 51.1958C19.9079 51.1146 20.013 51.0659 20.1247 51.0598H22.7612L30.1457 43.3008C30.2254 43.217 30.3352 43.1682 30.4508 43.1653C30.5664 43.1623 30.6785 43.2054 30.7623 43.2851C30.8461 43.3648 30.8949 43.4745 30.8979 43.5901C30.9008 43.7058 30.8577 43.8178 30.778 43.9017L23.2639 51.7968C23.223 51.8398 23.1739 51.874 23.1194 51.8974C23.065 51.9208 23.0063 51.9329 22.9471 51.9329Z" fill="#FFB81C"/>
  <path d="M48.7736 29.975C48.6893 29.9746 48.607 29.9499 48.5364 29.9037C48.4659 29.8576 48.4102 29.7921 48.376 29.7151C48.3419 29.638 48.3307 29.5528 48.3439 29.4695C48.357 29.3863 48.394 29.3086 48.4502 29.2459L53.4091 23.7726C53.488 23.6922 53.5949 23.6455 53.7075 23.6422C53.8201 23.639 53.9295 23.6794 54.013 23.755C54.0964 23.8307 54.1473 23.9357 54.155 24.048C54.1628 24.1604 54.1267 24.2714 54.0545 24.3577L49.0969 29.831C49.0561 29.8763 49.0062 29.9125 48.9505 29.9373C48.8948 29.9621 48.8346 29.975 48.7736 29.975Z" fill="#FFB81C"/>
  <path d="M29.194 12.3015C29.7139 12.3015 30.1353 11.8801 30.1353 11.3603C30.1353 10.8405 29.7139 10.4191 29.194 10.4191C28.6742 10.4191 28.2528 10.8405 28.2528 11.3603C28.2528 11.8801 28.6742 12.3015 29.194 12.3015Z" fill="#8A69D4"/>
  <path d="M42.6004 12.3015C43.1202 12.3015 43.5417 11.8801 43.5417 11.3603C43.5417 10.8405 43.1202 10.4191 42.6004 10.4191C42.0806 10.4191 41.6592 10.8405 41.6592 11.3603C41.6592 11.8801 42.0806 12.3015 42.6004 12.3015Z" fill="#8A69D4"/>
  <path d="M34.4919 37.9466C34.4293 37.9467 34.3675 37.9333 34.3106 37.9073C34.2536 37.8813 34.203 37.8434 34.162 37.7961L31.2375 34.4121C31.1693 34.3326 31.1317 34.2314 31.1315 34.1267V26.9162C31.1315 26.8006 31.1774 26.6897 31.2592 26.608C31.3409 26.5262 31.4518 26.4803 31.5674 26.4803C31.683 26.4803 31.7939 26.5262 31.8756 26.608C31.9574 26.6897 32.0033 26.8006 32.0033 26.9162V33.9644L34.8218 37.2253C34.8765 37.2885 34.9119 37.3661 34.9238 37.4488C34.9356 37.5316 34.9235 37.616 34.8887 37.692C34.8539 37.768 34.798 37.8324 34.7277 37.8776C34.6573 37.9227 34.5755 37.9467 34.4919 37.9466Z" fill="#FF7913"/>
  <path d="M35.89 57.5424C35.828 57.5424 35.7665 57.5302 35.7092 57.5064C35.6519 57.4827 35.5998 57.4479 35.5559 57.404C35.512 57.3601 35.4772 57.308 35.4534 57.2507C35.4297 57.1933 35.4175 57.1319 35.4175 57.0698V46.55L34.56 45.0092C34.5217 44.9388 34.5015 44.8601 34.5011 44.7801V13.43C34.5011 13.3371 34.5279 13.2461 34.5783 13.1681L35.4816 11.7962C35.5144 11.7412 35.5581 11.6935 35.6099 11.6559C35.6618 11.6183 35.7207 11.5917 35.7832 11.5776C35.8457 11.5634 35.9103 11.5622 35.9733 11.5738C36.0363 11.5855 36.0962 11.6098 36.1495 11.6453C36.2028 11.6808 36.2483 11.7268 36.2832 11.7805C36.3182 11.8341 36.3419 11.8943 36.3529 11.9574C36.3639 12.0205 36.362 12.0851 36.3472 12.1474C36.3325 12.2097 36.3052 12.2684 36.2671 12.3199L35.441 13.574V44.657L36.2972 46.1978C36.3366 46.2682 36.3573 46.3475 36.3574 46.4282V57.0764C36.3554 57.1996 36.3054 57.3171 36.2182 57.4041C36.1309 57.4911 36.0132 57.5407 35.89 57.5424Z" fill="#8A69D4"/>
  <path d="M30.0986 57.6956H28.0983C28.0439 57.6987 27.9894 57.6907 27.9382 57.672C27.8869 57.6533 27.8401 57.6243 27.8004 57.5869C27.7608 57.5494 27.7292 57.5043 27.7076 57.4542C27.686 57.4041 27.6749 57.3502 27.6749 57.2956C27.6749 57.2411 27.686 57.1872 27.7076 57.1371C27.7292 57.087 27.7608 57.0418 27.8004 57.0044C27.8401 56.967 27.8869 56.938 27.9382 56.9193C27.9894 56.9006 28.0439 56.8926 28.0983 56.8957H29.8957L31.9052 54.1636V47.8643L30.8278 46.0538C30.7735 45.9625 30.7577 45.8534 30.7838 45.7504C30.81 45.6474 30.8759 45.559 30.9672 45.5047C31.0585 45.4504 31.1677 45.4345 31.2707 45.4607C31.3736 45.4868 31.462 45.5528 31.5164 45.6441L32.65 47.5501C32.6867 47.6119 32.7057 47.6825 32.705 47.7543V54.2998C32.7057 54.3851 32.6786 54.4682 32.6278 54.5367L30.4207 57.5372C30.383 57.5868 30.3343 57.627 30.2784 57.6544C30.2225 57.6819 30.1609 57.696 30.0986 57.6956Z" fill="#8A69D4"/>
  <path d="M33.2705 61.2799C33.1834 61.2814 33.0976 61.2587 33.0226 61.2144C32.9476 61.17 32.8864 61.1058 32.8457 61.0287C32.805 60.9517 32.7865 60.8649 32.7921 60.778C32.7978 60.691 32.8275 60.6074 32.8778 60.5363L35.4109 56.9206V46.4282C35.411 46.3475 35.4317 46.2682 35.4711 46.1978L36.3273 44.657V13.43C36.3273 13.3046 36.3771 13.1844 36.4657 13.0958C36.5543 13.0072 36.6745 12.9574 36.7998 12.9574C36.9252 12.9574 37.0454 13.0072 37.134 13.0958C37.2226 13.1844 37.2724 13.3046 37.2724 13.43V44.7801C37.2722 44.8603 37.2515 44.9392 37.2122 45.0092L36.3574 46.55V57.0764C36.3573 57.1734 36.3271 57.2681 36.271 57.3473L33.6528 61.0848C33.609 61.1452 33.5515 61.1943 33.4851 61.2282C33.4186 61.2621 33.3451 61.2798 33.2705 61.2799Z" fill="#8A69D4"/>
  <path d="M36.8195 13.9025C36.7422 13.9032 36.6659 13.8848 36.5974 13.849C36.5289 13.8131 36.4703 13.7609 36.4268 13.697L35.4855 12.3238C35.4147 12.2196 35.3881 12.0916 35.4117 11.9679C35.4353 11.8441 35.507 11.7348 35.6112 11.664C35.7153 11.5932 35.8434 11.5666 35.9671 11.5902C36.0908 11.6138 36.2001 11.6855 36.271 11.7897L37.2109 13.1629C37.2601 13.234 37.2889 13.3172 37.294 13.4036C37.2991 13.4899 37.2803 13.5759 37.2398 13.6523C37.1992 13.7287 37.1384 13.7924 37.0641 13.8366C36.9897 13.8807 36.9046 13.9035 36.8182 13.9025H36.8195Z" fill="#8A69D4"/>
  <path d="M36.9857 25.4055C36.8978 25.4057 36.8118 25.3792 36.7391 25.3296C36.6665 25.28 36.6105 25.2095 36.5787 25.1275C36.5468 25.0455 36.5405 24.9558 36.5606 24.8701C36.5807 24.7844 36.6262 24.7069 36.6912 24.6476L38.7216 22.7913V13.3828C38.7277 13.2712 38.7764 13.1661 38.8576 13.0892C38.9388 13.0124 39.0463 12.9695 39.1582 12.9695C39.27 12.9695 39.3776 13.0124 39.4588 13.0892C39.54 13.1661 39.5886 13.2712 39.5948 13.3828V22.9824C39.5947 23.043 39.582 23.103 39.5574 23.1585C39.5328 23.2139 39.4969 23.2636 39.4521 23.3044L37.279 25.2916C37.1988 25.3648 37.0942 25.4054 36.9857 25.4055Z" fill="#8A69D4"/>
  <path d="M38.5226 61.5456C38.4562 61.5458 38.3907 61.5293 38.3322 61.4978C38.2736 61.4662 38.2239 61.4206 38.1875 61.3649L35.5562 57.3487C35.525 57.3048 35.5029 57.2551 35.4913 57.2025C35.4797 57.1499 35.4788 57.0954 35.4887 57.0425C35.4986 56.9895 35.5191 56.9391 35.5489 56.8943C35.5788 56.8494 35.6174 56.8111 35.6624 56.7815C35.7074 56.7519 35.7579 56.7317 35.8109 56.722C35.8639 56.7124 35.9183 56.7136 35.9709 56.7255C36.0234 56.7374 36.073 56.7597 36.1167 56.7912C36.1604 56.8227 36.1973 56.8627 36.2252 56.9088L38.8578 60.9264C38.8976 60.9867 38.9203 61.0567 38.9234 61.1289C38.9266 61.2011 38.9101 61.2728 38.8757 61.3364C38.8413 61.3999 38.7903 61.453 38.7281 61.4898C38.6659 61.5267 38.5949 61.5459 38.5226 61.5456Z" fill="#8A69D4"/>
  <path d="M32.6291 14.345C33.1489 14.345 33.5703 13.9236 33.5703 13.4038C33.5703 12.884 33.1489 12.4625 32.6291 12.4625C32.1093 12.4625 31.6879 12.884 31.6879 13.4038C31.6879 13.9236 32.1093 14.345 32.6291 14.345Z" fill="#8A69D4"/>
  <path d="M19.9217 21.8474C20.4416 21.8474 20.863 21.426 20.863 20.9062C20.863 20.3863 20.4416 19.9649 19.9217 19.9649C19.4019 19.9649 18.9805 20.3863 18.9805 20.9062C18.9805 21.426 19.4019 21.8474 19.9217 21.8474Z" fill="#009CDE"/>
  <path d="M17.8613 24.8609C18.3811 24.8609 18.8025 24.4395 18.8025 23.9197C18.8025 23.3999 18.3811 22.9785 17.8613 22.9785C17.3414 22.9785 16.92 23.3999 16.92 23.9197C16.92 24.4395 17.3414 24.8609 17.8613 24.8609Z" fill="#009CDE"/>
  <path d="M25.8467 14.1172C26.3665 14.1172 26.7879 13.6958 26.7879 13.176C26.7879 12.6562 26.3665 12.2348 25.8467 12.2348C25.3269 12.2348 24.9055 12.6562 24.9055 13.176C24.9055 13.6958 25.3269 14.1172 25.8467 14.1172Z" fill="#FFB81C"/>
  <path d="M31.6695 27.8234C32.1893 27.8234 32.6107 27.402 32.6107 26.8822C32.6107 26.3624 32.1893 25.9409 31.6695 25.9409C31.1497 25.9409 30.7283 26.3624 30.7283 26.8822C30.7283 27.402 31.1497 27.8234 31.6695 27.8234Z" fill="#FF7913"/>
  <path d="M16.4382 46.4217C16.9581 46.4217 17.3795 46.0003 17.3795 45.4804C17.3795 44.9606 16.9581 44.5392 16.4382 44.5392C15.9184 44.5392 15.497 44.9606 15.497 45.4804C15.497 46.0003 15.9184 46.4217 16.4382 46.4217Z" fill="#FFB81C"/>
  <path d="M18.4215 49.9968C18.9414 49.9968 19.3628 49.5754 19.3628 49.0556C19.3628 48.5357 18.9414 48.1143 18.4215 48.1143C17.9017 48.1143 17.4803 48.5357 17.4803 49.0556C17.4803 49.5754 17.9017 49.9968 18.4215 49.9968Z" fill="#FFB81C"/>
  <path d="M22.9253 18.6204C23.4451 18.6204 23.8665 18.199 23.8665 17.6792C23.8665 17.1594 23.4451 16.738 22.9253 16.738C22.4055 16.738 21.9841 17.1594 21.9841 17.6792C21.9841 18.199 22.4055 18.6204 22.9253 18.6204Z" fill="#009CDE"/>
  <path d="M39.1326 14.2691C39.6525 14.2691 40.0739 13.8477 40.0739 13.3279C40.0739 12.808 39.6525 12.3866 39.1326 12.3866C38.6128 12.3866 38.1914 12.808 38.1914 13.3279C38.1914 13.8477 38.6128 14.2691 39.1326 14.2691Z" fill="#8A69D4"/>
  <path d="M51.8348 21.6799C52.3546 21.6799 52.776 21.2584 52.776 20.7386C52.776 20.2188 52.3546 19.7974 51.8348 19.7974C51.315 19.7974 50.8936 20.2188 50.8936 20.7386C50.8936 21.2584 51.315 21.6799 51.8348 21.6799Z" fill="#FFB81C"/>
  <path d="M53.894 24.9539C54.4138 24.9539 54.8352 24.5325 54.8352 24.0127C54.8352 23.4928 54.4138 23.0714 53.894 23.0714C53.3742 23.0714 52.9528 23.4928 52.9528 24.0127C52.9528 24.5325 53.3742 24.9539 53.894 24.9539Z" fill="#FFB81C"/>
  <path d="M45.8588 14.1172C46.3786 14.1172 46.8 13.6958 46.8 13.176C46.8 12.6562 46.3786 12.2348 45.8588 12.2348C45.3389 12.2348 44.9175 12.6562 44.9175 13.176C44.9175 13.6958 45.3389 14.1172 45.8588 14.1172Z" fill="#FF7913"/>
  <path d="M40.0359 27.8234C40.5557 27.8234 40.9771 27.402 40.9771 26.8822C40.9771 26.3624 40.5557 25.9409 40.0359 25.9409C39.5161 25.9409 39.0947 26.3624 39.0947 26.8822C39.0947 27.402 39.5161 27.8234 40.0359 27.8234Z" fill="#FF7913"/>
  <path d="M56.9704 33.4093C57.4902 33.4093 57.9116 32.9879 57.9116 32.4681C57.9116 31.9482 57.4902 31.5268 56.9704 31.5268C56.4505 31.5268 56.0291 31.9482 56.0291 32.4681C56.0291 32.9879 56.4505 33.4093 56.9704 33.4093Z" fill="#009CDE"/>
  <path d="M57.2504 37.1808C57.7703 37.1808 58.1917 36.7594 58.1917 36.2396C58.1917 35.7197 57.7703 35.2983 57.2504 35.2983C56.7306 35.2983 56.3092 35.7197 56.3092 36.2396C56.3092 36.7594 56.7306 37.1808 57.2504 37.1808Z" fill="#009CDE"/>
  <path d="M57.0214 42.3098C57.5412 42.3098 57.9626 41.8884 57.9626 41.3686C57.9626 40.8488 57.5412 40.4273 57.0214 40.4273C56.5015 40.4273 56.0801 40.8488 56.0801 41.3686C56.0801 41.8884 56.5015 42.3098 57.0214 42.3098Z" fill="#009CDE"/>
  <path d="M14.6958 33.6711C15.2157 33.6711 15.6371 33.2497 15.6371 32.7299C15.6371 32.2101 15.2157 31.7887 14.6958 31.7887C14.176 31.7887 13.7546 32.2101 13.7546 32.7299C13.7546 33.2497 14.176 33.6711 14.6958 33.6711Z" fill="#009CDE"/>
  <path d="M14.4157 37.1808C14.9356 37.1808 15.357 36.7594 15.357 36.2396C15.357 35.7197 14.9356 35.2983 14.4157 35.2983C13.8959 35.2983 13.4745 35.7197 13.4745 36.2396C13.4745 36.7594 13.8959 37.1808 14.4157 37.1808Z" fill="#009CDE"/>
  <path d="M14.6448 42.3047C15.1646 42.3047 15.586 41.8833 15.586 41.3634C15.586 40.8436 15.1646 40.4222 14.6448 40.4222C14.125 40.4222 13.7036 40.8436 13.7036 41.3634C13.7036 41.8833 14.125 42.3047 14.6448 42.3047Z" fill="#FFB81C"/>
  <path d="M55.317 46.5382C55.8368 46.5382 56.2582 46.1168 56.2582 45.5969C56.2582 45.0771 55.8368 44.6557 55.317 44.6557C54.7971 44.6557 54.3757 45.0771 54.3757 45.5969C54.3757 46.1168 54.7971 46.5382 55.317 46.5382Z" fill="#009CDE"/>
  <path d="M53.5889 49.4365C54.1088 49.4365 54.5302 49.0151 54.5302 48.4953C54.5302 47.9754 54.1088 47.554 53.5889 47.554C53.0691 47.554 52.6477 47.9754 52.6477 48.4953C52.6477 49.0151 53.0691 49.4365 53.5889 49.4365Z" fill="#009CDE"/>
  <path d="M52.1777 52.45C52.6976 52.45 53.119 52.0286 53.119 51.5088C53.119 50.989 52.6976 50.5676 52.1777 50.5676C51.6579 50.5676 51.2365 50.989 51.2365 51.5088C51.2365 52.0286 51.6579 52.45 52.1777 52.45Z" fill="#009CDE"/>
  <path d="M43.9907 58.3881C44.5105 58.3881 44.9319 57.9667 44.9319 57.4468C44.9319 56.927 44.5105 56.5056 43.9907 56.5056C43.4708 56.5056 43.0494 56.927 43.0494 57.4468C43.0494 57.9667 43.4708 58.3881 43.9907 58.3881Z" fill="#8977FA"/>
  <path d="M28.0211 58.6316C28.6754 58.6316 29.2058 58.1011 29.2058 57.4468C29.2058 56.7925 28.6754 56.2621 28.0211 56.2621C27.3668 56.2621 26.8364 56.7925 26.8364 57.4468C26.8364 58.1011 27.3668 58.6316 28.0211 58.6316Z" fill="#8A69D4"/>
  <path d="M43.9396 58.6316C44.5939 58.6316 45.1243 58.1011 45.1243 57.4468C45.1243 56.7925 44.5939 56.2621 43.9396 56.2621C43.2853 56.2621 42.7549 56.7925 42.7549 57.4468C42.7549 58.1011 43.2853 58.6316 43.9396 58.6316Z" fill="#8A69D4"/>
  <path d="M30.9954 60.6764C31.5152 60.6764 31.9366 60.255 31.9366 59.7351C31.9366 59.2153 31.5152 58.7939 30.9954 58.7939C30.4755 58.7939 30.0541 59.2153 30.0541 59.7351C30.0541 60.255 30.4755 60.6764 30.9954 60.6764Z" fill="#8A69D4"/>
  <path d="M40.608 60.6764C41.1278 60.6764 41.5492 60.255 41.5492 59.7351C41.5492 59.2153 41.1278 58.7939 40.608 58.7939C40.0882 58.7939 39.6667 59.2153 39.6667 59.7351C39.6667 60.255 40.0882 60.6764 40.608 60.6764Z" fill="#8A69D4"/>
  <path d="M24.0703 36.6545C24.07 36.5498 24.0324 36.4486 23.9642 36.3692L20.5305 32.3961C20.4895 32.3488 20.4388 32.3108 20.3819 32.2849C20.325 32.2589 20.2631 32.2455 20.2006 32.2455H15.014C14.8983 32.2455 14.7875 32.2915 14.7057 32.3732C14.624 32.455 14.578 32.5658 14.578 32.6815C14.578 32.7971 14.624 32.908 14.7057 32.9897C14.7875 33.0715 14.8983 33.1174 15.014 33.1174H20.0016L23.1984 36.8169V39.7558C23.4877 39.6916 23.7809 39.6367 24.0703 39.5869V36.6545Z" fill="#009CDE"/>
  <path d="M38.4716 62.0496C38.9914 62.0496 39.4128 61.6282 39.4128 61.1084C39.4128 60.5885 38.9914 60.1671 38.4716 60.1671C37.9517 60.1671 37.5303 60.5885 37.5303 61.1084C37.5303 61.6282 37.9517 62.0496 38.4716 62.0496Z" fill="#8A69D4"/>
  <path d="M33.0559 62.0496C33.5757 62.0496 33.9971 61.6282 33.9971 61.1084C33.9971 60.5885 33.5757 60.1671 33.0559 60.1671C32.536 60.1671 32.1146 60.5885 32.1146 61.1084C32.1146 61.6282 32.536 62.0496 33.0559 62.0496Z" fill="#8A69D4"/>
  <path d="M48.871 18.9871C49.3908 18.9871 49.8122 18.5657 49.8122 18.0458C49.8122 17.526 49.3908 17.1046 48.871 17.1046C48.3512 17.1046 47.9297 17.526 47.9297 18.0458C47.9297 18.5657 48.3512 18.9871 48.871 18.9871Z" fill="#FFB81C"/>
  <path d="M40.3409 59.9184C40.2699 59.9188 40.2 59.9016 40.1372 59.8685C40.0744 59.8354 40.0207 59.7874 39.9809 59.7286L37.2606 55.7568C37.2079 55.6835 37.1791 55.5957 37.1782 55.5055V46.8105C37.1783 46.7285 37.2014 46.6482 37.2449 46.5788L39.3814 43.1751C39.4438 43.0795 39.5414 43.0122 39.653 42.9877C39.7646 42.9632 39.8813 42.9835 39.9781 43.0443C40.0749 43.105 40.1439 43.2013 40.1704 43.3124C40.1969 43.4236 40.1787 43.5407 40.1197 43.6385L38.0553 46.9361V55.3745L40.7009 59.2364C40.7659 59.3319 40.7904 59.4493 40.769 59.5629C40.7477 59.6765 40.6823 59.777 40.587 59.8425C40.5147 59.8924 40.4288 59.9189 40.3409 59.9184Z" fill="#8A69D4"/>
  <path d="M52.6857 32.5165C52.6041 32.5169 52.5241 32.4937 52.4553 32.4497C52.4067 32.4194 52.3646 32.3798 52.3313 32.3332C52.2981 32.2866 52.2743 32.2339 52.2614 32.1781C52.2485 32.1223 52.2468 32.0645 52.2562 32.008C52.2657 31.9515 52.2862 31.8974 52.3165 31.8489L54.6729 28.097C54.7354 28.0014 54.8329 27.934 54.9445 27.9096C55.0561 27.8851 55.1729 27.9054 55.2696 27.9662C55.3664 28.0269 55.4355 28.1232 55.4619 28.2343C55.4884 28.3455 55.4702 28.4626 55.4112 28.5604L53.0549 32.3123C53.0156 32.3747 52.9611 32.4262 52.8965 32.4619C52.832 32.4976 52.7595 32.5164 52.6857 32.5165Z" fill="#009CDE"/>
  <path d="M44.8285 43.8467H39.7558C39.6401 43.8467 39.5293 43.8008 39.4475 43.719C39.3658 43.6373 39.3198 43.5264 39.3198 43.4108C39.3198 43.2951 39.3658 43.1843 39.4475 43.1025C39.5293 43.0208 39.6401 42.9748 39.7558 42.9748H44.6295L47.6404 39.4966V36.3927C47.6407 36.288 47.6783 36.1868 47.7464 36.1073L51.1789 32.1343C51.2198 32.087 51.2705 32.049 51.3274 32.0231C51.3844 31.9971 51.4462 31.9837 51.5088 31.9837H56.6967C56.8123 31.9837 56.9232 32.0296 57.0049 32.1114C57.0867 32.1931 57.1326 32.304 57.1326 32.4196C57.1326 32.5353 57.0867 32.6461 57.0049 32.7279C56.9232 32.8096 56.8123 32.8556 56.6967 32.8556H51.7091L48.5123 36.5551V39.6655C48.512 39.7702 48.4744 39.8714 48.4062 39.9508L45.1636 43.6961C45.1221 43.7441 45.0706 43.7824 45.0127 43.8084C44.9548 43.8345 44.8919 43.8475 44.8285 43.8467Z" fill="#009CDE"/>
  <path d="M43.9855 57.6956H41.6069C41.5442 57.6957 41.4824 57.681 41.4265 57.6528C41.3705 57.6246 41.322 57.5837 41.2848 57.5332L39.0777 54.5328C39.0264 54.4645 38.9989 54.3813 38.9991 54.2959V47.7504C38.9992 47.6785 39.0186 47.6079 39.0554 47.5462L40.1891 45.6441C40.2435 45.5528 40.3318 45.4868 40.4348 45.4607C40.5378 45.4345 40.6469 45.4504 40.7382 45.5047C40.8295 45.559 40.8955 45.6474 40.9217 45.7504C40.9478 45.8534 40.932 45.9625 40.8777 46.0538L39.7964 47.8643V54.1636L41.8058 56.8957H43.9855C44.0399 56.8926 44.0944 56.9006 44.1457 56.9193C44.1969 56.938 44.2438 56.967 44.2834 57.0044C44.3231 57.0418 44.3546 57.087 44.3762 57.1371C44.3978 57.1872 44.4089 57.2411 44.4089 57.2956C44.4089 57.3502 44.3978 57.4041 44.3762 57.4542C44.3546 57.5043 44.3231 57.5494 44.2834 57.5869C44.2438 57.6243 44.1969 57.6533 44.1457 57.672C44.0944 57.6907 44.0399 57.6987 43.9855 57.6956Z" fill="#8A69D4"/>
  <path d="M19.999 52.45C20.5188 52.45 20.9402 52.0286 20.9402 51.5088C20.9402 50.989 20.5188 50.5676 19.999 50.5676C19.4791 50.5676 19.0577 50.989 19.0577 51.5088C19.0577 52.0286 19.4791 52.45 19.999 52.45Z" fill="#FFB81C"/>
</svg>
