<svg width="52" height="52" viewBox="0 0 52 52" fill="none" xmlns="http://www.w3.org/2000/svg">
<path d="M25.1406 13.6309H26.5278V16.0808H25.1406V13.6309Z" fill="url(#paint0_linear_487_4358)" fill-opacity="0.94902"/>
<path d="M28.3979 0.159668H23.2722C22.1254 0.159668 21.1914 1.09782 21.1914 2.24963V5.05718C21.1914 6.20899 22.1254 7.14714 23.2722 7.14714H25.1402V7.867H23.7947V9.26034H27.873V7.867H26.5274V7.14714H28.3979C29.5446 7.14714 30.4786 6.20899 30.4786 5.05718V2.24963C30.4786 1.09782 29.5446 0.159668 28.3979 0.159668ZM29.0915 5.05718C29.0915 5.44034 28.7793 5.75385 28.3979 5.75385H23.2722C22.8907 5.75385 22.5786 5.44036 22.5786 5.05718V2.24963C22.5786 1.86646 22.8907 1.55295 23.2722 1.55295H28.3979C28.7793 1.55295 29.0915 1.86645 29.0915 2.24963V5.05718Z" fill="url(#paint1_linear_487_4358)" fill-opacity="0.94902"/>
<path d="M33.8091 16.6611L34.7893 17.6457L33.0623 19.3781L32.082 18.3935L33.8091 16.6611Z" fill="url(#paint2_linear_487_4358)" fill-opacity="0.94902"/>
<path d="M38.0182 13.2824H39.8886V14.0022H38.5408V15.3956H42.6214V14.0022H41.2758V13.2824H43.1463C44.293 13.2824 45.227 12.3442 45.227 11.1924V8.38488C45.227 7.23307 44.293 6.29492 43.1463 6.29492L38.0183 6.29725C36.8715 6.29725 35.9375 7.23539 35.9375 8.3872V11.1948C35.9375 12.3466 36.8692 13.2824 38.0182 13.2824ZM37.3246 8.38488C37.3246 8.00172 37.6367 7.68821 38.0182 7.68821H43.1439C43.5254 7.68821 43.8375 8.0017 43.8375 8.38488V11.1924C43.8375 11.5756 43.5254 11.8891 43.1439 11.8891H38.0182C37.6367 11.8891 37.3246 11.5756 37.3246 11.1924V8.38488Z" fill="url(#paint3_linear_487_4358)" fill-opacity="0.94902"/>
<path d="M35.3672 24.9629H37.8063V26.3562H35.3672V24.9629Z" fill="url(#paint4_linear_487_4358)" fill-opacity="0.94902"/>
<path d="M49.2533 21.1084H44.1276C42.9809 21.1084 42.0469 22.0465 42.0469 23.1984V26.0059C42.0469 27.1577 42.9809 28.0959 44.1276 28.0959H45.9957V28.8157H44.6501V30.2091H48.7284V28.8157H47.3829V28.0959H49.251C50.3977 28.0959 51.3317 27.1577 51.3317 26.0059V23.1984C51.334 22.0465 50.4001 21.1084 49.2533 21.1084ZM49.9469 26.0059C49.9469 26.3891 49.6348 26.7026 49.2533 26.7026H44.1276C43.7462 26.7026 43.434 26.3891 43.434 26.0059V23.1984C43.434 22.8152 43.7461 22.5017 44.1276 22.5017H49.2533C49.6348 22.5017 49.9469 22.8152 49.9469 23.1984V26.0059Z" fill="url(#paint5_linear_487_4358)" fill-opacity="0.94902"/>
<path d="M33.8107 34.6582L32.0859 32.9235L33.0662 31.939L34.7909 33.6737L33.8107 34.6582Z" fill="url(#paint6_linear_487_4358)" fill-opacity="0.94902"/>
<path d="M43.1439 35.9214H38.0183C36.8715 35.9214 35.9375 36.8595 35.9375 38.0113V40.8189C35.9375 41.9707 36.8715 42.9089 38.0183 42.9089H39.8887V43.6287H38.5408V45.0221H42.6214V43.6287H41.2759V42.9089H43.1439C44.2907 42.9089 45.2247 41.9707 45.2247 40.8189V38.0113C45.2247 36.8595 44.2907 35.9214 43.1439 35.9214ZM43.8376 40.8189C43.8376 41.2021 43.5254 41.5156 43.1439 41.5156H38.0183C37.6368 41.5156 37.3247 41.2021 37.3247 40.8189V38.0113C37.3247 37.6282 37.6368 37.3147 38.0183 37.3147H43.1439C43.5254 37.3147 43.8376 37.6282 43.8376 38.0113V40.8189Z" fill="url(#paint7_linear_487_4358)" fill-opacity="0.94902"/>
<path d="M25.1406 35.2388H26.5278V37.691H25.1406V35.2388Z" fill="url(#paint8_linear_487_4358)" fill-opacity="0.94902"/>
<path d="M28.3963 42.0591H23.2683C22.1215 42.0591 21.1875 42.9972 21.1875 44.149V46.9566C21.1875 48.1084 22.1215 49.0466 23.2683 49.0466H25.1363V49.7664H23.7908V51.1598H27.8691V49.7664H26.5235V49.0466H28.3939C29.5407 49.0466 30.4747 48.1084 30.4747 46.9566V44.149C30.477 42.9972 29.543 42.0591 28.3963 42.0591ZM29.0899 46.9566C29.0899 47.3398 28.7777 47.6533 28.3963 47.6533H23.2683C22.8868 47.6533 22.5747 47.3398 22.5747 46.9566V44.149C22.5747 43.7659 22.8868 43.4524 23.2683 43.4524H28.3939C28.7754 43.4524 29.0876 43.7659 29.0876 44.149L29.0899 46.9566Z" fill="url(#paint9_linear_487_4358)" fill-opacity="0.94902"/>
<path d="M13.8594 24.9629H16.3008V26.3562H13.8594V24.9629Z" fill="url(#paint10_linear_487_4358)" fill-opacity="0.94902"/>
<path d="M2.93535 28.8177V30.211H7.01598V28.8177H5.67043V28.0978H7.53848C8.68522 28.0978 9.61924 27.1597 9.61924 26.0079V23.2003C9.61924 22.0485 8.68522 21.1104 7.53848 21.1104H2.4128C1.26606 21.1104 0.332031 22.0485 0.332031 23.2003V26.0079C0.332031 27.1597 1.26606 28.0978 2.4128 28.0978H4.28084V28.8177H2.93535ZM1.71925 26.0078V23.2003C1.71925 22.8171 2.03136 22.5036 2.41286 22.5036H7.53853C7.92001 22.5036 8.23214 22.8171 8.23214 23.2003V26.0078C8.23214 26.391 7.92003 26.7045 7.53853 26.7045H2.41286C2.03138 26.7045 1.71925 26.391 1.71925 26.0078Z" fill="url(#paint11_linear_487_4358)" fill-opacity="0.94902"/>
<path d="M18.5982 19.3805L16.8711 17.6482L17.8513 16.6636L19.5784 18.396L18.5982 19.3805Z" fill="url(#paint12_linear_487_4358)" fill-opacity="0.94902"/>
<path d="M8.52217 13.2824H10.3902V14.0022H9.04467V15.3956H13.123V14.0022H11.7774V13.2824H13.6479C14.7946 13.2824 15.7286 12.3442 15.7286 11.1924V8.38488C15.7286 7.23307 14.7946 6.29492 13.6479 6.29492L8.52217 6.29725C7.37543 6.29725 6.44141 7.23539 6.44141 8.3872V11.1948C6.44141 12.3466 7.37312 13.2824 8.52217 13.2824ZM7.82856 8.38488C7.82856 8.00172 8.14068 7.68821 8.52217 7.68821H13.6479C14.0293 7.68821 14.3415 8.0017 14.3415 8.38488V11.1924C14.3415 11.5756 14.0293 11.8891 13.6479 11.8891H8.52217C8.1407 11.8891 7.82856 11.5756 7.82856 11.1924V8.38488Z" fill="url(#paint13_linear_487_4358)" fill-opacity="0.94902"/>
<path d="M17.8576 34.6582L16.875 33.6737L18.5998 31.939L19.5824 32.9235L17.8576 34.6582Z" fill="url(#paint14_linear_487_4358)" fill-opacity="0.94902"/>
<path d="M13.6479 35.9238H8.52217C7.37543 35.9238 6.44141 36.862 6.44141 38.0138V40.8213C6.44141 41.9732 7.37543 42.9113 8.52217 42.9113H10.3902V43.6312H9.04467V45.0245H13.123V43.6312H11.7774V42.9113H13.6479C14.7946 42.9113 15.7286 41.9732 15.7286 40.8213V38.0138C15.7286 36.8597 14.7946 35.9238 13.6479 35.9238ZM14.3415 40.819C14.3415 41.2022 14.0293 41.5157 13.6479 41.5157H8.52217C8.1407 41.5157 7.82856 41.2022 7.82856 40.819V38.0115C7.82856 37.6283 8.14068 37.3148 8.52217 37.3148H13.6479C14.0293 37.3148 14.3415 37.6283 14.3415 38.0115V40.819Z" fill="url(#paint15_linear_487_4358)" fill-opacity="0.94902"/>
<path d="M24.0534 30.4479H27.6139C28.7606 30.4479 29.6946 29.5237 29.6946 28.3858C29.6946 27.861 29.4888 27.3849 29.1606 27.0227C29.4889 26.6581 29.6946 26.1843 29.6946 25.6595C29.6946 25.1347 29.4888 24.661 29.1629 24.2964C29.4888 23.9318 29.6946 23.458 29.6946 22.9332C29.6946 21.7977 28.7606 20.8711 27.6139 20.8711H24.0534C22.9067 20.8711 21.9727 21.7953 21.9727 22.9332C21.9727 23.458 22.1784 23.9318 22.5044 24.2964C22.1784 24.661 21.9727 25.1347 21.9727 25.6595C21.9727 26.1843 22.1784 26.6604 22.5067 27.0227C22.1784 27.3872 21.9727 27.861 21.9727 28.3858C21.9727 29.5237 22.9067 30.4479 24.0534 30.4479ZM27.6139 29.0546H24.0534C23.6719 29.0546 23.3598 28.755 23.3598 28.3858C23.3598 28.0166 23.6719 27.7193 24.0534 27.7193H27.6139C27.9953 27.7193 28.3075 28.0189 28.3075 28.3858C28.3075 28.755 27.9977 29.0546 27.6139 29.0546ZM23.3598 25.6596C23.3598 25.2927 23.6673 24.9954 24.0465 24.9931H24.0534H27.6139H27.6208C28 24.9954 28.3075 25.295 28.3075 25.6596C28.3075 26.0265 27.9954 26.3261 27.6139 26.3261H24.0534C23.6697 26.3261 23.3598 26.0265 23.3598 25.6596ZM24.0534 22.2646H27.6139C27.9953 22.2646 28.3075 22.5641 28.3075 22.9333C28.3075 23.3003 28 23.5975 27.6208 23.5998H27.6138H24.0534H24.0465C23.6673 23.5975 23.3598 23.3003 23.3598 22.9333C23.3598 22.5641 23.6696 22.2646 24.0534 22.2646Z" fill="url(#paint16_linear_487_4358)" fill-opacity="0.94902"/>
<defs>
<linearGradient id="paint0_linear_487_4358" x1="25.9321" y1="13.2763" x2="25.9321" y2="17.0398" gradientUnits="userSpaceOnUse">
<stop stop-color="white"/>
<stop offset="1" stop-color="#AF87FF"/>
</linearGradient>
<linearGradient id="paint1_linear_487_4358" x1="26.49" y1="-1.15753" x2="26.49" y2="12.8228" gradientUnits="userSpaceOnUse">
<stop stop-color="white"/>
<stop offset="1" stop-color="#AF87FF"/>
</linearGradient>
<linearGradient id="paint2_linear_487_4358" x1="33.6266" y1="16.2679" x2="33.6266" y2="20.4416" gradientUnits="userSpaceOnUse">
<stop stop-color="white"/>
<stop offset="1" stop-color="#AF87FF"/>
</linearGradient>
<linearGradient id="paint3_linear_487_4358" x1="41.2374" y1="4.97772" x2="41.2374" y2="18.958" gradientUnits="userSpaceOnUse">
<stop stop-color="white"/>
<stop offset="1" stop-color="#AF87FF"/>
</linearGradient>
<linearGradient id="paint4_linear_487_4358" x1="36.7588" y1="24.7612" x2="36.7588" y2="26.9017" gradientUnits="userSpaceOnUse">
<stop stop-color="white"/>
<stop offset="1" stop-color="#AF87FF"/>
</linearGradient>
<linearGradient id="paint5_linear_487_4358" x1="47.3441" y1="19.7912" x2="47.3441" y2="33.7715" gradientUnits="userSpaceOnUse">
<stop stop-color="white"/>
<stop offset="1" stop-color="#AF87FF"/>
</linearGradient>
<linearGradient id="paint6_linear_487_4358" x1="33.6292" y1="31.5454" x2="33.6292" y2="35.7227" gradientUnits="userSpaceOnUse">
<stop stop-color="white"/>
<stop offset="1" stop-color="#AF87FF"/>
</linearGradient>
<linearGradient id="paint7_linear_487_4358" x1="41.2361" y1="34.6042" x2="41.2361" y2="48.5845" gradientUnits="userSpaceOnUse">
<stop stop-color="white"/>
<stop offset="1" stop-color="#AF87FF"/>
</linearGradient>
<linearGradient id="paint8_linear_487_4358" x1="25.9321" y1="34.8838" x2="25.9321" y2="38.6509" gradientUnits="userSpaceOnUse">
<stop stop-color="white"/>
<stop offset="1" stop-color="#AF87FF"/>
</linearGradient>
<linearGradient id="paint9_linear_487_4358" x1="26.4861" y1="40.7419" x2="26.4861" y2="54.7222" gradientUnits="userSpaceOnUse">
<stop stop-color="white"/>
<stop offset="1" stop-color="#AF87FF"/>
</linearGradient>
<linearGradient id="paint10_linear_487_4358" x1="15.2523" y1="24.7612" x2="15.2523" y2="26.9017" gradientUnits="userSpaceOnUse">
<stop stop-color="white"/>
<stop offset="1" stop-color="#AF87FF"/>
</linearGradient>
<linearGradient id="paint11_linear_487_4358" x1="5.63064" y1="19.7931" x2="5.63064" y2="33.7735" gradientUnits="userSpaceOnUse">
<stop stop-color="white"/>
<stop offset="1" stop-color="#AF87FF"/>
</linearGradient>
<linearGradient id="paint12_linear_487_4358" x1="18.4157" y1="16.2703" x2="18.4157" y2="20.4441" gradientUnits="userSpaceOnUse">
<stop stop-color="white"/>
<stop offset="1" stop-color="#AF87FF"/>
</linearGradient>
<linearGradient id="paint13_linear_487_4358" x1="11.74" y1="4.97772" x2="11.74" y2="18.958" gradientUnits="userSpaceOnUse">
<stop stop-color="white"/>
<stop offset="1" stop-color="#AF87FF"/>
</linearGradient>
<linearGradient id="paint14_linear_487_4358" x1="18.4196" y1="31.5454" x2="18.4196" y2="35.7227" gradientUnits="userSpaceOnUse">
<stop stop-color="white"/>
<stop offset="1" stop-color="#AF87FF"/>
</linearGradient>
<linearGradient id="paint15_linear_487_4358" x1="11.74" y1="34.6066" x2="11.74" y2="48.5869" gradientUnits="userSpaceOnUse">
<stop stop-color="white"/>
<stop offset="1" stop-color="#AF87FF"/>
</linearGradient>
<linearGradient id="paint16_linear_487_4358" x1="26.3782" y1="19.485" x2="26.3782" y2="34.1968" gradientUnits="userSpaceOnUse">
<stop stop-color="white"/>
<stop offset="1" stop-color="#AF87FF"/>
</linearGradient>
</defs>
</svg>
