<svg width="43" height="56" viewBox="0 0 43 56" fill="none" xmlns="http://www.w3.org/2000/svg">
  <path d="M17.6107 17.5335C16.2568 17.8936 15.3384 19.151 15.4018 20.554C14.4807 20.1887 13.4672 20.1251 12.5092 20.3793C11.5063 20.7181 10.7119 21.4964 10.3557 22.4971C9.72755 23.9504 10.5721 25.3772 11.2768 26.2455C9.78565 27.1058 6.97753 29.2236 7.05408 32.9721C7.09631 35.6563 8.70883 38.0653 11.1712 39.1216C10.4877 40.101 10.1683 41.2896 10.2713 42.4809C10.4851 43.5742 11.1924 44.5086 12.1847 45.009C12.892 45.4511 13.7523 45.5781 14.5573 45.3611C15.1036 45.1916 15.5998 44.8872 15.9983 44.4795C16.4839 45.4458 17.3337 46.179 18.3577 46.5179C18.5873 46.5788 18.8222 46.6079 19.0597 46.6105C20.1128 46.5443 21.1104 46.1102 21.8758 45.3822C22.649 46.0546 23.6282 46.4385 24.6496 46.4702C24.8871 46.4676 25.122 46.4358 25.3516 46.3776C26.3386 46.0599 27.1621 45.3716 27.6529 44.4584C28.0567 44.8687 28.5555 45.1758 29.1045 45.3478C29.9094 45.5623 30.7671 45.4352 31.4744 44.9931C32.4668 44.4981 33.1767 43.5715 33.3958 42.4809C33.5172 41.2897 33.2163 40.0905 32.546 39.1004C35.0057 38.0442 36.6182 35.6352 36.6631 32.9509C36.7133 29.2025 33.9052 27.0847 32.4405 26.2243C33.1451 25.3904 33.9685 23.9663 33.3694 22.5262V22.5235C33.0105 21.5255 32.2188 20.7446 31.2159 20.4058C30.2578 20.1543 29.2444 20.2152 28.3234 20.5831C28.3946 19.1536 27.4419 17.8724 26.0563 17.5335C24.5123 17.0491 22.8339 17.5706 21.8336 18.8466C20.8333 17.5732 19.1547 17.0518 17.6107 17.5335ZM18.7429 45.1358C17.6952 44.8684 17.0248 43.4416 16.8506 42.9121C16.7635 42.6421 16.526 42.4515 16.2463 42.4251C15.9665 42.3986 15.6973 42.5442 15.5627 42.7904C15.2566 43.3383 14.771 43.7619 14.1904 43.9922C13.7523 44.0981 13.2905 44.016 12.9157 43.7645C12.2902 43.476 11.8362 42.9095 11.6858 42.2344C11.4404 40.8235 12.7758 39.2193 12.7837 39.206C12.9395 39.0233 12.9922 38.7718 12.9236 38.5415C12.855 38.3086 12.6703 38.1259 12.438 38.0624C12.277 38.02 8.49773 36.9188 8.43963 32.9162C8.38421 28.9136 12.5277 27.1426 12.7045 27.0711C12.9315 26.9784 13.0951 26.7746 13.1347 26.5337C13.1743 26.2902 13.0872 26.0466 12.9025 25.8851C12.9025 25.8851 11.1421 24.2836 11.6488 23.0605C11.8521 22.4437 12.3245 21.9567 12.9315 21.7343C14.2193 21.3187 15.8583 22.3193 15.8742 22.3273H15.8715C16.1117 22.4914 16.4284 22.4914 16.6686 22.3273C16.9114 22.142 17.009 21.819 16.9061 21.5278C16.8428 21.3028 16.3571 19.3677 17.9829 18.8886C19.2418 18.4968 20.5931 19.103 21.1447 20.2995V29.3372H17.3653C17.0301 28.1459 15.9507 27.3226 14.7182 27.3173C14.3302 27.3173 14.0135 27.6323 14.0135 28.0241C14.0135 28.4133 14.3302 28.7283 14.7182 28.7283C15.0956 28.7018 15.4651 28.8342 15.7422 29.091C16.0167 29.3478 16.175 29.7104 16.175 30.089C16.175 30.4676 16.0167 30.8276 15.7422 31.0844C15.4651 31.3438 15.0956 31.4736 14.7182 31.4471C14.3302 31.4471 14.0135 31.7621 14.0135 32.1539C14.0135 32.543 14.3302 32.8581 14.7182 32.8581C15.9903 32.8554 17.0934 31.9818 17.3917 30.7403H21.1287V44.1958C20.2076 44.9926 19.3921 45.305 18.7165 45.1356L18.7429 45.1358ZM25.7235 18.8889C27.3492 19.3681 26.8637 21.3032 26.8004 21.5229H26.803C26.7212 21.8035 26.8215 22.1079 27.0564 22.2853C27.2939 22.4494 27.6106 22.4494 27.8508 22.2853C27.8508 22.2853 29.5055 21.2767 30.7935 21.6923C31.4005 21.9147 31.8703 22.4018 32.0735 23.0185C32.5802 24.2469 30.841 25.8431 30.8198 25.8431C30.6377 26.002 30.5506 26.2455 30.5876 26.4838C30.6272 26.73 30.7908 26.9338 31.0178 27.0291C31.06 27.0291 35.3381 28.8425 35.2827 32.8742C35.2273 36.9059 31.4479 37.978 31.2843 38.0204C31.0521 38.0813 30.8647 38.2613 30.7934 38.4942C30.7222 38.7272 30.7749 38.9787 30.9333 39.164C30.9333 39.164 32.2845 40.7735 32.0391 42.1924C31.8887 42.8675 31.4321 43.434 30.8066 43.7225C30.4318 43.974 29.97 44.0561 29.5319 43.9502C28.9592 43.7305 28.4789 43.3228 28.1675 42.7907C28.0355 42.5445 27.7663 42.3989 27.4866 42.4228C27.2068 42.4466 26.9666 42.6372 26.8796 42.9046C26.8796 42.9046 26.2593 44.6967 25.0427 45.0223C24.338 45.1997 23.5146 44.8741 22.5724 44.0561V34.8782H25.4729C25.7711 36.117 26.8743 36.9933 28.1464 36.9959C28.5343 36.9959 28.851 36.6809 28.851 36.2891C28.851 35.9 28.5343 35.5849 28.1464 35.5849C27.4364 35.532 26.8848 34.939 26.8848 34.2243C26.8848 33.5095 27.4364 32.9165 28.1464 32.8662C28.5343 32.8662 28.851 32.5512 28.851 32.1594C28.851 31.7703 28.5343 31.4552 28.1464 31.4552C26.9139 31.4579 25.8344 32.2838 25.4992 33.4724H22.5381V20.3158C23.0897 19.1166 24.4357 18.5077 25.6972 18.8889L25.7235 18.8889ZM24.2272 13.8142C24.4066 13.9121 24.6072 13.9624 24.8104 13.9624C25.0611 13.9651 25.3066 13.8909 25.5151 13.7506L28.1675 11.9559H40.4977C41.7883 11.9559 42.8334 10.9075 42.8334 9.61309V2.5055C42.8334 1.8834 42.5879 1.28776 42.1498 0.848346C41.7117 0.408906 41.118 0.160086 40.4977 0.160086H25.9163C24.6257 0.160086 23.578 1.21104 23.578 2.5055V12.7264C23.578 13.1817 23.8286 13.5971 24.2272 13.8142ZM24.9872 2.51847C24.9872 2.00492 25.4016 1.58665 25.9162 1.58665H40.4977C40.7431 1.58665 40.9806 1.6846 41.1548 1.85931C41.329 2.03403 41.4267 2.27228 41.4267 2.51847V9.61319C41.424 10.1268 41.0097 10.5424 40.4977 10.545H28.112C27.8613 10.5424 27.6159 10.6138 27.4074 10.7488L24.9661 12.3928L24.9872 2.51847ZM28.0065 4.9036C28.0065 4.51446 28.3206 4.19941 28.7085 4.19941H37.7025C38.0931 4.19941 38.4072 4.51443 38.4072 4.9036C38.4072 5.29538 38.0931 5.61043 37.7025 5.61043H28.7085C28.5212 5.61043 28.3391 5.53366 28.2071 5.39865C28.0751 5.26364 28.0012 5.08098 28.0065 4.89038L28.0065 4.9036ZM28.0065 7.88963C28.0065 7.50049 28.3206 7.18544 28.7085 7.18544H37.7025C38.0931 7.18544 38.4072 7.50046 38.4072 7.88963C38.4072 8.28141 38.0931 8.59646 37.7025 8.59646H28.7085C28.3206 8.59646 28.0065 8.28144 28.0065 7.88963ZM3.16901 11.9558H15.4992L18.1727 13.7479V13.7506C18.3812 13.8909 18.6267 13.965 18.8774 13.9623C19.0806 13.9623 19.2812 13.912 19.4607 13.8141C19.8592 13.597 20.1099 13.1814 20.1099 12.7261V2.50516C20.1099 1.87777 19.8592 1.2795 19.4185 0.840083C18.9751 0.400643 18.376 0.154465 17.7505 0.159751H3.16903C1.87844 0.159751 0.833374 1.21071 0.833374 2.50516V9.61276C0.833374 10.9073 1.87849 11.9558 3.16901 11.9558ZM2.24002 2.5054C2.24002 1.98919 2.65701 1.57357 3.16901 1.57357H17.7504C17.9985 1.57357 18.2334 1.67152 18.4076 1.84624C18.5818 2.02095 18.6794 2.25655 18.6794 2.5054V12.3874L16.2382 10.7435C16.0297 10.6059 15.7842 10.5344 15.5335 10.537H3.16881C2.65681 10.5344 2.24245 10.1188 2.23982 9.6052L2.24002 2.5054ZM5.25927 4.89052C5.25927 4.50138 5.57333 4.18369 5.96396 4.18369H14.9579C15.3459 4.18369 15.66 4.50136 15.66 4.89052C15.66 5.27968 15.3459 5.59735 14.9579 5.59735H5.96396C5.57336 5.59735 5.25927 5.27968 5.25927 4.89052ZM5.25927 7.87655C5.25927 7.48741 5.57333 7.16972 5.96396 7.16972H14.9579C15.3459 7.16972 15.66 7.48739 15.66 7.87655C15.66 8.26571 15.3459 8.58338 14.9579 8.58338H5.96396C5.57864 8.58338 5.26725 8.2763 5.25927 7.88983V7.87655ZM42.6513 31.9765C42.6539 35.7726 41.6247 39.4948 39.6744 42.7483C37.724 45.9991 34.9239 48.6543 31.5803 50.4306C31.4827 50.4836 31.3718 50.5127 31.2583 50.5153C30.9311 50.518 30.6434 50.2983 30.5643 49.978C30.4851 49.6603 30.6355 49.3294 30.9258 49.1811C35.9878 46.4889 39.6063 41.6893 40.8096 36.0719C42.013 30.4519 40.6803 24.5885 37.1702 20.0459L37.0145 21.4569V21.4595C36.9749 21.8169 36.6714 22.0896 36.3098 22.0869H36.2253C35.8427 22.0419 35.5656 21.6952 35.6078 21.3113L35.9746 18.0844H35.972C36.0169 17.6979 36.3626 17.4226 36.7479 17.4623L39.965 17.8223H39.9624C40.1498 17.8435 40.3187 17.9388 40.4348 18.087C40.5509 18.2326 40.6037 18.4206 40.5826 18.6059C40.5377 18.9924 40.192 19.2703 39.8093 19.228L38.1493 19.0453H38.1467C41.0577 22.7223 42.6433 27.2801 42.6513 31.9765ZM21.2926 52.8445C15.8612 52.7042 10.6988 50.4409 6.90916 46.5336C3.12192 42.6289 1.00531 37.3929 1.01321 31.945C1.02113 26.4943 3.15361 21.2633 6.95666 17.372C7.22849 17.0914 7.67451 17.0887 7.95166 17.3614C8.2288 17.6341 8.23405 18.0814 7.96221 18.3594C4.42306 21.9835 2.43577 26.8515 2.41996 31.924C2.40676 36.9988 4.3703 41.8779 7.88837 45.5198C11.409 49.165 16.2067 51.2854 21.2638 51.4311L20.195 50.359C20.0604 50.2266 19.9865 50.0466 19.9865 49.8587C19.9865 49.6707 20.0604 49.488 20.195 49.3557C20.4694 49.083 20.9128 49.083 21.1873 49.3557L23.4728 51.6587C23.6048 51.7911 23.6787 51.9711 23.6787 52.1591C23.6787 52.347 23.6048 52.527 23.4728 52.6594L21.1847 54.9545H21.1873C20.9102 55.2298 20.4642 55.2272 20.1897 54.9519C19.9179 54.6739 19.9179 54.2265 20.195 53.9512L21.2926 52.8445Z" fill="url(#paint0_linear_3_10901)" fill-opacity="0.94902"/>
  <linearGradient id="paint0_linear_3_10901" x1="24.7955" y1="-7.80086" x2="24.7955" y2="76.6893" gradientUnits="userSpaceOnUse">
    <stop stop-color="white"/>
    <stop offset="1" stop-color="#AF87FF"/>
  </linearGradient>
</svg>
