<svg width="55" height="54" viewBox="0 0 55 54" fill="none" xmlns="http://www.w3.org/2000/svg">
<path d="M53.4824 4.84193C51.2407 4.83939 49.4253 3.0481 49.4228 0.836162C49.4228 0.656273 49.3509 0.48398 49.2225 0.357297C49.0941 0.230615 48.9195 0.159668 48.7372 0.159668H48.6216C48.2416 0.159668 47.936 0.46371 47.936 0.836182C47.9334 3.04812 46.1155 4.83942 43.8764 4.84195C43.4964 4.84195 43.1908 5.14599 43.1908 5.51846C43.1908 5.89093 43.4963 6.19497 43.8764 6.19497C46.1154 6.19751 47.9334 7.9888 47.936 10.2007C47.936 10.3806 48.0079 10.5529 48.1363 10.6796C48.2647 10.8063 48.4393 10.8772 48.6216 10.8772H48.7372C48.9195 10.8772 49.0941 10.8063 49.2225 10.6796C49.3508 10.5529 49.4227 10.3806 49.4227 10.2007C49.4253 7.9888 51.2407 6.1975 53.4824 6.19497C53.8598 6.19497 54.168 5.89093 54.168 5.51846C54.168 5.14599 53.8599 4.84193 53.4824 4.84193ZM48.6884 7.69989C48.1954 6.78267 47.443 6.02514 46.5263 5.51837C47.443 5.01164 48.1954 4.25408 48.6884 3.33686C49.184 4.25408 49.9337 5.01161 50.853 5.51837C49.9312 6.02511 49.1788 6.78267 48.6833 7.69989H48.6884ZM4.91322 22.3549C4.91322 22.5348 4.98512 22.7071 5.11351 22.8337C5.24189 22.9604 5.4165 23.0314 5.59881 23.0314H5.71436C5.89667 23.0314 6.07128 22.9604 6.19966 22.8337C6.32805 22.7071 6.39995 22.5348 6.39995 22.3549C6.40252 20.1455 8.22046 18.3516 10.4596 18.3491C10.8396 18.3491 11.1452 18.0476 11.1452 17.6726C11.1452 17.3001 10.8396 16.9986 10.4596 16.9986C8.22053 16.9935 6.40251 15.2022 6.39995 12.9903C6.39995 12.813 6.32805 12.6407 6.19966 12.514C6.07128 12.3873 5.89667 12.3163 5.71436 12.3163H5.59881C5.22135 12.3163 4.9132 12.6179 4.9132 12.9903C4.91063 15.2023 3.09525 16.9936 0.853579 16.9986C0.476119 16.9986 0.167969 17.3001 0.167969 17.6726C0.167969 18.0476 0.476099 18.3491 0.853579 18.3491C3.09525 18.3517 4.91066 20.1455 4.91322 22.3549ZM5.65273 15.4911C6.14831 16.4084 6.89807 17.1659 7.81737 17.6727C6.89814 18.1819 6.1483 18.9395 5.65273 19.8567C5.15973 18.9395 4.4074 18.182 3.49066 17.6727C4.40733 17.1659 5.15973 16.4084 5.65273 15.4911ZM26.4826 50.6588V41.7201H41.0007C44.1103 41.7201 46.6318 39.2346 46.6344 36.1663V9.33734C46.6344 8.73432 46.393 8.15412 45.9591 7.72843C45.5251 7.30277 44.9397 7.06463 44.3285 7.06716H28.8527C27.5868 7.06969 26.5622 8.08063 26.5597 9.32975V19.3503H12.1803C9.74864 19.3529 7.77918 21.2962 7.77661 23.693V50.6589C7.77918 52.0397 8.91671 53.1596 10.3161 53.1596H23.9356C24.6109 53.1622 25.258 52.9012 25.7356 52.4325C26.2158 51.9612 26.4826 51.3252 26.4826 50.6588ZM26.4826 40.3697V26.4042C26.4852 24.6915 27.3326 23.0901 28.7576 22.1122L30.8118 20.7009H33.4746C33.9856 20.6984 34.476 20.8985 34.8381 21.2558C35.1976 21.6155 35.3953 22.102 35.385 22.6062V36.1663C35.3876 37.7828 36.104 39.3182 37.3493 40.3697L26.4826 40.3697ZM27.9412 9.33701C27.9386 8.83534 28.3443 8.42492 28.8527 8.41726H44.3285C44.837 8.4198 45.2478 8.82772 45.2529 9.32936V36.1661C45.1605 38.4237 43.2783 40.2074 40.9904 40.2074C38.7 40.2074 36.8178 38.4237 36.7279 36.1661V22.606C36.7228 20.8274 35.2643 19.3857 33.4617 19.3831H27.9282L27.9412 9.33701ZM9.11155 50.6588V23.693C9.11411 22.0435 10.4724 20.7032 12.1441 20.7007H14.8839L13.4125 22.8087C13.0787 23.2749 12.9016 23.8323 12.9041 24.4024V34.0915C11.5304 34.4336 10.6291 35.7308 10.8037 37.1193C10.9783 38.5078 12.1723 39.5491 13.5897 39.5491C15.0072 39.5491 16.2012 38.5077 16.3758 37.1193C16.5504 35.7308 15.6491 34.4336 14.2753 34.0915V24.4024C14.2728 24.1085 14.3652 23.8196 14.5347 23.579L16.5555 20.7007H21.6165L20.1349 22.8087C19.8088 23.2774 19.6342 23.8348 19.6368 24.4024V30.5998C18.2604 30.9393 17.3592 32.239 17.5338 33.625C17.7084 35.0135 18.9024 36.0548 20.3198 36.0548C21.7373 36.0548 22.9338 35.0135 23.1059 33.625C23.2805 32.2391 22.3792 30.9393 21.0054 30.5998V24.4024C21.0054 24.1085 21.0953 23.8196 21.2648 23.579L23.319 20.7007H28.4006L27.9564 21.0047C26.1666 22.2386 25.0984 24.2554 25.101 26.4091V50.6662C25.101 51.2997 24.5797 51.814 23.9353 51.814H10.2822C9.97153 51.814 9.67367 51.6924 9.45542 51.4745C9.23459 51.2591 9.11155 50.9654 9.11155 50.6588ZM13.5897 35.376C14.17 35.376 14.6964 35.7206 14.9172 36.2527C15.1406 36.7822 15.0173 37.3928 14.6065 37.7982C14.1957 38.2036 13.5768 38.3252 13.0402 38.1048C12.501 37.8869 12.1517 37.3675 12.1517 36.7949C12.1517 36.4174 12.3032 36.0576 12.5728 35.7915C12.8424 35.5255 13.2071 35.376 13.5897 35.376ZM20.3196 31.8567C20.9025 31.8567 21.4263 32.2013 21.6497 32.7308C21.8705 33.2629 21.7472 33.871 21.3364 34.2789C20.9256 34.6843 20.3067 34.8059 19.7701 34.5855C19.2334 34.365 18.8816 33.8482 18.8816 33.2756C18.8816 32.8981 19.0331 32.5383 19.3027 32.2722C19.5723 32.0062 19.9395 31.8567 20.3196 31.8567ZM32.2622 11.405C32.2622 11.03 32.5678 10.7284 32.9478 10.7284H39.7474C40.1248 10.7284 40.4304 11.0299 40.4304 11.405C40.4304 11.7774 40.1249 12.0789 39.7474 12.0789H32.9478C32.5678 12.0789 32.2622 11.7774 32.2622 11.405ZM20.5043 46.1192H13.7047C12.4954 46.1192 11.5119 47.0871 11.5067 48.2804V48.4097C11.5067 49.6081 12.4927 50.5785 13.7047 50.5785H20.5043C21.7214 50.5785 22.7075 49.6081 22.71 48.4097V48.2804C22.7023 47.0845 21.7163 46.1192 20.5043 46.1192ZM21.3388 48.4173H21.3414C21.3362 48.8683 20.9639 49.2332 20.5043 49.2332H13.7047C13.2477 49.2332 12.8779 48.8683 12.8779 48.4173V48.2805C12.8779 47.8295 13.2477 47.4646 13.7047 47.4646H20.5043C20.9639 47.4646 21.3362 47.8295 21.3414 48.2805L21.3388 48.4173Z" fill="url(#paint0_linear_487_4352)" fill-opacity="0.94902"/>
<defs>
<linearGradient id="paint0_linear_487_4352" x1="30.9765" y1="-7.51138" x2="30.9765" y2="73.9064" gradientUnits="userSpaceOnUse">
<stop stop-color="white"/>
<stop offset="1" stop-color="#AF87FF"/>
</linearGradient>
</defs>
</svg>
