<svg width="740" height="539" viewBox="0 0 740 539" fill="none" xmlns="http://www.w3.org/2000/svg">
<path d="M24 0.5H716C728.979 0.500002 739.5 11.0213 739.5 24V515C739.5 527.979 728.979 538.5 716 538.5H24C11.0213 538.5 0.5 527.979 0.5 515V24C0.5 11.0213 11.0213 0.5 24 0.5Z" fill="#0C0E1D" stroke="#1D1F2E"/>
<mask id="mask0_536_4391" style="mask-type:alpha" maskUnits="userSpaceOnUse" x="0" y="0" width="740" height="539">
<path d="M24 0.5H716C728.979 0.500002 739.5 11.0213 739.5 24V515C739.5 527.979 728.979 538.5 716 538.5H24C11.0213 538.5 0.5 527.979 0.5 515V24C0.5 11.0213 11.0213 0.5 24 0.5Z" fill="#0C0E1D" stroke="#1D1F2E"/>
</mask>
<g mask="url(#mask0_536_4391)">
<g opacity="0.09">
<line x1="-8" y1="473.906" x2="1503.58" y2="473.906" stroke="#63619E" stroke-width="1.2607"/>
<line x1="-8" y1="151.166" x2="1503.58" y2="151.166" stroke="#63619E" stroke-width="1.2607"/>
<line x1="-8" y1="312.536" x2="1503.58" y2="312.536" stroke="#63619E" stroke-width="1.2607"/>
<line x1="-8" y1="393.22" x2="1503.58" y2="393.22" stroke="#63619E" stroke-width="1.2607"/>
<line x1="-8" y1="70.4824" x2="1503.58" y2="70.4824" stroke="#63619E" stroke-width="1.2607"/>
<line x1="-8" y1="231.85" x2="1503.58" y2="231.85" stroke="#63619E" stroke-width="1.2607"/>
<line x1="39.6303" y1="9.90088" x2="39.6303" y2="1177.31" stroke="#63619E" stroke-width="1.2607"/>
<line x1="362.373" y1="9.90088" x2="362.372" y2="1177.31" stroke="#63619E" stroke-width="1.2607"/>
<path d="M201 9.90088L201 1177.31" stroke="#63619E" stroke-width="1.2607"/>
<line x1="523.74" y1="9.90088" x2="523.74" y2="1177.31" stroke="#63619E" stroke-width="1.2607"/>
<line x1="120.318" y1="9.90088" x2="120.318" y2="1177.31" stroke="#63619E" stroke-width="1.2607"/>
<line x1="443.052" y1="9.90088" x2="443.052" y2="1177.31" stroke="#63619E" stroke-width="1.2607"/>
<line x1="281.685" y1="9.90088" x2="281.685" y2="1177.31" stroke="#63619E" stroke-width="1.2607"/>
<line x1="604.427" y1="9.90088" x2="604.427" y2="1177.31" stroke="#63619E" stroke-width="1.2607"/>
</g>
<g opacity="0.5">
<rect x="442.273" y="395.186" width="80.2262" height="79.0801" fill="#8977FA" fill-opacity="0.05"/>
<g opacity="0.25">
<rect x="280.594" y="312.668" width="81.3723" height="82.5184" fill="#8977FA" fill-opacity="0.2"/>
<rect x="199.219" y="232.441" width="81.3723" height="80.2262" fill="#8977FA" fill-opacity="0.2"/>
<rect x="119" y="233.588" width="81.3723" height="80.2262" fill="#8977FA" fill-opacity="0.2"/>
<rect x="199.219" y="312.668" width="81.3723" height="82.5184" fill="#8977FA" fill-opacity="0.2"/>
<rect x="522.422" y="152.215" width="81.3723" height="80.2262" fill="#8977FA" fill-opacity="0.25"/>
<rect x="280.594" y="474.266" width="80.2262" height="81.3723" fill="#8977FA" fill-opacity="0.2"/>
</g>
</g>
</g>
<rect x="81" y="230" width="213" height="48" rx="24" fill="url(#paint0_linear_536_4391)"/>
<rect x="81.5" y="230.5" width="212" height="47" rx="23.5" stroke="white" stroke-opacity="0.3"/>
<g filter="url(#filter0_d_536_4391)">
<path d="M98.332 260V247.4H102.112C103.588 247.4 104.806 247.658 105.766 248.174C106.726 248.678 107.434 249.404 107.89 250.352C108.358 251.288 108.592 252.416 108.592 253.736C108.592 255.032 108.358 256.148 107.89 257.084C107.434 258.02 106.726 258.74 105.766 259.244C104.806 259.748 103.588 260 102.112 260H98.332ZM99.844 258.74H102.076C103.3 258.74 104.272 258.542 104.992 258.146C105.724 257.738 106.246 257.162 106.558 256.418C106.87 255.662 107.026 254.768 107.026 253.736C107.026 252.68 106.87 251.774 106.558 251.018C106.246 250.262 105.724 249.68 104.992 249.272C104.272 248.864 103.3 248.66 102.076 248.66H99.844V258.74ZM115.061 260.216C114.209 260.216 113.453 260.024 112.793 259.64C112.133 259.244 111.611 258.692 111.227 257.984C110.855 257.264 110.669 256.436 110.669 255.5C110.669 254.54 110.855 253.712 111.227 253.016C111.599 252.308 112.115 251.756 112.775 251.36C113.447 250.964 114.221 250.766 115.097 250.766C115.973 250.766 116.723 250.964 117.347 251.36C117.971 251.756 118.445 252.272 118.769 252.908C119.105 253.544 119.273 254.24 119.273 254.996C119.273 255.116 119.273 255.248 119.273 255.392C119.273 255.524 119.267 255.674 119.255 255.842H111.803V254.672H117.779C117.743 253.844 117.467 253.202 116.951 252.746C116.447 252.278 115.817 252.044 115.061 252.044C114.545 252.044 114.065 252.164 113.621 252.404C113.177 252.632 112.817 252.968 112.541 253.412C112.277 253.856 112.145 254.414 112.145 255.086V255.59C112.145 256.322 112.283 256.94 112.559 257.444C112.835 257.948 113.195 258.326 113.639 258.578C114.083 258.818 114.557 258.938 115.061 258.938C115.685 258.938 116.201 258.8 116.609 258.524C117.029 258.236 117.335 257.846 117.527 257.354H119.021C118.865 257.906 118.607 258.398 118.247 258.83C117.887 259.25 117.437 259.586 116.897 259.838C116.369 260.09 115.757 260.216 115.061 260.216ZM124.921 260C124.381 260 123.913 259.916 123.517 259.748C123.121 259.58 122.815 259.298 122.599 258.902C122.395 258.494 122.293 257.948 122.293 257.264V252.26H120.727V250.982H122.293L122.491 248.822H123.805V250.982H126.433V252.26H123.805V257.264C123.805 257.828 123.919 258.212 124.147 258.416C124.375 258.608 124.777 258.704 125.353 258.704H126.307V260H124.921ZM132.498 260.216C131.646 260.216 130.89 260.024 130.23 259.64C129.57 259.244 129.048 258.692 128.664 257.984C128.292 257.264 128.106 256.436 128.106 255.5C128.106 254.54 128.292 253.712 128.664 253.016C129.036 252.308 129.552 251.756 130.212 251.36C130.884 250.964 131.658 250.766 132.534 250.766C133.41 250.766 134.16 250.964 134.784 251.36C135.408 251.756 135.882 252.272 136.206 252.908C136.542 253.544 136.71 254.24 136.71 254.996C136.71 255.116 136.71 255.248 136.71 255.392C136.71 255.524 136.704 255.674 136.692 255.842H129.24V254.672H135.216C135.18 253.844 134.904 253.202 134.388 252.746C133.884 252.278 133.254 252.044 132.498 252.044C131.982 252.044 131.502 252.164 131.058 252.404C130.614 252.632 130.254 252.968 129.978 253.412C129.714 253.856 129.582 254.414 129.582 255.086V255.59C129.582 256.322 129.72 256.94 129.996 257.444C130.272 257.948 130.632 258.326 131.076 258.578C131.52 258.818 131.994 258.938 132.498 258.938C133.122 258.938 133.638 258.8 134.046 258.524C134.466 258.236 134.772 257.846 134.964 257.354H136.458C136.302 257.906 136.044 258.398 135.684 258.83C135.324 259.25 134.874 259.586 134.334 259.838C133.806 260.09 133.194 260.216 132.498 260.216ZM143.196 260.216C142.344 260.216 141.576 260.018 140.892 259.622C140.22 259.226 139.686 258.674 139.29 257.966C138.906 257.258 138.714 256.436 138.714 255.5C138.714 254.552 138.906 253.724 139.29 253.016C139.686 252.308 140.22 251.756 140.892 251.36C141.576 250.964 142.344 250.766 143.196 250.766C144.276 250.766 145.17 251.048 145.878 251.612C146.598 252.164 147.06 252.908 147.264 253.844H145.716C145.584 253.28 145.284 252.842 144.816 252.53C144.348 252.218 143.802 252.062 143.178 252.062C142.674 252.062 142.2 252.194 141.756 252.458C141.312 252.71 140.952 253.094 140.676 253.61C140.4 254.114 140.262 254.744 140.262 255.5C140.262 256.052 140.34 256.544 140.496 256.976C140.664 257.408 140.88 257.774 141.144 258.074C141.42 258.362 141.732 258.578 142.08 258.722C142.44 258.866 142.806 258.938 143.178 258.938C143.598 258.938 143.982 258.872 144.33 258.74C144.678 258.596 144.972 258.392 145.212 258.128C145.464 257.852 145.632 257.528 145.716 257.156H147.264C147.072 258.068 146.61 258.806 145.878 259.37C145.158 259.934 144.264 260.216 143.196 260.216ZM153.053 260C152.513 260 152.045 259.916 151.649 259.748C151.253 259.58 150.947 259.298 150.731 258.902C150.527 258.494 150.425 257.948 150.425 257.264V252.26H148.859V250.982H150.425L150.623 248.822H151.937V250.982H154.565V252.26H151.937V257.264C151.937 257.828 152.051 258.212 152.279 258.416C152.507 258.608 152.909 258.704 153.485 258.704H154.439V260H153.053ZM165.568 260C165.028 260 164.56 259.916 164.164 259.748C163.768 259.58 163.462 259.298 163.246 258.902C163.042 258.494 162.94 257.948 162.94 257.264V252.26H161.374V250.982H162.94L163.138 248.822H164.452V250.982H167.08V252.26H164.452V257.264C164.452 257.828 164.566 258.212 164.794 258.416C165.022 258.608 165.424 258.704 166 258.704H166.954V260H165.568ZM169.378 260V247.04H170.89V252.512C171.19 251.972 171.61 251.546 172.15 251.234C172.702 250.922 173.308 250.766 173.968 250.766C174.652 250.766 175.252 250.91 175.768 251.198C176.284 251.474 176.68 251.9 176.956 252.476C177.244 253.052 177.388 253.784 177.388 254.672V260H175.894V254.834C175.894 253.922 175.702 253.232 175.318 252.764C174.934 252.296 174.376 252.062 173.644 252.062C173.128 252.062 172.66 252.188 172.24 252.44C171.82 252.692 171.49 253.058 171.25 253.538C171.01 254.006 170.89 254.582 170.89 255.266V260H169.378ZM180.074 260V250.982H181.442L181.568 252.71C181.76 252.302 182.012 251.954 182.324 251.666C182.648 251.378 183.032 251.156 183.476 251C183.92 250.844 184.424 250.766 184.988 250.766V252.35H184.502C184.106 252.35 183.728 252.404 183.368 252.512C183.02 252.608 182.708 252.77 182.432 252.998C182.168 253.226 181.958 253.538 181.802 253.934C181.658 254.318 181.586 254.804 181.586 255.392V260H180.074ZM190.723 260.216C189.871 260.216 189.115 260.024 188.455 259.64C187.795 259.244 187.273 258.692 186.889 257.984C186.517 257.264 186.331 256.436 186.331 255.5C186.331 254.54 186.517 253.712 186.889 253.016C187.261 252.308 187.777 251.756 188.437 251.36C189.109 250.964 189.883 250.766 190.759 250.766C191.635 250.766 192.385 250.964 193.009 251.36C193.633 251.756 194.107 252.272 194.431 252.908C194.767 253.544 194.935 254.24 194.935 254.996C194.935 255.116 194.935 255.248 194.935 255.392C194.935 255.524 194.929 255.674 194.917 255.842H187.465V254.672H193.441C193.405 253.844 193.129 253.202 192.613 252.746C192.109 252.278 191.479 252.044 190.723 252.044C190.207 252.044 189.727 252.164 189.283 252.404C188.839 252.632 188.479 252.968 188.203 253.412C187.939 253.856 187.807 254.414 187.807 255.086V255.59C187.807 256.322 187.945 256.94 188.221 257.444C188.497 257.948 188.857 258.326 189.301 258.578C189.745 258.818 190.219 258.938 190.723 258.938C191.347 258.938 191.863 258.8 192.271 258.524C192.691 258.236 192.997 257.846 193.189 257.354H194.683C194.527 257.906 194.269 258.398 193.909 258.83C193.549 259.25 193.099 259.586 192.559 259.838C192.031 260.09 191.419 260.216 190.723 260.216ZM200.287 260.216C199.543 260.216 198.925 260.09 198.433 259.838C197.953 259.586 197.593 259.25 197.353 258.83C197.113 258.398 196.993 257.93 196.993 257.426C196.993 256.814 197.149 256.298 197.461 255.878C197.785 255.458 198.235 255.14 198.811 254.924C199.399 254.696 200.083 254.582 200.863 254.582H203.275C203.275 254.018 203.185 253.55 203.005 253.178C202.837 252.806 202.585 252.524 202.249 252.332C201.913 252.14 201.505 252.044 201.025 252.044C200.449 252.044 199.945 252.194 199.513 252.494C199.093 252.782 198.835 253.202 198.739 253.754H197.191C197.263 253.118 197.479 252.578 197.839 252.134C198.211 251.69 198.679 251.354 199.243 251.126C199.807 250.886 200.401 250.766 201.025 250.766C201.853 250.766 202.543 250.922 203.095 251.234C203.659 251.534 204.079 251.96 204.355 252.512C204.643 253.052 204.787 253.694 204.787 254.438V260H203.437L203.347 258.398C203.227 258.65 203.071 258.89 202.879 259.118C202.699 259.334 202.483 259.526 202.231 259.694C201.991 259.85 201.709 259.976 201.385 260.072C201.061 260.168 200.695 260.216 200.287 260.216ZM200.521 258.938C200.953 258.938 201.337 258.854 201.673 258.686C202.009 258.506 202.297 258.266 202.537 257.966C202.789 257.666 202.975 257.33 203.095 256.958C203.215 256.574 203.275 256.184 203.275 255.788V255.752H200.989C200.413 255.752 199.945 255.824 199.585 255.968C199.225 256.1 198.967 256.286 198.811 256.526C198.655 256.766 198.577 257.042 198.577 257.354C198.577 257.678 198.649 257.96 198.793 258.2C198.949 258.44 199.171 258.626 199.459 258.758C199.747 258.878 200.101 258.938 200.521 258.938ZM210.769 260C210.229 260 209.761 259.916 209.365 259.748C208.969 259.58 208.663 259.298 208.447 258.902C208.243 258.494 208.141 257.948 208.141 257.264V252.26H206.575V250.982H208.141L208.339 248.822H209.653V250.982H212.281V252.26H209.653V257.264C209.653 257.828 209.767 258.212 209.995 258.416C210.223 258.608 210.625 258.704 211.201 258.704H212.155V260H210.769ZM217.998 260.216C217.266 260.216 216.618 260.096 216.054 259.856C215.502 259.604 215.058 259.25 214.722 258.794C214.386 258.338 214.176 257.804 214.092 257.192H215.64C215.712 257.516 215.844 257.81 216.036 258.074C216.228 258.338 216.492 258.548 216.828 258.704C217.164 258.86 217.56 258.938 218.016 258.938C218.448 258.938 218.796 258.878 219.06 258.758C219.336 258.626 219.54 258.458 219.672 258.254C219.816 258.038 219.888 257.804 219.888 257.552C219.888 257.18 219.798 256.898 219.618 256.706C219.45 256.514 219.198 256.364 218.862 256.256C218.526 256.148 218.124 256.052 217.656 255.968C217.272 255.896 216.888 255.8 216.504 255.68C216.132 255.548 215.79 255.392 215.478 255.212C215.178 255.02 214.938 254.78 214.758 254.492C214.578 254.204 214.488 253.85 214.488 253.43C214.488 252.914 214.62 252.458 214.884 252.062C215.16 251.654 215.538 251.336 216.018 251.108C216.51 250.88 217.092 250.766 217.764 250.766C218.724 250.766 219.504 251 220.104 251.468C220.704 251.936 221.058 252.614 221.166 253.502H219.672C219.612 253.046 219.414 252.692 219.078 252.44C218.754 252.176 218.31 252.044 217.746 252.044C217.182 252.044 216.75 252.158 216.45 252.386C216.162 252.614 216.018 252.914 216.018 253.286C216.018 253.526 216.102 253.736 216.27 253.916C216.438 254.096 216.678 254.252 216.99 254.384C217.314 254.504 217.704 254.612 218.16 254.708C218.748 254.816 219.288 254.96 219.78 255.14C220.272 255.32 220.668 255.584 220.968 255.932C221.28 256.28 221.436 256.778 221.436 257.426C221.448 257.978 221.31 258.464 221.022 258.884C220.734 259.304 220.332 259.634 219.816 259.874C219.312 260.102 218.706 260.216 217.998 260.216ZM229.601 260V249.524C229.601 248.948 229.697 248.48 229.889 248.12C230.081 247.748 230.363 247.478 230.735 247.31C231.119 247.13 231.587 247.04 232.139 247.04H233.111V248.336H232.373C231.929 248.336 231.605 248.426 231.401 248.606C231.209 248.786 231.113 249.104 231.113 249.56V260H229.601ZM228.233 252.26V250.982H233.363V252.26H228.233ZM238.14 260.216C237.396 260.216 236.778 260.09 236.286 259.838C235.806 259.586 235.446 259.25 235.206 258.83C234.966 258.398 234.846 257.93 234.846 257.426C234.846 256.814 235.002 256.298 235.314 255.878C235.638 255.458 236.088 255.14 236.664 254.924C237.252 254.696 237.936 254.582 238.716 254.582H241.128C241.128 254.018 241.038 253.55 240.858 253.178C240.69 252.806 240.438 252.524 240.102 252.332C239.766 252.14 239.358 252.044 238.878 252.044C238.302 252.044 237.798 252.194 237.366 252.494C236.946 252.782 236.688 253.202 236.592 253.754H235.044C235.116 253.118 235.332 252.578 235.692 252.134C236.064 251.69 236.532 251.354 237.096 251.126C237.66 250.886 238.254 250.766 238.878 250.766C239.706 250.766 240.396 250.922 240.948 251.234C241.512 251.534 241.932 251.96 242.208 252.512C242.496 253.052 242.64 253.694 242.64 254.438V260H241.29L241.2 258.398C241.08 258.65 240.924 258.89 240.732 259.118C240.552 259.334 240.336 259.526 240.084 259.694C239.844 259.85 239.562 259.976 239.238 260.072C238.914 260.168 238.548 260.216 238.14 260.216ZM238.374 258.938C238.806 258.938 239.19 258.854 239.526 258.686C239.862 258.506 240.15 258.266 240.39 257.966C240.642 257.666 240.828 257.33 240.948 256.958C241.068 256.574 241.128 256.184 241.128 255.788V255.752H238.842C238.266 255.752 237.798 255.824 237.438 255.968C237.078 256.1 236.82 256.286 236.664 256.526C236.508 256.766 236.43 257.042 236.43 257.354C236.43 257.678 236.502 257.96 236.646 258.2C236.802 258.44 237.024 258.626 237.312 258.758C237.6 258.878 237.954 258.938 238.374 258.938ZM248.723 260.216C247.991 260.216 247.343 260.096 246.779 259.856C246.227 259.604 245.783 259.25 245.447 258.794C245.111 258.338 244.901 257.804 244.817 257.192H246.365C246.437 257.516 246.569 257.81 246.761 258.074C246.953 258.338 247.217 258.548 247.553 258.704C247.889 258.86 248.285 258.938 248.741 258.938C249.173 258.938 249.521 258.878 249.785 258.758C250.061 258.626 250.265 258.458 250.397 258.254C250.541 258.038 250.613 257.804 250.613 257.552C250.613 257.18 250.523 256.898 250.343 256.706C250.175 256.514 249.923 256.364 249.587 256.256C249.251 256.148 248.849 256.052 248.381 255.968C247.997 255.896 247.613 255.8 247.229 255.68C246.857 255.548 246.515 255.392 246.203 255.212C245.903 255.02 245.663 254.78 245.483 254.492C245.303 254.204 245.213 253.85 245.213 253.43C245.213 252.914 245.345 252.458 245.609 252.062C245.885 251.654 246.263 251.336 246.743 251.108C247.235 250.88 247.817 250.766 248.489 250.766C249.449 250.766 250.229 251 250.829 251.468C251.429 251.936 251.783 252.614 251.891 253.502H250.397C250.337 253.046 250.139 252.692 249.803 252.44C249.479 252.176 249.035 252.044 248.471 252.044C247.907 252.044 247.475 252.158 247.175 252.386C246.887 252.614 246.743 252.914 246.743 253.286C246.743 253.526 246.827 253.736 246.995 253.916C247.163 254.096 247.403 254.252 247.715 254.384C248.039 254.504 248.429 254.612 248.885 254.708C249.473 254.816 250.013 254.96 250.505 255.14C250.997 255.32 251.393 255.584 251.693 255.932C252.005 256.28 252.161 256.778 252.161 257.426C252.173 257.978 252.035 258.464 251.747 258.884C251.459 259.304 251.057 259.634 250.541 259.874C250.037 260.102 249.431 260.216 248.723 260.216ZM257.841 260C257.301 260 256.833 259.916 256.437 259.748C256.041 259.58 255.735 259.298 255.519 258.902C255.315 258.494 255.213 257.948 255.213 257.264V252.26H253.647V250.982H255.213L255.411 248.822H256.725V250.982H259.353V252.26H256.725V257.264C256.725 257.828 256.839 258.212 257.067 258.416C257.295 258.608 257.697 258.704 258.273 258.704H259.227V260H257.841ZM265.418 260.216C264.566 260.216 263.81 260.024 263.15 259.64C262.49 259.244 261.968 258.692 261.584 257.984C261.212 257.264 261.026 256.436 261.026 255.5C261.026 254.54 261.212 253.712 261.584 253.016C261.956 252.308 262.472 251.756 263.132 251.36C263.804 250.964 264.578 250.766 265.454 250.766C266.33 250.766 267.08 250.964 267.704 251.36C268.328 251.756 268.802 252.272 269.126 252.908C269.462 253.544 269.63 254.24 269.63 254.996C269.63 255.116 269.63 255.248 269.63 255.392C269.63 255.524 269.624 255.674 269.612 255.842H262.16V254.672H268.136C268.1 253.844 267.824 253.202 267.308 252.746C266.804 252.278 266.174 252.044 265.418 252.044C264.902 252.044 264.422 252.164 263.978 252.404C263.534 252.632 263.174 252.968 262.898 253.412C262.634 253.856 262.502 254.414 262.502 255.086V255.59C262.502 256.322 262.64 256.94 262.916 257.444C263.192 257.948 263.552 258.326 263.996 258.578C264.44 258.818 264.914 258.938 265.418 258.938C266.042 258.938 266.558 258.8 266.966 258.524C267.386 258.236 267.692 257.846 267.884 257.354H269.378C269.222 257.906 268.964 258.398 268.604 258.83C268.244 259.25 267.794 259.586 267.254 259.838C266.726 260.09 266.114 260.216 265.418 260.216ZM272.012 260V250.982H273.38L273.506 252.71C273.698 252.302 273.95 251.954 274.262 251.666C274.586 251.378 274.97 251.156 275.414 251C275.858 250.844 276.362 250.766 276.926 250.766V252.35H276.44C276.044 252.35 275.666 252.404 275.306 252.512C274.958 252.608 274.646 252.77 274.37 252.998C274.106 253.226 273.896 253.538 273.74 253.934C273.596 254.318 273.524 254.804 273.524 255.392V260H272.012Z" fill="#A192FE"/>
</g>
<rect x="81" y="72" width="206" height="48" rx="24" fill="url(#paint1_linear_536_4391)"/>
<rect x="81.5" y="72.5" width="205" height="47" rx="23.5" stroke="white" stroke-opacity="0.3"/>
<g filter="url(#filter1_d_536_4391)">
<path d="M98.134 102V100.938C98.998 100.266 99.814 99.588 100.582 98.904C101.35 98.22 102.028 97.542 102.616 96.87C103.216 96.186 103.684 95.52 104.02 94.872C104.368 94.224 104.542 93.6 104.542 93C104.542 92.556 104.464 92.148 104.308 91.776C104.152 91.392 103.906 91.08 103.57 90.84C103.234 90.6 102.778 90.48 102.202 90.48C101.638 90.48 101.17 90.606 100.798 90.858C100.426 91.098 100.144 91.422 99.952 91.83C99.772 92.226 99.682 92.664 99.682 93.144H98.224C98.236 92.316 98.41 91.608 98.746 91.02C99.094 90.42 99.568 89.964 100.168 89.652C100.768 89.34 101.452 89.184 102.22 89.184C102.976 89.184 103.642 89.328 104.218 89.616C104.794 89.892 105.244 90.306 105.568 90.858C105.892 91.41 106.054 92.106 106.054 92.946C106.054 93.534 105.934 94.122 105.694 94.71C105.454 95.298 105.13 95.874 104.722 96.438C104.314 96.99 103.858 97.524 103.354 98.04C102.862 98.556 102.358 99.042 101.842 99.498C101.326 99.954 100.834 100.368 100.366 100.74H106.486V102H98.134ZM114.471 102V99.3H108.081V98.13L114.201 89.4H115.965V97.968H117.837V99.3H115.965V102H114.471ZM109.755 97.968H114.543V91.074L109.755 97.968ZM119.195 103.71L123.713 88.248H125.207L120.689 103.71H119.195ZM128.53 102L133.462 90.696H126.55V89.4H135.01V90.534L130.132 102H128.53ZM142.44 102V92.982H143.808L143.934 94.71C144.126 94.302 144.378 93.954 144.69 93.666C145.014 93.378 145.398 93.156 145.842 93C146.286 92.844 146.79 92.766 147.354 92.766V94.35H146.868C146.472 94.35 146.094 94.404 145.734 94.512C145.386 94.608 145.074 94.77 144.798 94.998C144.534 95.226 144.324 95.538 144.168 95.934C144.024 96.318 143.952 96.804 143.952 97.392V102H142.44ZM153.09 102.216C152.238 102.216 151.482 102.024 150.822 101.64C150.162 101.244 149.64 100.692 149.256 99.984C148.884 99.264 148.698 98.436 148.698 97.5C148.698 96.54 148.884 95.712 149.256 95.016C149.628 94.308 150.144 93.756 150.804 93.36C151.476 92.964 152.25 92.766 153.126 92.766C154.002 92.766 154.752 92.964 155.376 93.36C156 93.756 156.474 94.272 156.798 94.908C157.134 95.544 157.302 96.24 157.302 96.996C157.302 97.116 157.302 97.248 157.302 97.392C157.302 97.524 157.296 97.674 157.284 97.842H149.832V96.672H155.808C155.772 95.844 155.496 95.202 154.98 94.746C154.476 94.278 153.846 94.044 153.09 94.044C152.574 94.044 152.094 94.164 151.65 94.404C151.206 94.632 150.846 94.968 150.57 95.412C150.306 95.856 150.174 96.414 150.174 97.086V97.59C150.174 98.322 150.312 98.94 150.588 99.444C150.864 99.948 151.224 100.326 151.668 100.578C152.112 100.818 152.586 100.938 153.09 100.938C153.714 100.938 154.23 100.8 154.638 100.524C155.058 100.236 155.364 99.846 155.556 99.354H157.05C156.894 99.906 156.636 100.398 156.276 100.83C155.916 101.25 155.466 101.586 154.926 101.838C154.398 102.09 153.786 102.216 153.09 102.216ZM163.104 102.216C162.372 102.216 161.724 102.096 161.16 101.856C160.608 101.604 160.164 101.25 159.828 100.794C159.492 100.338 159.282 99.804 159.198 99.192H160.746C160.818 99.516 160.95 99.81 161.142 100.074C161.334 100.338 161.598 100.548 161.934 100.704C162.27 100.86 162.666 100.938 163.122 100.938C163.554 100.938 163.902 100.878 164.166 100.758C164.442 100.626 164.646 100.458 164.778 100.254C164.922 100.038 164.994 99.804 164.994 99.552C164.994 99.18 164.904 98.898 164.724 98.706C164.556 98.514 164.304 98.364 163.968 98.256C163.632 98.148 163.23 98.052 162.762 97.968C162.378 97.896 161.994 97.8 161.61 97.68C161.238 97.548 160.896 97.392 160.584 97.212C160.284 97.02 160.044 96.78 159.864 96.492C159.684 96.204 159.594 95.85 159.594 95.43C159.594 94.914 159.726 94.458 159.99 94.062C160.266 93.654 160.644 93.336 161.124 93.108C161.616 92.88 162.198 92.766 162.87 92.766C163.83 92.766 164.61 93 165.21 93.468C165.81 93.936 166.164 94.614 166.272 95.502H164.778C164.718 95.046 164.52 94.692 164.184 94.44C163.86 94.176 163.416 94.044 162.852 94.044C162.288 94.044 161.856 94.158 161.556 94.386C161.268 94.614 161.124 94.914 161.124 95.286C161.124 95.526 161.208 95.736 161.376 95.916C161.544 96.096 161.784 96.252 162.096 96.384C162.42 96.504 162.81 96.612 163.266 96.708C163.854 96.816 164.394 96.96 164.886 97.14C165.378 97.32 165.774 97.584 166.074 97.932C166.386 98.28 166.542 98.778 166.542 99.426C166.554 99.978 166.416 100.464 166.128 100.884C165.84 101.304 165.438 101.634 164.922 101.874C164.418 102.102 163.812 102.216 163.104 102.216ZM169.061 105.96V92.982H170.429L170.573 94.458C170.765 94.17 171.011 93.9 171.311 93.648C171.611 93.384 171.971 93.174 172.391 93.018C172.811 92.85 173.297 92.766 173.849 92.766C174.725 92.766 175.487 92.976 176.135 93.396C176.795 93.804 177.311 94.368 177.683 95.088C178.055 95.796 178.241 96.606 178.241 97.518C178.241 98.418 178.055 99.222 177.683 99.93C177.311 100.638 176.795 101.196 176.135 101.604C175.475 102.012 174.707 102.216 173.831 102.216C173.099 102.216 172.451 102.066 171.887 101.766C171.323 101.466 170.885 101.046 170.573 100.506V105.96H169.061ZM173.669 100.902C174.257 100.902 174.779 100.764 175.235 100.488C175.691 100.2 176.045 99.804 176.297 99.3C176.561 98.784 176.693 98.184 176.693 97.5C176.693 96.816 176.561 96.222 176.297 95.718C176.045 95.202 175.691 94.8 175.235 94.512C174.779 94.224 174.257 94.08 173.669 94.08C173.069 94.08 172.535 94.224 172.067 94.512C171.611 94.8 171.251 95.202 170.987 95.718C170.735 96.222 170.609 96.816 170.609 97.5C170.609 98.184 170.735 98.784 170.987 99.3C171.251 99.804 171.611 100.2 172.067 100.488C172.535 100.764 173.069 100.902 173.669 100.902ZM184.775 102.216C183.935 102.216 183.179 102.024 182.507 101.64C181.835 101.244 181.301 100.692 180.905 99.984C180.521 99.276 180.329 98.448 180.329 97.5C180.329 96.54 180.527 95.706 180.923 94.998C181.319 94.29 181.853 93.744 182.525 93.36C183.209 92.964 183.971 92.766 184.811 92.766C185.663 92.766 186.425 92.964 187.097 93.36C187.769 93.744 188.297 94.29 188.681 94.998C189.065 95.706 189.257 96.54 189.257 97.5C189.257 98.448 189.059 99.276 188.663 99.984C188.279 100.692 187.745 101.244 187.061 101.64C186.389 102.024 185.627 102.216 184.775 102.216ZM184.775 100.92C185.303 100.92 185.789 100.794 186.233 100.542C186.677 100.29 187.031 99.906 187.295 99.39C187.571 98.874 187.709 98.244 187.709 97.5C187.709 96.732 187.577 96.096 187.313 95.592C187.049 95.088 186.695 94.71 186.251 94.458C185.807 94.194 185.327 94.062 184.811 94.062C184.307 94.062 183.827 94.194 183.371 94.458C182.927 94.71 182.567 95.088 182.291 95.592C182.015 96.096 181.877 96.732 181.877 97.5C181.877 98.244 182.015 98.874 182.291 99.39C182.567 99.906 182.921 100.29 183.353 100.542C183.797 100.794 184.271 100.92 184.775 100.92ZM191.737 102V92.982H193.105L193.195 94.584C193.483 94.02 193.897 93.576 194.437 93.252C194.977 92.928 195.589 92.766 196.273 92.766C196.969 92.766 197.575 92.91 198.091 93.198C198.607 93.474 199.009 93.9 199.297 94.476C199.585 95.052 199.729 95.778 199.729 96.654V102H198.217V96.816C198.217 95.904 198.019 95.22 197.623 94.764C197.227 94.296 196.663 94.062 195.931 94.062C195.415 94.062 194.953 94.188 194.545 94.44C194.149 94.692 193.831 95.052 193.591 95.52C193.363 95.988 193.249 96.564 193.249 97.248V102H191.737ZM205.835 102.216C205.103 102.216 204.455 102.096 203.891 101.856C203.339 101.604 202.895 101.25 202.559 100.794C202.223 100.338 202.013 99.804 201.929 99.192H203.477C203.549 99.516 203.681 99.81 203.873 100.074C204.065 100.338 204.329 100.548 204.665 100.704C205.001 100.86 205.397 100.938 205.853 100.938C206.285 100.938 206.633 100.878 206.897 100.758C207.173 100.626 207.377 100.458 207.509 100.254C207.653 100.038 207.725 99.804 207.725 99.552C207.725 99.18 207.635 98.898 207.455 98.706C207.287 98.514 207.035 98.364 206.699 98.256C206.363 98.148 205.961 98.052 205.493 97.968C205.109 97.896 204.725 97.8 204.341 97.68C203.969 97.548 203.627 97.392 203.315 97.212C203.015 97.02 202.775 96.78 202.595 96.492C202.415 96.204 202.325 95.85 202.325 95.43C202.325 94.914 202.457 94.458 202.721 94.062C202.997 93.654 203.375 93.336 203.855 93.108C204.347 92.88 204.929 92.766 205.601 92.766C206.561 92.766 207.341 93 207.941 93.468C208.541 93.936 208.895 94.614 209.003 95.502H207.509C207.449 95.046 207.251 94.692 206.915 94.44C206.591 94.176 206.147 94.044 205.583 94.044C205.019 94.044 204.587 94.158 204.287 94.386C203.999 94.614 203.855 94.914 203.855 95.286C203.855 95.526 203.939 95.736 204.107 95.916C204.275 96.096 204.515 96.252 204.827 96.384C205.151 96.504 205.541 96.612 205.997 96.708C206.585 96.816 207.125 96.96 207.617 97.14C208.109 97.32 208.505 97.584 208.805 97.932C209.117 98.28 209.273 98.778 209.273 99.426C209.285 99.978 209.147 100.464 208.859 100.884C208.571 101.304 208.169 101.634 207.653 101.874C207.149 102.102 206.543 102.216 205.835 102.216ZM215.806 102.216C214.954 102.216 214.198 102.024 213.538 101.64C212.878 101.244 212.356 100.692 211.972 99.984C211.6 99.264 211.414 98.436 211.414 97.5C211.414 96.54 211.6 95.712 211.972 95.016C212.344 94.308 212.86 93.756 213.52 93.36C214.192 92.964 214.966 92.766 215.842 92.766C216.718 92.766 217.468 92.964 218.092 93.36C218.716 93.756 219.19 94.272 219.514 94.908C219.85 95.544 220.018 96.24 220.018 96.996C220.018 97.116 220.018 97.248 220.018 97.392C220.018 97.524 220.012 97.674 220 97.842H212.548V96.672H218.524C218.488 95.844 218.212 95.202 217.696 94.746C217.192 94.278 216.562 94.044 215.806 94.044C215.29 94.044 214.81 94.164 214.366 94.404C213.922 94.632 213.562 94.968 213.286 95.412C213.022 95.856 212.89 96.414 212.89 97.086V97.59C212.89 98.322 213.028 98.94 213.304 99.444C213.58 99.948 213.94 100.326 214.384 100.578C214.828 100.818 215.302 100.938 215.806 100.938C216.43 100.938 216.946 100.8 217.354 100.524C217.774 100.236 218.08 99.846 218.272 99.354H219.766C219.61 99.906 219.352 100.398 218.992 100.83C218.632 101.25 218.182 101.586 217.642 101.838C217.114 102.09 216.502 102.216 215.806 102.216ZM231.106 102C230.566 102 230.098 101.916 229.702 101.748C229.306 101.58 229 101.298 228.784 100.902C228.58 100.494 228.478 99.948 228.478 99.264V94.26H226.912V92.982H228.478L228.676 90.822H229.99V92.982H232.618V94.26H229.99V99.264C229.99 99.828 230.104 100.212 230.332 100.416C230.56 100.608 230.962 100.704 231.538 100.704H232.492V102H231.106ZM238.683 102.216C237.831 102.216 237.075 102.024 236.415 101.64C235.755 101.244 235.233 100.692 234.849 99.984C234.477 99.264 234.291 98.436 234.291 97.5C234.291 96.54 234.477 95.712 234.849 95.016C235.221 94.308 235.737 93.756 236.397 93.36C237.069 92.964 237.843 92.766 238.719 92.766C239.595 92.766 240.345 92.964 240.969 93.36C241.593 93.756 242.067 94.272 242.391 94.908C242.727 95.544 242.895 96.24 242.895 96.996C242.895 97.116 242.895 97.248 242.895 97.392C242.895 97.524 242.889 97.674 242.877 97.842H235.425V96.672H241.401C241.365 95.844 241.089 95.202 240.573 94.746C240.069 94.278 239.439 94.044 238.683 94.044C238.167 94.044 237.687 94.164 237.243 94.404C236.799 94.632 236.439 94.968 236.163 95.412C235.899 95.856 235.767 96.414 235.767 97.086V97.59C235.767 98.322 235.905 98.94 236.181 99.444C236.457 99.948 236.817 100.326 237.261 100.578C237.705 100.818 238.179 100.938 238.683 100.938C239.307 100.938 239.823 100.8 240.231 100.524C240.651 100.236 240.957 99.846 241.149 99.354H242.643C242.487 99.906 242.229 100.398 241.869 100.83C241.509 101.25 241.059 101.586 240.519 101.838C239.991 102.09 239.379 102.216 238.683 102.216ZM248.247 102.216C247.503 102.216 246.885 102.09 246.393 101.838C245.913 101.586 245.553 101.25 245.313 100.83C245.073 100.398 244.953 99.93 244.953 99.426C244.953 98.814 245.109 98.298 245.421 97.878C245.745 97.458 246.195 97.14 246.771 96.924C247.359 96.696 248.043 96.582 248.823 96.582H251.235C251.235 96.018 251.145 95.55 250.965 95.178C250.797 94.806 250.545 94.524 250.209 94.332C249.873 94.14 249.465 94.044 248.985 94.044C248.409 94.044 247.905 94.194 247.473 94.494C247.053 94.782 246.795 95.202 246.699 95.754H245.151C245.223 95.118 245.439 94.578 245.799 94.134C246.171 93.69 246.639 93.354 247.203 93.126C247.767 92.886 248.361 92.766 248.985 92.766C249.813 92.766 250.503 92.922 251.055 93.234C251.619 93.534 252.039 93.96 252.315 94.512C252.603 95.052 252.747 95.694 252.747 96.438V102H251.397L251.307 100.398C251.187 100.65 251.031 100.89 250.839 101.118C250.659 101.334 250.443 101.526 250.191 101.694C249.951 101.85 249.669 101.976 249.345 102.072C249.021 102.168 248.655 102.216 248.247 102.216ZM248.481 100.938C248.913 100.938 249.297 100.854 249.633 100.686C249.969 100.506 250.257 100.266 250.497 99.966C250.749 99.666 250.935 99.33 251.055 98.958C251.175 98.574 251.235 98.184 251.235 97.788V97.752H248.949C248.373 97.752 247.905 97.824 247.545 97.968C247.185 98.1 246.927 98.286 246.771 98.526C246.615 98.766 246.537 99.042 246.537 99.354C246.537 99.678 246.609 99.96 246.753 100.2C246.909 100.44 247.131 100.626 247.419 100.758C247.707 100.878 248.061 100.938 248.481 100.938ZM255.411 102V92.982H256.779L256.887 94.278C257.175 93.81 257.559 93.444 258.039 93.18C258.519 92.904 259.059 92.766 259.659 92.766C260.115 92.766 260.535 92.832 260.919 92.964C261.303 93.084 261.639 93.276 261.927 93.54C262.215 93.792 262.449 94.116 262.629 94.512C262.941 93.96 263.373 93.534 263.925 93.234C264.477 92.922 265.059 92.766 265.671 92.766C266.379 92.766 266.997 92.91 267.525 93.198C268.053 93.474 268.455 93.9 268.731 94.476C269.019 95.052 269.163 95.778 269.163 96.654V102H267.669V96.816C267.669 95.904 267.483 95.22 267.111 94.764C266.739 94.296 266.211 94.062 265.527 94.062C265.047 94.062 264.621 94.188 264.249 94.44C263.877 94.692 263.583 95.052 263.367 95.52C263.151 95.988 263.043 96.564 263.043 97.248V102H261.531V96.816C261.531 95.904 261.345 95.22 260.973 94.764C260.601 94.296 260.073 94.062 259.389 94.062C258.933 94.062 258.513 94.188 258.129 94.44C257.757 94.692 257.463 95.052 257.247 95.52C257.031 95.988 256.923 96.564 256.923 97.248V102H255.411Z" fill="#A192FE"/>
</g>
<rect x="316" y="273" width="353" height="48" rx="24" fill="url(#paint2_linear_536_4391)"/>
<rect x="316.5" y="273.5" width="352" height="47" rx="23.5" stroke="white" stroke-opacity="0.3"/>
<g filter="url(#filter2_d_536_4391)">
<path d="M338.84 303.216C337.604 303.216 336.536 302.946 335.636 302.406C334.748 301.854 334.058 301.092 333.566 300.12C333.086 299.136 332.846 297.996 332.846 296.7C332.846 295.404 333.086 294.27 333.566 293.298C334.058 292.314 334.748 291.552 335.636 291.012C336.536 290.46 337.604 290.184 338.84 290.184C340.28 290.184 341.45 290.526 342.35 291.21C343.25 291.894 343.826 292.86 344.078 294.108H342.404C342.212 293.328 341.822 292.704 341.234 292.236C340.646 291.756 339.848 291.516 338.84 291.516C337.94 291.516 337.154 291.726 336.482 292.146C335.822 292.554 335.306 293.148 334.934 293.928C334.574 294.696 334.394 295.62 334.394 296.7C334.394 297.78 334.574 298.71 334.934 299.49C335.306 300.258 335.822 300.852 336.482 301.272C337.154 301.68 337.94 301.884 338.84 301.884C339.848 301.884 340.646 301.656 341.234 301.2C341.822 300.732 342.212 300.114 342.404 299.346H344.078C343.826 300.558 343.25 301.506 342.35 302.19C341.45 302.874 340.28 303.216 338.84 303.216ZM346.522 303V293.982H347.89L348.016 295.71C348.208 295.302 348.46 294.954 348.772 294.666C349.096 294.378 349.48 294.156 349.924 294C350.368 293.844 350.872 293.766 351.436 293.766V295.35H350.95C350.554 295.35 350.176 295.404 349.816 295.512C349.468 295.608 349.156 295.77 348.88 295.998C348.616 296.226 348.406 296.538 348.25 296.934C348.106 297.318 348.034 297.804 348.034 298.392V303H346.522ZM353.653 303V293.982H355.165V303H353.653ZM354.409 292.038C354.109 292.038 353.857 291.942 353.653 291.75C353.461 291.546 353.365 291.294 353.365 290.994C353.365 290.694 353.461 290.454 353.653 290.274C353.857 290.082 354.109 289.986 354.409 289.986C354.697 289.986 354.943 290.082 355.147 290.274C355.351 290.454 355.453 290.694 355.453 290.994C355.453 291.294 355.351 291.546 355.147 291.75C354.943 291.942 354.697 292.038 354.409 292.038ZM361.578 303.216C360.846 303.216 360.198 303.096 359.634 302.856C359.082 302.604 358.638 302.25 358.302 301.794C357.966 301.338 357.756 300.804 357.672 300.192H359.22C359.292 300.516 359.424 300.81 359.616 301.074C359.808 301.338 360.072 301.548 360.408 301.704C360.744 301.86 361.14 301.938 361.596 301.938C362.028 301.938 362.376 301.878 362.64 301.758C362.916 301.626 363.12 301.458 363.252 301.254C363.396 301.038 363.468 300.804 363.468 300.552C363.468 300.18 363.378 299.898 363.198 299.706C363.03 299.514 362.778 299.364 362.442 299.256C362.106 299.148 361.704 299.052 361.236 298.968C360.852 298.896 360.468 298.8 360.084 298.68C359.712 298.548 359.37 298.392 359.058 298.212C358.758 298.02 358.518 297.78 358.338 297.492C358.158 297.204 358.068 296.85 358.068 296.43C358.068 295.914 358.2 295.458 358.464 295.062C358.74 294.654 359.118 294.336 359.598 294.108C360.09 293.88 360.672 293.766 361.344 293.766C362.304 293.766 363.084 294 363.684 294.468C364.284 294.936 364.638 295.614 364.746 296.502H363.252C363.192 296.046 362.994 295.692 362.658 295.44C362.334 295.176 361.89 295.044 361.326 295.044C360.762 295.044 360.33 295.158 360.03 295.386C359.742 295.614 359.598 295.914 359.598 296.286C359.598 296.526 359.682 296.736 359.85 296.916C360.018 297.096 360.258 297.252 360.57 297.384C360.894 297.504 361.284 297.612 361.74 297.708C362.328 297.816 362.868 297.96 363.36 298.14C363.852 298.32 364.248 298.584 364.548 298.932C364.86 299.28 365.016 299.778 365.016 300.426C365.028 300.978 364.89 301.464 364.602 301.884C364.314 302.304 363.912 302.634 363.396 302.874C362.892 303.102 362.286 303.216 361.578 303.216ZM367.698 303V293.982H369.21V303H367.698ZM368.454 292.038C368.154 292.038 367.902 291.942 367.698 291.75C367.506 291.546 367.41 291.294 367.41 290.994C367.41 290.694 367.506 290.454 367.698 290.274C367.902 290.082 368.154 289.986 368.454 289.986C368.742 289.986 368.988 290.082 369.192 290.274C369.396 290.454 369.498 290.694 369.498 290.994C369.498 291.294 369.396 291.546 369.192 291.75C368.988 291.942 368.742 292.038 368.454 292.038ZM375.622 303.216C374.89 303.216 374.242 303.096 373.678 302.856C373.126 302.604 372.682 302.25 372.346 301.794C372.01 301.338 371.8 300.804 371.716 300.192H373.264C373.336 300.516 373.468 300.81 373.66 301.074C373.852 301.338 374.116 301.548 374.452 301.704C374.788 301.86 375.184 301.938 375.64 301.938C376.072 301.938 376.42 301.878 376.684 301.758C376.96 301.626 377.164 301.458 377.296 301.254C377.44 301.038 377.512 300.804 377.512 300.552C377.512 300.18 377.422 299.898 377.242 299.706C377.074 299.514 376.822 299.364 376.486 299.256C376.15 299.148 375.748 299.052 375.28 298.968C374.896 298.896 374.512 298.8 374.128 298.68C373.756 298.548 373.414 298.392 373.102 298.212C372.802 298.02 372.562 297.78 372.382 297.492C372.202 297.204 372.112 296.85 372.112 296.43C372.112 295.914 372.244 295.458 372.508 295.062C372.784 294.654 373.162 294.336 373.642 294.108C374.134 293.88 374.716 293.766 375.388 293.766C376.348 293.766 377.128 294 377.728 294.468C378.328 294.936 378.682 295.614 378.79 296.502H377.296C377.236 296.046 377.038 295.692 376.702 295.44C376.378 295.176 375.934 295.044 375.37 295.044C374.806 295.044 374.374 295.158 374.074 295.386C373.786 295.614 373.642 295.914 373.642 296.286C373.642 296.526 373.726 296.736 373.894 296.916C374.062 297.096 374.302 297.252 374.614 297.384C374.938 297.504 375.328 297.612 375.784 297.708C376.372 297.816 376.912 297.96 377.404 298.14C377.896 298.32 378.292 298.584 378.592 298.932C378.904 299.28 379.06 299.778 379.06 300.426C379.072 300.978 378.934 301.464 378.646 301.884C378.358 302.304 377.956 302.634 377.44 302.874C376.936 303.102 376.33 303.216 375.622 303.216ZM386.721 303V293.982H388.089L388.215 295.71C388.407 295.302 388.659 294.954 388.971 294.666C389.295 294.378 389.679 294.156 390.123 294C390.567 293.844 391.071 293.766 391.635 293.766V295.35H391.149C390.753 295.35 390.375 295.404 390.015 295.512C389.667 295.608 389.355 295.77 389.079 295.998C388.815 296.226 388.605 296.538 388.449 296.934C388.305 297.318 388.233 297.804 388.233 298.392V303H386.721ZM397.37 303.216C396.518 303.216 395.762 303.024 395.102 302.64C394.442 302.244 393.92 301.692 393.536 300.984C393.164 300.264 392.978 299.436 392.978 298.5C392.978 297.54 393.164 296.712 393.536 296.016C393.908 295.308 394.424 294.756 395.084 294.36C395.756 293.964 396.53 293.766 397.406 293.766C398.282 293.766 399.032 293.964 399.656 294.36C400.28 294.756 400.754 295.272 401.078 295.908C401.414 296.544 401.582 297.24 401.582 297.996C401.582 298.116 401.582 298.248 401.582 298.392C401.582 298.524 401.576 298.674 401.564 298.842H394.112V297.672H400.088C400.052 296.844 399.776 296.202 399.26 295.746C398.756 295.278 398.126 295.044 397.37 295.044C396.854 295.044 396.374 295.164 395.93 295.404C395.486 295.632 395.126 295.968 394.85 296.412C394.586 296.856 394.454 297.414 394.454 298.086V298.59C394.454 299.322 394.592 299.94 394.868 300.444C395.144 300.948 395.504 301.326 395.948 301.578C396.392 301.818 396.866 301.938 397.37 301.938C397.994 301.938 398.51 301.8 398.918 301.524C399.338 301.236 399.644 300.846 399.836 300.354H401.33C401.174 300.906 400.916 301.398 400.556 301.83C400.196 302.25 399.746 302.586 399.206 302.838C398.678 303.09 398.066 303.216 397.37 303.216ZM407.384 303.216C406.652 303.216 406.004 303.096 405.44 302.856C404.888 302.604 404.444 302.25 404.108 301.794C403.772 301.338 403.562 300.804 403.478 300.192H405.026C405.098 300.516 405.23 300.81 405.422 301.074C405.614 301.338 405.878 301.548 406.214 301.704C406.55 301.86 406.946 301.938 407.402 301.938C407.834 301.938 408.182 301.878 408.446 301.758C408.722 301.626 408.926 301.458 409.058 301.254C409.202 301.038 409.274 300.804 409.274 300.552C409.274 300.18 409.184 299.898 409.004 299.706C408.836 299.514 408.584 299.364 408.248 299.256C407.912 299.148 407.51 299.052 407.042 298.968C406.658 298.896 406.274 298.8 405.89 298.68C405.518 298.548 405.176 298.392 404.864 298.212C404.564 298.02 404.324 297.78 404.144 297.492C403.964 297.204 403.874 296.85 403.874 296.43C403.874 295.914 404.006 295.458 404.27 295.062C404.546 294.654 404.924 294.336 405.404 294.108C405.896 293.88 406.478 293.766 407.15 293.766C408.11 293.766 408.89 294 409.49 294.468C410.09 294.936 410.444 295.614 410.552 296.502H409.058C408.998 296.046 408.8 295.692 408.464 295.44C408.14 295.176 407.696 295.044 407.132 295.044C406.568 295.044 406.136 295.158 405.836 295.386C405.548 295.614 405.404 295.914 405.404 296.286C405.404 296.526 405.488 296.736 405.656 296.916C405.824 297.096 406.064 297.252 406.376 297.384C406.7 297.504 407.09 297.612 407.546 297.708C408.134 297.816 408.674 297.96 409.166 298.14C409.658 298.32 410.054 298.584 410.354 298.932C410.666 299.28 410.822 299.778 410.822 300.426C410.834 300.978 410.696 301.464 410.408 301.884C410.12 302.304 409.718 302.634 409.202 302.874C408.698 303.102 408.092 303.216 407.384 303.216ZM413.342 306.96V293.982H414.71L414.854 295.458C415.046 295.17 415.292 294.9 415.592 294.648C415.892 294.384 416.252 294.174 416.672 294.018C417.092 293.85 417.578 293.766 418.13 293.766C419.006 293.766 419.768 293.976 420.416 294.396C421.076 294.804 421.592 295.368 421.964 296.088C422.336 296.796 422.522 297.606 422.522 298.518C422.522 299.418 422.336 300.222 421.964 300.93C421.592 301.638 421.076 302.196 420.416 302.604C419.756 303.012 418.988 303.216 418.112 303.216C417.38 303.216 416.732 303.066 416.168 302.766C415.604 302.466 415.166 302.046 414.854 301.506V306.96H413.342ZM417.95 301.902C418.538 301.902 419.06 301.764 419.516 301.488C419.972 301.2 420.326 300.804 420.578 300.3C420.842 299.784 420.974 299.184 420.974 298.5C420.974 297.816 420.842 297.222 420.578 296.718C420.326 296.202 419.972 295.8 419.516 295.512C419.06 295.224 418.538 295.08 417.95 295.08C417.35 295.08 416.816 295.224 416.348 295.512C415.892 295.8 415.532 296.202 415.268 296.718C415.016 297.222 414.89 297.816 414.89 298.5C414.89 299.184 415.016 299.784 415.268 300.3C415.532 300.804 415.892 301.2 416.348 301.488C416.816 301.764 417.35 301.902 417.95 301.902ZM429.055 303.216C428.215 303.216 427.459 303.024 426.787 302.64C426.115 302.244 425.581 301.692 425.185 300.984C424.801 300.276 424.609 299.448 424.609 298.5C424.609 297.54 424.807 296.706 425.203 295.998C425.599 295.29 426.133 294.744 426.805 294.36C427.489 293.964 428.251 293.766 429.091 293.766C429.943 293.766 430.705 293.964 431.377 294.36C432.049 294.744 432.577 295.29 432.961 295.998C433.345 296.706 433.537 297.54 433.537 298.5C433.537 299.448 433.339 300.276 432.943 300.984C432.559 301.692 432.025 302.244 431.341 302.64C430.669 303.024 429.907 303.216 429.055 303.216ZM429.055 301.92C429.583 301.92 430.069 301.794 430.513 301.542C430.957 301.29 431.311 300.906 431.575 300.39C431.851 299.874 431.989 299.244 431.989 298.5C431.989 297.732 431.857 297.096 431.593 296.592C431.329 296.088 430.975 295.71 430.531 295.458C430.087 295.194 429.607 295.062 429.091 295.062C428.587 295.062 428.107 295.194 427.651 295.458C427.207 295.71 426.847 296.088 426.571 296.592C426.295 297.096 426.157 297.732 426.157 298.5C426.157 299.244 426.295 299.874 426.571 300.39C426.847 300.906 427.201 301.29 427.633 301.542C428.077 301.794 428.551 301.92 429.055 301.92ZM436.017 303V293.982H437.385L437.475 295.584C437.763 295.02 438.177 294.576 438.717 294.252C439.257 293.928 439.869 293.766 440.553 293.766C441.249 293.766 441.855 293.91 442.371 294.198C442.887 294.474 443.289 294.9 443.577 295.476C443.865 296.052 444.009 296.778 444.009 297.654V303H442.497V297.816C442.497 296.904 442.299 296.22 441.903 295.764C441.507 295.296 440.943 295.062 440.211 295.062C439.695 295.062 439.233 295.188 438.825 295.44C438.429 295.692 438.111 296.052 437.871 296.52C437.643 296.988 437.529 297.564 437.529 298.248V303H436.017ZM450.115 303.216C449.383 303.216 448.735 303.096 448.171 302.856C447.619 302.604 447.175 302.25 446.839 301.794C446.503 301.338 446.293 300.804 446.209 300.192H447.757C447.829 300.516 447.961 300.81 448.153 301.074C448.345 301.338 448.609 301.548 448.945 301.704C449.281 301.86 449.677 301.938 450.133 301.938C450.565 301.938 450.913 301.878 451.177 301.758C451.453 301.626 451.657 301.458 451.789 301.254C451.933 301.038 452.005 300.804 452.005 300.552C452.005 300.18 451.915 299.898 451.735 299.706C451.567 299.514 451.315 299.364 450.979 299.256C450.643 299.148 450.241 299.052 449.773 298.968C449.389 298.896 449.005 298.8 448.621 298.68C448.249 298.548 447.907 298.392 447.595 298.212C447.295 298.02 447.055 297.78 446.875 297.492C446.695 297.204 446.605 296.85 446.605 296.43C446.605 295.914 446.737 295.458 447.001 295.062C447.277 294.654 447.655 294.336 448.135 294.108C448.627 293.88 449.209 293.766 449.881 293.766C450.841 293.766 451.621 294 452.221 294.468C452.821 294.936 453.175 295.614 453.283 296.502H451.789C451.729 296.046 451.531 295.692 451.195 295.44C450.871 295.176 450.427 295.044 449.863 295.044C449.299 295.044 448.867 295.158 448.567 295.386C448.279 295.614 448.135 295.914 448.135 296.286C448.135 296.526 448.219 296.736 448.387 296.916C448.555 297.096 448.795 297.252 449.107 297.384C449.431 297.504 449.821 297.612 450.277 297.708C450.865 297.816 451.405 297.96 451.897 298.14C452.389 298.32 452.785 298.584 453.085 298.932C453.397 299.28 453.553 299.778 453.553 300.426C453.565 300.978 453.427 301.464 453.139 301.884C452.851 302.304 452.449 302.634 451.933 302.874C451.429 303.102 450.823 303.216 450.115 303.216ZM460.087 303.216C459.235 303.216 458.479 303.024 457.819 302.64C457.159 302.244 456.637 301.692 456.253 300.984C455.881 300.264 455.695 299.436 455.695 298.5C455.695 297.54 455.881 296.712 456.253 296.016C456.625 295.308 457.141 294.756 457.801 294.36C458.473 293.964 459.247 293.766 460.123 293.766C460.999 293.766 461.749 293.964 462.373 294.36C462.997 294.756 463.471 295.272 463.795 295.908C464.131 296.544 464.299 297.24 464.299 297.996C464.299 298.116 464.299 298.248 464.299 298.392C464.299 298.524 464.293 298.674 464.281 298.842H456.829V297.672H462.805C462.769 296.844 462.493 296.202 461.977 295.746C461.473 295.278 460.843 295.044 460.087 295.044C459.571 295.044 459.091 295.164 458.647 295.404C458.203 295.632 457.843 295.968 457.567 296.412C457.303 296.856 457.171 297.414 457.171 298.086V298.59C457.171 299.322 457.309 299.94 457.585 300.444C457.861 300.948 458.221 301.326 458.665 301.578C459.109 301.818 459.583 301.938 460.087 301.938C460.711 301.938 461.227 301.8 461.635 301.524C462.055 301.236 462.361 300.846 462.553 300.354H464.047C463.891 300.906 463.633 301.398 463.273 301.83C462.913 302.25 462.463 302.586 461.923 302.838C461.395 303.09 460.783 303.216 460.087 303.216ZM475.386 303C474.846 303 474.378 302.916 473.982 302.748C473.586 302.58 473.28 302.298 473.064 301.902C472.86 301.494 472.758 300.948 472.758 300.264V295.26H471.192V293.982H472.758L472.956 291.822H474.27V293.982H476.898V295.26H474.27V300.264C474.27 300.828 474.384 301.212 474.612 301.416C474.84 301.608 475.242 301.704 475.818 301.704H476.772V303H475.386ZM479.196 303V293.982H480.564L480.69 295.71C480.882 295.302 481.134 294.954 481.446 294.666C481.77 294.378 482.154 294.156 482.598 294C483.042 293.844 483.546 293.766 484.11 293.766V295.35H483.624C483.228 295.35 482.85 295.404 482.49 295.512C482.142 295.608 481.83 295.77 481.554 295.998C481.29 296.226 481.08 296.538 480.924 296.934C480.78 297.318 480.708 297.804 480.708 298.392V303H479.196ZM489.135 303.216C488.391 303.216 487.773 303.09 487.281 302.838C486.801 302.586 486.441 302.25 486.201 301.83C485.961 301.398 485.841 300.93 485.841 300.426C485.841 299.814 485.997 299.298 486.309 298.878C486.633 298.458 487.083 298.14 487.659 297.924C488.247 297.696 488.931 297.582 489.711 297.582H492.123C492.123 297.018 492.033 296.55 491.853 296.178C491.685 295.806 491.433 295.524 491.097 295.332C490.761 295.14 490.353 295.044 489.873 295.044C489.297 295.044 488.793 295.194 488.361 295.494C487.941 295.782 487.683 296.202 487.587 296.754H486.039C486.111 296.118 486.327 295.578 486.687 295.134C487.059 294.69 487.527 294.354 488.091 294.126C488.655 293.886 489.249 293.766 489.873 293.766C490.701 293.766 491.391 293.922 491.943 294.234C492.507 294.534 492.927 294.96 493.203 295.512C493.491 296.052 493.635 296.694 493.635 297.438V303H492.285L492.195 301.398C492.075 301.65 491.919 301.89 491.727 302.118C491.547 302.334 491.331 302.526 491.079 302.694C490.839 302.85 490.557 302.976 490.233 303.072C489.909 303.168 489.543 303.216 489.135 303.216ZM489.369 301.938C489.801 301.938 490.185 301.854 490.521 301.686C490.857 301.506 491.145 301.266 491.385 300.966C491.637 300.666 491.823 300.33 491.943 299.958C492.063 299.574 492.123 299.184 492.123 298.788V298.752H489.837C489.261 298.752 488.793 298.824 488.433 298.968C488.073 299.1 487.815 299.286 487.659 299.526C487.503 299.766 487.425 300.042 487.425 300.354C487.425 300.678 487.497 300.96 487.641 301.2C487.797 301.44 488.019 301.626 488.307 301.758C488.595 301.878 488.949 301.938 489.369 301.938ZM496.461 303V293.982H497.973V303H496.461ZM497.217 292.038C496.917 292.038 496.665 291.942 496.461 291.75C496.269 291.546 496.173 291.294 496.173 290.994C496.173 290.694 496.269 290.454 496.461 290.274C496.665 290.082 496.917 289.986 497.217 289.986C497.505 289.986 497.751 290.082 497.955 290.274C498.159 290.454 498.261 290.694 498.261 290.994C498.261 291.294 498.159 291.546 497.955 291.75C497.751 291.942 497.505 292.038 497.217 292.038ZM500.965 303V293.982H502.333L502.423 295.584C502.711 295.02 503.125 294.576 503.665 294.252C504.205 293.928 504.817 293.766 505.501 293.766C506.197 293.766 506.803 293.91 507.319 294.198C507.835 294.474 508.237 294.9 508.525 295.476C508.813 296.052 508.957 296.778 508.957 297.654V303H507.445V297.816C507.445 296.904 507.247 296.22 506.851 295.764C506.455 295.296 505.891 295.062 505.159 295.062C504.643 295.062 504.181 295.188 503.773 295.44C503.377 295.692 503.059 296.052 502.819 296.52C502.591 296.988 502.477 297.564 502.477 298.248V303H500.965ZM511.806 303V293.982H513.318V303H511.806ZM512.562 292.038C512.262 292.038 512.01 291.942 511.806 291.75C511.614 291.546 511.518 291.294 511.518 290.994C511.518 290.694 511.614 290.454 511.806 290.274C512.01 290.082 512.262 289.986 512.562 289.986C512.85 289.986 513.096 290.082 513.3 290.274C513.504 290.454 513.606 290.694 513.606 290.994C513.606 291.294 513.504 291.546 513.3 291.75C513.096 291.942 512.85 292.038 512.562 292.038ZM516.31 303V293.982H517.678L517.768 295.584C518.056 295.02 518.47 294.576 519.01 294.252C519.55 293.928 520.162 293.766 520.846 293.766C521.542 293.766 522.148 293.91 522.664 294.198C523.18 294.474 523.582 294.9 523.87 295.476C524.158 296.052 524.302 296.778 524.302 297.654V303H522.79V297.816C522.79 296.904 522.592 296.22 522.196 295.764C521.8 295.296 521.236 295.062 520.504 295.062C519.988 295.062 519.526 295.188 519.118 295.44C518.722 295.692 518.404 296.052 518.164 296.52C517.936 296.988 517.822 297.564 517.822 298.248V303H516.31ZM530.571 307.176C529.755 307.176 529.035 307.068 528.411 306.852C527.787 306.648 527.295 306.33 526.935 305.898C526.587 305.466 526.413 304.932 526.413 304.296C526.413 304.032 526.467 303.744 526.575 303.432C526.695 303.12 526.893 302.814 527.169 302.514C527.457 302.214 527.859 301.944 528.375 301.704L529.419 302.316C528.795 302.58 528.381 302.88 528.177 303.216C527.985 303.552 527.889 303.864 527.889 304.152C527.889 304.548 528.003 304.878 528.231 305.142C528.471 305.406 528.789 305.604 529.185 305.736C529.593 305.868 530.055 305.934 530.571 305.934C531.075 305.934 531.513 305.856 531.885 305.7C532.257 305.556 532.545 305.352 532.749 305.088C532.953 304.824 533.055 304.518 533.055 304.17C533.055 303.762 532.899 303.414 532.587 303.126C532.275 302.85 531.687 302.688 530.823 302.64C530.115 302.592 529.521 302.526 529.041 302.442C528.573 302.358 528.177 302.262 527.853 302.154C527.541 302.034 527.277 301.902 527.061 301.758C526.857 301.614 526.671 301.464 526.503 301.308V300.894L528.267 299.148L529.563 299.616L527.763 301.254L527.997 300.624C528.129 300.72 528.255 300.81 528.375 300.894C528.495 300.978 528.657 301.05 528.861 301.11C529.077 301.17 529.365 301.224 529.725 301.272C530.085 301.32 530.565 301.368 531.165 301.416C531.981 301.476 532.635 301.62 533.127 301.848C533.631 302.076 533.991 302.382 534.207 302.766C534.435 303.15 534.549 303.6 534.549 304.116C534.549 304.62 534.405 305.106 534.117 305.574C533.841 306.042 533.409 306.426 532.821 306.726C532.233 307.026 531.483 307.176 530.571 307.176ZM530.553 300.174C529.797 300.174 529.149 300.03 528.609 299.742C528.081 299.454 527.679 299.07 527.403 298.59C527.127 298.11 526.989 297.57 526.989 296.97C526.989 296.382 527.127 295.848 527.403 295.368C527.691 294.888 528.099 294.504 528.627 294.216C529.155 293.916 529.797 293.766 530.553 293.766C531.309 293.766 531.951 293.916 532.479 294.216C533.007 294.504 533.409 294.888 533.685 295.368C533.961 295.848 534.099 296.382 534.099 296.97C534.099 297.57 533.961 298.11 533.685 298.59C533.409 299.07 533.007 299.454 532.479 299.742C531.951 300.03 531.309 300.174 530.553 300.174ZM530.553 298.932C531.189 298.932 531.693 298.764 532.065 298.428C532.449 298.092 532.641 297.606 532.641 296.97C532.641 296.346 532.449 295.866 532.065 295.53C531.693 295.194 531.189 295.026 530.553 295.026C529.917 295.026 529.401 295.194 529.005 295.53C528.621 295.866 528.429 296.346 528.429 296.97C528.429 297.606 528.621 298.092 529.005 298.428C529.389 298.764 529.905 298.932 530.553 298.932ZM532.011 295.26L531.561 293.982H535.269V295.116L532.011 295.26ZM542.546 298.356V297.078H551.978V298.356H542.546ZM564.121 303.216C563.269 303.216 562.501 303.018 561.817 302.622C561.145 302.226 560.611 301.674 560.215 300.966C559.831 300.258 559.639 299.436 559.639 298.5C559.639 297.552 559.831 296.724 560.215 296.016C560.611 295.308 561.145 294.756 561.817 294.36C562.501 293.964 563.269 293.766 564.121 293.766C565.201 293.766 566.095 294.048 566.803 294.612C567.523 295.164 567.985 295.908 568.189 296.844H566.641C566.509 296.28 566.209 295.842 565.741 295.53C565.273 295.218 564.727 295.062 564.103 295.062C563.599 295.062 563.125 295.194 562.681 295.458C562.237 295.71 561.877 296.094 561.601 296.61C561.325 297.114 561.187 297.744 561.187 298.5C561.187 299.052 561.265 299.544 561.421 299.976C561.589 300.408 561.805 300.774 562.069 301.074C562.345 301.362 562.657 301.578 563.005 301.722C563.365 301.866 563.731 301.938 564.103 301.938C564.523 301.938 564.907 301.872 565.255 301.74C565.603 301.596 565.897 301.392 566.137 301.128C566.389 300.852 566.557 300.528 566.641 300.156H568.189C567.997 301.068 567.535 301.806 566.803 302.37C566.083 302.934 565.189 303.216 564.121 303.216ZM574.728 303.216C573.888 303.216 573.132 303.024 572.46 302.64C571.788 302.244 571.254 301.692 570.858 300.984C570.474 300.276 570.282 299.448 570.282 298.5C570.282 297.54 570.48 296.706 570.876 295.998C571.272 295.29 571.806 294.744 572.478 294.36C573.162 293.964 573.924 293.766 574.764 293.766C575.616 293.766 576.378 293.964 577.05 294.36C577.722 294.744 578.25 295.29 578.634 295.998C579.018 296.706 579.21 297.54 579.21 298.5C579.21 299.448 579.012 300.276 578.616 300.984C578.232 301.692 577.698 302.244 577.014 302.64C576.342 303.024 575.58 303.216 574.728 303.216ZM574.728 301.92C575.256 301.92 575.742 301.794 576.186 301.542C576.63 301.29 576.984 300.906 577.248 300.39C577.524 299.874 577.662 299.244 577.662 298.5C577.662 297.732 577.53 297.096 577.266 296.592C577.002 296.088 576.648 295.71 576.204 295.458C575.76 295.194 575.28 295.062 574.764 295.062C574.26 295.062 573.78 295.194 573.324 295.458C572.88 295.71 572.52 296.088 572.244 296.592C571.968 297.096 571.83 297.732 571.83 298.5C571.83 299.244 571.968 299.874 572.244 300.39C572.52 300.906 572.874 301.29 573.306 301.542C573.75 301.794 574.224 301.92 574.728 301.92ZM581.69 303V293.982H583.058L583.166 295.278C583.454 294.81 583.838 294.444 584.318 294.18C584.798 293.904 585.338 293.766 585.938 293.766C586.394 293.766 586.814 293.832 587.198 293.964C587.582 294.084 587.918 294.276 588.206 294.54C588.494 294.792 588.728 295.116 588.908 295.512C589.22 294.96 589.652 294.534 590.204 294.234C590.756 293.922 591.338 293.766 591.95 293.766C592.658 293.766 593.276 293.91 593.804 294.198C594.332 294.474 594.734 294.9 595.01 295.476C595.298 296.052 595.442 296.778 595.442 297.654V303H593.948V297.816C593.948 296.904 593.762 296.22 593.39 295.764C593.018 295.296 592.49 295.062 591.806 295.062C591.326 295.062 590.9 295.188 590.528 295.44C590.156 295.692 589.862 296.052 589.646 296.52C589.43 296.988 589.322 297.564 589.322 298.248V303H587.81V297.816C587.81 296.904 587.624 296.22 587.252 295.764C586.88 295.296 586.352 295.062 585.668 295.062C585.212 295.062 584.792 295.188 584.408 295.44C584.036 295.692 583.742 296.052 583.526 296.52C583.31 296.988 583.202 297.564 583.202 298.248V303H581.69ZM598.116 306.96V293.982H599.484L599.628 295.458C599.82 295.17 600.066 294.9 600.366 294.648C600.666 294.384 601.026 294.174 601.446 294.018C601.866 293.85 602.352 293.766 602.904 293.766C603.78 293.766 604.542 293.976 605.19 294.396C605.85 294.804 606.366 295.368 606.738 296.088C607.11 296.796 607.296 297.606 607.296 298.518C607.296 299.418 607.11 300.222 606.738 300.93C606.366 301.638 605.85 302.196 605.19 302.604C604.53 303.012 603.762 303.216 602.886 303.216C602.154 303.216 601.506 303.066 600.942 302.766C600.378 302.466 599.94 302.046 599.628 301.506V306.96H598.116ZM602.724 301.902C603.312 301.902 603.834 301.764 604.29 301.488C604.746 301.2 605.1 300.804 605.352 300.3C605.616 299.784 605.748 299.184 605.748 298.5C605.748 297.816 605.616 297.222 605.352 296.718C605.1 296.202 604.746 295.8 604.29 295.512C603.834 295.224 603.312 295.08 602.724 295.08C602.124 295.08 601.59 295.224 601.122 295.512C600.666 295.8 600.306 296.202 600.042 296.718C599.79 297.222 599.664 297.816 599.664 298.5C599.664 299.184 599.79 299.784 600.042 300.3C600.306 300.804 600.666 301.2 601.122 301.488C601.59 301.764 602.124 301.902 602.724 301.902ZM609.761 303V290.04H611.273V303H609.761ZM618.143 303.216C617.291 303.216 616.535 303.024 615.875 302.64C615.215 302.244 614.693 301.692 614.309 300.984C613.937 300.264 613.751 299.436 613.751 298.5C613.751 297.54 613.937 296.712 614.309 296.016C614.681 295.308 615.197 294.756 615.857 294.36C616.529 293.964 617.303 293.766 618.179 293.766C619.055 293.766 619.805 293.964 620.429 294.36C621.053 294.756 621.527 295.272 621.851 295.908C622.187 296.544 622.355 297.24 622.355 297.996C622.355 298.116 622.355 298.248 622.355 298.392C622.355 298.524 622.349 298.674 622.337 298.842H614.885V297.672H620.861C620.825 296.844 620.549 296.202 620.033 295.746C619.529 295.278 618.899 295.044 618.143 295.044C617.627 295.044 617.147 295.164 616.703 295.404C616.259 295.632 615.899 295.968 615.623 296.412C615.359 296.856 615.227 297.414 615.227 298.086V298.59C615.227 299.322 615.365 299.94 615.641 300.444C615.917 300.948 616.277 301.326 616.721 301.578C617.165 301.818 617.639 301.938 618.143 301.938C618.767 301.938 619.283 301.8 619.691 301.524C620.111 301.236 620.417 300.846 620.609 300.354H622.103C621.947 300.906 621.689 301.398 621.329 301.83C620.969 302.25 620.519 302.586 619.979 302.838C619.451 303.09 618.839 303.216 618.143 303.216ZM628.002 303C627.462 303 626.994 302.916 626.598 302.748C626.202 302.58 625.896 302.298 625.68 301.902C625.476 301.494 625.374 300.948 625.374 300.264V295.26H623.808V293.982H625.374L625.572 291.822H626.886V293.982H629.514V295.26H626.886V300.264C626.886 300.828 627 301.212 627.228 301.416C627.456 301.608 627.858 301.704 628.434 301.704H629.388V303H628.002ZM635.58 303.216C634.728 303.216 633.972 303.024 633.312 302.64C632.652 302.244 632.13 301.692 631.746 300.984C631.374 300.264 631.188 299.436 631.188 298.5C631.188 297.54 631.374 296.712 631.746 296.016C632.118 295.308 632.634 294.756 633.294 294.36C633.966 293.964 634.74 293.766 635.616 293.766C636.492 293.766 637.242 293.964 637.866 294.36C638.49 294.756 638.964 295.272 639.288 295.908C639.624 296.544 639.792 297.24 639.792 297.996C639.792 298.116 639.792 298.248 639.792 298.392C639.792 298.524 639.786 298.674 639.774 298.842H632.322V297.672H638.298C638.262 296.844 637.986 296.202 637.47 295.746C636.966 295.278 636.336 295.044 635.58 295.044C635.064 295.044 634.584 295.164 634.14 295.404C633.696 295.632 633.336 295.968 633.06 296.412C632.796 296.856 632.664 297.414 632.664 298.086V298.59C632.664 299.322 632.802 299.94 633.078 300.444C633.354 300.948 633.714 301.326 634.158 301.578C634.602 301.818 635.076 301.938 635.58 301.938C636.204 301.938 636.72 301.8 637.128 301.524C637.548 301.236 637.854 300.846 638.046 300.354H639.54C639.384 300.906 639.126 301.398 638.766 301.83C638.406 302.25 637.956 302.586 637.416 302.838C636.888 303.09 636.276 303.216 635.58 303.216ZM646.206 303.216C645.33 303.216 644.556 303.012 643.884 302.604C643.224 302.184 642.708 301.62 642.336 300.912C641.976 300.192 641.796 299.382 641.796 298.482C641.796 297.57 641.976 296.76 642.336 296.052C642.708 295.344 643.23 294.786 643.902 294.378C644.574 293.97 645.348 293.766 646.224 293.766C646.956 293.766 647.604 293.916 648.168 294.216C648.732 294.516 649.164 294.936 649.464 295.476V290.04H650.976V303H649.608L649.482 301.524C649.29 301.812 649.044 302.088 648.744 302.352C648.444 302.604 648.084 302.814 647.664 302.982C647.244 303.138 646.758 303.216 646.206 303.216ZM646.368 301.902C646.968 301.902 647.496 301.764 647.952 301.488C648.42 301.2 648.78 300.804 649.032 300.3C649.284 299.784 649.41 299.184 649.41 298.5C649.41 297.816 649.284 297.222 649.032 296.718C648.78 296.202 648.42 295.8 647.952 295.512C647.496 295.224 646.968 295.08 646.368 295.08C645.792 295.08 645.27 295.224 644.802 295.512C644.346 295.8 643.986 296.202 643.722 296.718C643.47 297.222 643.344 297.816 643.344 298.5C643.344 299.184 643.47 299.784 643.722 300.3C643.986 300.804 644.346 301.2 644.802 301.488C645.27 301.764 645.792 301.902 646.368 301.902Z" fill="#A192FE"/>
</g>
<rect x="193" y="154" width="311" height="48" rx="24" fill="url(#paint3_linear_536_4391)"/>
<rect x="193.5" y="154.5" width="310" height="47" rx="23.5" stroke="white" stroke-opacity="0.3"/>
<g filter="url(#filter3_d_536_4391)">
<path d="M210.332 184V171.4H214.4C215.384 171.4 216.188 171.568 216.812 171.904C217.436 172.228 217.898 172.666 218.198 173.218C218.498 173.77 218.648 174.394 218.648 175.09C218.648 175.762 218.492 176.38 218.18 176.944C217.88 177.508 217.412 177.958 216.776 178.294C216.14 178.63 215.324 178.798 214.328 178.798H211.844V184H210.332ZM216.992 184L214.22 178.366H215.912L218.774 184H216.992ZM211.844 177.61H214.292C215.252 177.61 215.954 177.376 216.398 176.908C216.854 176.44 217.082 175.84 217.082 175.108C217.082 174.364 216.86 173.776 216.416 173.344C215.984 172.9 215.27 172.678 214.274 172.678H211.844V177.61ZM224.759 184.216C223.907 184.216 223.151 184.024 222.491 183.64C221.831 183.244 221.309 182.692 220.925 181.984C220.553 181.264 220.367 180.436 220.367 179.5C220.367 178.54 220.553 177.712 220.925 177.016C221.297 176.308 221.813 175.756 222.473 175.36C223.145 174.964 223.919 174.766 224.795 174.766C225.671 174.766 226.421 174.964 227.045 175.36C227.669 175.756 228.143 176.272 228.467 176.908C228.803 177.544 228.971 178.24 228.971 178.996C228.971 179.116 228.971 179.248 228.971 179.392C228.971 179.524 228.965 179.674 228.953 179.842H221.501V178.672H227.477C227.441 177.844 227.165 177.202 226.649 176.746C226.145 176.278 225.515 176.044 224.759 176.044C224.243 176.044 223.763 176.164 223.319 176.404C222.875 176.632 222.515 176.968 222.239 177.412C221.975 177.856 221.843 178.414 221.843 179.086V179.59C221.843 180.322 221.981 180.94 222.257 181.444C222.533 181.948 222.893 182.326 223.337 182.578C223.781 182.818 224.255 182.938 224.759 182.938C225.383 182.938 225.899 182.8 226.307 182.524C226.727 182.236 227.033 181.846 227.225 181.354H228.719C228.563 181.906 228.305 182.398 227.945 182.83C227.585 183.25 227.135 183.586 226.595 183.838C226.067 184.09 225.455 184.216 224.759 184.216ZM234.773 184.216C234.041 184.216 233.393 184.096 232.829 183.856C232.277 183.604 231.833 183.25 231.497 182.794C231.161 182.338 230.951 181.804 230.867 181.192H232.415C232.487 181.516 232.619 181.81 232.811 182.074C233.003 182.338 233.267 182.548 233.603 182.704C233.939 182.86 234.335 182.938 234.791 182.938C235.223 182.938 235.571 182.878 235.835 182.758C236.111 182.626 236.315 182.458 236.447 182.254C236.591 182.038 236.663 181.804 236.663 181.552C236.663 181.18 236.573 180.898 236.393 180.706C236.225 180.514 235.973 180.364 235.637 180.256C235.301 180.148 234.899 180.052 234.431 179.968C234.047 179.896 233.663 179.8 233.279 179.68C232.907 179.548 232.565 179.392 232.253 179.212C231.953 179.02 231.713 178.78 231.533 178.492C231.353 178.204 231.263 177.85 231.263 177.43C231.263 176.914 231.395 176.458 231.659 176.062C231.935 175.654 232.313 175.336 232.793 175.108C233.285 174.88 233.867 174.766 234.539 174.766C235.499 174.766 236.279 175 236.879 175.468C237.479 175.936 237.833 176.614 237.941 177.502H236.447C236.387 177.046 236.189 176.692 235.853 176.44C235.529 176.176 235.085 176.044 234.521 176.044C233.957 176.044 233.525 176.158 233.225 176.386C232.937 176.614 232.793 176.914 232.793 177.286C232.793 177.526 232.877 177.736 233.045 177.916C233.213 178.096 233.453 178.252 233.765 178.384C234.089 178.504 234.479 178.612 234.935 178.708C235.523 178.816 236.063 178.96 236.555 179.14C237.047 179.32 237.443 179.584 237.743 179.932C238.055 180.28 238.211 180.778 238.211 181.426C238.223 181.978 238.085 182.464 237.797 182.884C237.509 183.304 237.107 183.634 236.591 183.874C236.087 184.102 235.481 184.216 234.773 184.216ZM240.73 187.96V174.982H242.098L242.242 176.458C242.434 176.17 242.68 175.9 242.98 175.648C243.28 175.384 243.64 175.174 244.06 175.018C244.48 174.85 244.966 174.766 245.518 174.766C246.394 174.766 247.156 174.976 247.804 175.396C248.464 175.804 248.98 176.368 249.352 177.088C249.724 177.796 249.91 178.606 249.91 179.518C249.91 180.418 249.724 181.222 249.352 181.93C248.98 182.638 248.464 183.196 247.804 183.604C247.144 184.012 246.376 184.216 245.5 184.216C244.768 184.216 244.12 184.066 243.556 183.766C242.992 183.466 242.554 183.046 242.242 182.506V187.96H240.73ZM245.338 182.902C245.926 182.902 246.448 182.764 246.904 182.488C247.36 182.2 247.714 181.804 247.966 181.3C248.23 180.784 248.362 180.184 248.362 179.5C248.362 178.816 248.23 178.222 247.966 177.718C247.714 177.202 247.36 176.8 246.904 176.512C246.448 176.224 245.926 176.08 245.338 176.08C244.738 176.08 244.204 176.224 243.736 176.512C243.28 176.8 242.92 177.202 242.656 177.718C242.404 178.222 242.278 178.816 242.278 179.5C242.278 180.184 242.404 180.784 242.656 181.3C242.92 181.804 243.28 182.2 243.736 182.488C244.204 182.764 244.738 182.902 245.338 182.902ZM256.443 184.216C255.603 184.216 254.847 184.024 254.175 183.64C253.503 183.244 252.969 182.692 252.573 181.984C252.189 181.276 251.997 180.448 251.997 179.5C251.997 178.54 252.195 177.706 252.591 176.998C252.987 176.29 253.521 175.744 254.193 175.36C254.877 174.964 255.639 174.766 256.479 174.766C257.331 174.766 258.093 174.964 258.765 175.36C259.437 175.744 259.965 176.29 260.349 176.998C260.733 177.706 260.925 178.54 260.925 179.5C260.925 180.448 260.727 181.276 260.331 181.984C259.947 182.692 259.413 183.244 258.729 183.64C258.057 184.024 257.295 184.216 256.443 184.216ZM256.443 182.92C256.971 182.92 257.457 182.794 257.901 182.542C258.345 182.29 258.699 181.906 258.963 181.39C259.239 180.874 259.377 180.244 259.377 179.5C259.377 178.732 259.245 178.096 258.981 177.592C258.717 177.088 258.363 176.71 257.919 176.458C257.475 176.194 256.995 176.062 256.479 176.062C255.975 176.062 255.495 176.194 255.039 176.458C254.595 176.71 254.235 177.088 253.959 177.592C253.683 178.096 253.545 178.732 253.545 179.5C253.545 180.244 253.683 180.874 253.959 181.39C254.235 181.906 254.589 182.29 255.021 182.542C255.465 182.794 255.939 182.92 256.443 182.92ZM263.405 184V174.982H264.773L264.863 176.584C265.151 176.02 265.565 175.576 266.105 175.252C266.645 174.928 267.257 174.766 267.941 174.766C268.637 174.766 269.243 174.91 269.759 175.198C270.275 175.474 270.677 175.9 270.965 176.476C271.253 177.052 271.397 177.778 271.397 178.654V184H269.885V178.816C269.885 177.904 269.687 177.22 269.291 176.764C268.895 176.296 268.331 176.062 267.599 176.062C267.083 176.062 266.621 176.188 266.213 176.44C265.817 176.692 265.499 177.052 265.259 177.52C265.031 177.988 264.917 178.564 264.917 179.248V184H263.405ZM277.504 184.216C276.772 184.216 276.124 184.096 275.56 183.856C275.008 183.604 274.564 183.25 274.228 182.794C273.892 182.338 273.682 181.804 273.598 181.192H275.146C275.218 181.516 275.35 181.81 275.542 182.074C275.734 182.338 275.998 182.548 276.334 182.704C276.67 182.86 277.066 182.938 277.522 182.938C277.954 182.938 278.302 182.878 278.566 182.758C278.842 182.626 279.046 182.458 279.178 182.254C279.322 182.038 279.394 181.804 279.394 181.552C279.394 181.18 279.304 180.898 279.124 180.706C278.956 180.514 278.704 180.364 278.368 180.256C278.032 180.148 277.63 180.052 277.162 179.968C276.778 179.896 276.394 179.8 276.01 179.68C275.638 179.548 275.296 179.392 274.984 179.212C274.684 179.02 274.444 178.78 274.264 178.492C274.084 178.204 273.994 177.85 273.994 177.43C273.994 176.914 274.126 176.458 274.39 176.062C274.666 175.654 275.044 175.336 275.524 175.108C276.016 174.88 276.598 174.766 277.27 174.766C278.23 174.766 279.01 175 279.61 175.468C280.21 175.936 280.564 176.614 280.672 177.502H279.178C279.118 177.046 278.92 176.692 278.584 176.44C278.26 176.176 277.816 176.044 277.252 176.044C276.688 176.044 276.256 176.158 275.956 176.386C275.668 176.614 275.524 176.914 275.524 177.286C275.524 177.526 275.608 177.736 275.776 177.916C275.944 178.096 276.184 178.252 276.496 178.384C276.82 178.504 277.21 178.612 277.666 178.708C278.254 178.816 278.794 178.96 279.286 179.14C279.778 179.32 280.174 179.584 280.474 179.932C280.786 180.28 280.942 180.778 280.942 181.426C280.954 181.978 280.816 182.464 280.528 182.884C280.24 183.304 279.838 183.634 279.322 183.874C278.818 184.102 278.212 184.216 277.504 184.216ZM287.475 184.216C286.623 184.216 285.867 184.024 285.207 183.64C284.547 183.244 284.025 182.692 283.641 181.984C283.269 181.264 283.083 180.436 283.083 179.5C283.083 178.54 283.269 177.712 283.641 177.016C284.013 176.308 284.529 175.756 285.189 175.36C285.861 174.964 286.635 174.766 287.511 174.766C288.387 174.766 289.137 174.964 289.761 175.36C290.385 175.756 290.859 176.272 291.183 176.908C291.519 177.544 291.687 178.24 291.687 178.996C291.687 179.116 291.687 179.248 291.687 179.392C291.687 179.524 291.681 179.674 291.669 179.842H284.217V178.672H290.193C290.157 177.844 289.881 177.202 289.365 176.746C288.861 176.278 288.231 176.044 287.475 176.044C286.959 176.044 286.479 176.164 286.035 176.404C285.591 176.632 285.231 176.968 284.955 177.412C284.691 177.856 284.559 178.414 284.559 179.086V179.59C284.559 180.322 284.697 180.94 284.973 181.444C285.249 181.948 285.609 182.326 286.053 182.578C286.497 182.818 286.971 182.938 287.475 182.938C288.099 182.938 288.615 182.8 289.023 182.524C289.443 182.236 289.749 181.846 289.941 181.354H291.435C291.279 181.906 291.021 182.398 290.661 182.83C290.301 183.25 289.851 183.586 289.311 183.838C288.783 184.09 288.171 184.216 287.475 184.216ZM302.775 184C302.235 184 301.767 183.916 301.371 183.748C300.975 183.58 300.669 183.298 300.453 182.902C300.249 182.494 300.147 181.948 300.147 181.264V176.26H298.581V174.982H300.147L300.345 172.822H301.659V174.982H304.287V176.26H301.659V181.264C301.659 181.828 301.773 182.212 302.001 182.416C302.229 182.608 302.631 182.704 303.207 182.704H304.161V184H302.775ZM306.746 184V174.982H308.258V184H306.746ZM307.502 173.038C307.202 173.038 306.95 172.942 306.746 172.75C306.554 172.546 306.458 172.294 306.458 171.994C306.458 171.694 306.554 171.454 306.746 171.274C306.95 171.082 307.202 170.986 307.502 170.986C307.79 170.986 308.036 171.082 308.24 171.274C308.444 171.454 308.546 171.694 308.546 171.994C308.546 172.294 308.444 172.546 308.24 172.75C308.036 172.942 307.79 173.038 307.502 173.038ZM311.251 184V174.982H312.619L312.727 176.278C313.015 175.81 313.399 175.444 313.879 175.18C314.359 174.904 314.899 174.766 315.499 174.766C315.955 174.766 316.375 174.832 316.759 174.964C317.143 175.084 317.479 175.276 317.767 175.54C318.055 175.792 318.289 176.116 318.469 176.512C318.781 175.96 319.213 175.534 319.765 175.234C320.317 174.922 320.899 174.766 321.511 174.766C322.219 174.766 322.837 174.91 323.365 175.198C323.893 175.474 324.295 175.9 324.571 176.476C324.859 177.052 325.003 177.778 325.003 178.654V184H323.509V178.816C323.509 177.904 323.323 177.22 322.951 176.764C322.579 176.296 322.051 176.062 321.367 176.062C320.887 176.062 320.461 176.188 320.089 176.44C319.717 176.692 319.423 177.052 319.207 177.52C318.991 177.988 318.883 178.564 318.883 179.248V184H317.371V178.816C317.371 177.904 317.185 177.22 316.813 176.764C316.441 176.296 315.913 176.062 315.229 176.062C314.773 176.062 314.353 176.188 313.969 176.44C313.597 176.692 313.303 177.052 313.087 177.52C312.871 177.988 312.763 178.564 312.763 179.248V184H311.251ZM331.691 184.216C330.839 184.216 330.083 184.024 329.423 183.64C328.763 183.244 328.241 182.692 327.857 181.984C327.485 181.264 327.299 180.436 327.299 179.5C327.299 178.54 327.485 177.712 327.857 177.016C328.229 176.308 328.745 175.756 329.405 175.36C330.077 174.964 330.851 174.766 331.727 174.766C332.603 174.766 333.353 174.964 333.977 175.36C334.601 175.756 335.075 176.272 335.399 176.908C335.735 177.544 335.903 178.24 335.903 178.996C335.903 179.116 335.903 179.248 335.903 179.392C335.903 179.524 335.897 179.674 335.885 179.842H328.433V178.672H334.409C334.373 177.844 334.097 177.202 333.581 176.746C333.077 176.278 332.447 176.044 331.691 176.044C331.175 176.044 330.695 176.164 330.251 176.404C329.807 176.632 329.447 176.968 329.171 177.412C328.907 177.856 328.775 178.414 328.775 179.086V179.59C328.775 180.322 328.913 180.94 329.189 181.444C329.465 181.948 329.825 182.326 330.269 182.578C330.713 182.818 331.187 182.938 331.691 182.938C332.315 182.938 332.831 182.8 333.239 182.524C333.659 182.236 333.965 181.846 334.157 181.354H335.651C335.495 181.906 335.237 182.398 334.877 182.83C334.517 183.25 334.067 183.586 333.527 183.838C332.999 184.09 332.387 184.216 331.691 184.216ZM338.825 184.09C338.525 184.09 338.273 183.994 338.069 183.802C337.877 183.598 337.781 183.352 337.781 183.064C337.781 182.776 337.877 182.536 338.069 182.344C338.273 182.14 338.525 182.038 338.825 182.038C339.125 182.038 339.371 182.14 339.563 182.344C339.755 182.536 339.851 182.776 339.851 183.064C339.851 183.352 339.755 183.598 339.563 183.802C339.371 183.994 339.125 184.09 338.825 184.09ZM338.825 176.818C338.525 176.818 338.273 176.722 338.069 176.53C337.877 176.326 337.781 176.08 337.781 175.792C337.781 175.504 337.877 175.264 338.069 175.072C338.273 174.868 338.525 174.766 338.825 174.766C339.125 174.766 339.371 174.868 339.563 175.072C339.755 175.264 339.851 175.504 339.851 175.792C339.851 176.08 339.755 176.326 339.563 176.53C339.371 176.722 339.125 176.818 338.825 176.818ZM350.702 184.216C350.006 184.216 349.394 184.078 348.866 183.802C348.35 183.514 347.948 183.082 347.66 182.506C347.384 181.93 347.246 181.204 347.246 180.328V174.982H348.758V180.166C348.758 181.09 348.95 181.78 349.334 182.236C349.73 182.692 350.294 182.92 351.026 182.92C351.542 182.92 351.998 182.8 352.394 182.56C352.802 182.308 353.12 181.948 353.348 181.48C353.588 181 353.708 180.424 353.708 179.752V174.982H355.22V184H353.852L353.762 182.416C353.486 182.98 353.078 183.424 352.538 183.748C351.998 184.06 351.386 184.216 350.702 184.216ZM358.086 184V174.982H359.454L359.544 176.584C359.832 176.02 360.246 175.576 360.786 175.252C361.326 174.928 361.938 174.766 362.622 174.766C363.318 174.766 363.924 174.91 364.44 175.198C364.956 175.474 365.358 175.9 365.646 176.476C365.934 177.052 366.078 177.778 366.078 178.654V184H364.566V178.816C364.566 177.904 364.368 177.22 363.972 176.764C363.576 176.296 363.012 176.062 362.28 176.062C361.764 176.062 361.302 176.188 360.894 176.44C360.498 176.692 360.18 177.052 359.94 177.52C359.712 177.988 359.598 178.564 359.598 179.248V184H358.086ZM372.796 184.216C371.92 184.216 371.146 184.012 370.474 183.604C369.814 183.184 369.298 182.62 368.926 181.912C368.566 181.192 368.386 180.382 368.386 179.482C368.386 178.57 368.566 177.76 368.926 177.052C369.298 176.344 369.82 175.786 370.492 175.378C371.164 174.97 371.938 174.766 372.814 174.766C373.546 174.766 374.194 174.916 374.758 175.216C375.322 175.516 375.754 175.936 376.054 176.476V171.04H377.566V184H376.198L376.072 182.524C375.88 182.812 375.634 183.088 375.334 183.352C375.034 183.604 374.674 183.814 374.254 183.982C373.834 184.138 373.348 184.216 372.796 184.216ZM372.958 182.902C373.558 182.902 374.086 182.764 374.542 182.488C375.01 182.2 375.37 181.804 375.622 181.3C375.874 180.784 376 180.184 376 179.5C376 178.816 375.874 178.222 375.622 177.718C375.37 177.202 375.01 176.8 374.542 176.512C374.086 176.224 373.558 176.08 372.958 176.08C372.382 176.08 371.86 176.224 371.392 176.512C370.936 176.8 370.576 177.202 370.312 177.718C370.06 178.222 369.934 178.816 369.934 179.5C369.934 180.184 370.06 180.784 370.312 181.3C370.576 181.804 370.936 182.2 371.392 182.488C371.86 182.764 372.382 182.902 372.958 182.902ZM384.441 184.216C383.589 184.216 382.833 184.024 382.173 183.64C381.513 183.244 380.991 182.692 380.607 181.984C380.235 181.264 380.049 180.436 380.049 179.5C380.049 178.54 380.235 177.712 380.607 177.016C380.979 176.308 381.495 175.756 382.155 175.36C382.827 174.964 383.601 174.766 384.477 174.766C385.353 174.766 386.103 174.964 386.727 175.36C387.351 175.756 387.825 176.272 388.149 176.908C388.485 177.544 388.653 178.24 388.653 178.996C388.653 179.116 388.653 179.248 388.653 179.392C388.653 179.524 388.647 179.674 388.635 179.842H381.183V178.672H387.159C387.123 177.844 386.847 177.202 386.331 176.746C385.827 176.278 385.197 176.044 384.441 176.044C383.925 176.044 383.445 176.164 383.001 176.404C382.557 176.632 382.197 176.968 381.921 177.412C381.657 177.856 381.525 178.414 381.525 179.086V179.59C381.525 180.322 381.663 180.94 381.939 181.444C382.215 181.948 382.575 182.326 383.019 182.578C383.463 182.818 383.937 182.938 384.441 182.938C385.065 182.938 385.581 182.8 385.989 182.524C386.409 182.236 386.715 181.846 386.907 181.354H388.401C388.245 181.906 387.987 182.398 387.627 182.83C387.267 183.25 386.817 183.586 386.277 183.838C385.749 184.09 385.137 184.216 384.441 184.216ZM391.035 184V174.982H392.403L392.529 176.71C392.721 176.302 392.973 175.954 393.285 175.666C393.609 175.378 393.993 175.156 394.437 175C394.881 174.844 395.385 174.766 395.949 174.766V176.35H395.463C395.067 176.35 394.689 176.404 394.329 176.512C393.981 176.608 393.669 176.77 393.393 176.998C393.129 177.226 392.919 177.538 392.763 177.934C392.619 178.318 392.547 178.804 392.547 179.392V184H391.035ZM407.502 184.216C406.65 184.216 405.906 184.06 405.27 183.748C404.634 183.424 404.13 182.992 403.758 182.452C403.398 181.912 403.17 181.306 403.074 180.634H404.55C404.694 181.318 405.024 181.87 405.54 182.29C406.068 182.71 406.728 182.92 407.52 182.92C408.12 182.92 408.636 182.782 409.068 182.506C409.5 182.218 409.83 181.834 410.058 181.354C410.298 180.874 410.418 180.34 410.418 179.752C410.418 179.14 410.298 178.6 410.058 178.132C409.818 177.664 409.488 177.304 409.068 177.052C408.648 176.788 408.156 176.656 407.592 176.656C406.896 176.656 406.302 176.806 405.81 177.106C405.33 177.406 404.976 177.802 404.748 178.294H403.29L404.352 171.4H410.976V172.714H405.522L404.802 176.566C405.102 176.218 405.504 175.936 406.008 175.72C406.512 175.492 407.094 175.378 407.754 175.378C408.378 175.378 408.936 175.486 409.428 175.702C409.932 175.918 410.364 176.224 410.724 176.62C411.096 177.016 411.378 177.484 411.57 178.024C411.774 178.552 411.876 179.122 411.876 179.734C411.876 180.346 411.774 180.922 411.57 181.462C411.378 182.002 411.096 182.482 410.724 182.902C410.352 183.31 409.896 183.634 409.356 183.874C408.816 184.102 408.198 184.216 407.502 184.216ZM419.651 184V174.982H421.019L421.127 176.278C421.415 175.81 421.799 175.444 422.279 175.18C422.759 174.904 423.299 174.766 423.899 174.766C424.355 174.766 424.775 174.832 425.159 174.964C425.543 175.084 425.879 175.276 426.167 175.54C426.455 175.792 426.689 176.116 426.869 176.512C427.181 175.96 427.613 175.534 428.165 175.234C428.717 174.922 429.299 174.766 429.911 174.766C430.619 174.766 431.237 174.91 431.765 175.198C432.293 175.474 432.695 175.9 432.971 176.476C433.259 177.052 433.403 177.778 433.403 178.654V184H431.909V178.816C431.909 177.904 431.723 177.22 431.351 176.764C430.979 176.296 430.451 176.062 429.767 176.062C429.287 176.062 428.861 176.188 428.489 176.44C428.117 176.692 427.823 177.052 427.607 177.52C427.391 177.988 427.283 178.564 427.283 179.248V184H425.771V178.816C425.771 177.904 425.585 177.22 425.213 176.764C424.841 176.296 424.313 176.062 423.629 176.062C423.173 176.062 422.753 176.188 422.369 176.44C421.997 176.692 421.703 177.052 421.487 177.52C421.271 177.988 421.163 178.564 421.163 179.248V184H419.651ZM436.239 184V174.982H437.751V184H436.239ZM436.995 173.038C436.695 173.038 436.443 172.942 436.239 172.75C436.047 172.546 435.951 172.294 435.951 171.994C435.951 171.694 436.047 171.454 436.239 171.274C436.443 171.082 436.695 170.986 436.995 170.986C437.283 170.986 437.529 171.082 437.733 171.274C437.937 171.454 438.039 171.694 438.039 171.994C438.039 172.294 437.937 172.546 437.733 172.75C437.529 172.942 437.283 173.038 436.995 173.038ZM440.744 184V174.982H442.112L442.202 176.584C442.49 176.02 442.904 175.576 443.444 175.252C443.984 174.928 444.596 174.766 445.28 174.766C445.976 174.766 446.582 174.91 447.098 175.198C447.614 175.474 448.016 175.9 448.304 176.476C448.592 177.052 448.736 177.778 448.736 178.654V184H447.224V178.816C447.224 177.904 447.026 177.22 446.63 176.764C446.234 176.296 445.67 176.062 444.938 176.062C444.422 176.062 443.96 176.188 443.552 176.44C443.156 176.692 442.838 177.052 442.598 177.52C442.37 177.988 442.256 178.564 442.256 179.248V184H440.744ZM454.716 184.216C454.02 184.216 453.408 184.078 452.88 183.802C452.364 183.514 451.962 183.082 451.674 182.506C451.398 181.93 451.26 181.204 451.26 180.328V174.982H452.772V180.166C452.772 181.09 452.964 181.78 453.348 182.236C453.744 182.692 454.308 182.92 455.04 182.92C455.556 182.92 456.012 182.8 456.408 182.56C456.816 182.308 457.134 181.948 457.362 181.48C457.602 181 457.722 180.424 457.722 179.752V174.982H459.234V184H457.866L457.776 182.416C457.5 182.98 457.092 183.424 456.552 183.748C456.012 184.06 455.4 184.216 454.716 184.216ZM465.665 184C465.125 184 464.657 183.916 464.261 183.748C463.865 183.58 463.559 183.298 463.343 182.902C463.139 182.494 463.037 181.948 463.037 181.264V176.26H461.471V174.982H463.037L463.235 172.822H464.549V174.982H467.177V176.26H464.549V181.264C464.549 181.828 464.663 182.212 464.891 182.416C465.119 182.608 465.521 182.704 466.097 182.704H467.051V184H465.665ZM473.242 184.216C472.39 184.216 471.634 184.024 470.974 183.64C470.314 183.244 469.792 182.692 469.408 181.984C469.036 181.264 468.85 180.436 468.85 179.5C468.85 178.54 469.036 177.712 469.408 177.016C469.78 176.308 470.296 175.756 470.956 175.36C471.628 174.964 472.402 174.766 473.278 174.766C474.154 174.766 474.904 174.964 475.528 175.36C476.152 175.756 476.626 176.272 476.95 176.908C477.286 177.544 477.454 178.24 477.454 178.996C477.454 179.116 477.454 179.248 477.454 179.392C477.454 179.524 477.448 179.674 477.436 179.842H469.984V178.672H475.96C475.924 177.844 475.648 177.202 475.132 176.746C474.628 176.278 473.998 176.044 473.242 176.044C472.726 176.044 472.246 176.164 471.802 176.404C471.358 176.632 470.998 176.968 470.722 177.412C470.458 177.856 470.326 178.414 470.326 179.086V179.59C470.326 180.322 470.464 180.94 470.74 181.444C471.016 181.948 471.376 182.326 471.82 182.578C472.264 182.818 472.738 182.938 473.242 182.938C473.866 182.938 474.382 182.8 474.79 182.524C475.21 182.236 475.516 181.846 475.708 181.354H477.202C477.046 181.906 476.788 182.398 476.428 182.83C476.068 183.25 475.618 183.586 475.078 183.838C474.55 184.09 473.938 184.216 473.242 184.216ZM483.256 184.216C482.524 184.216 481.876 184.096 481.312 183.856C480.76 183.604 480.316 183.25 479.98 182.794C479.644 182.338 479.434 181.804 479.35 181.192H480.898C480.97 181.516 481.102 181.81 481.294 182.074C481.486 182.338 481.75 182.548 482.086 182.704C482.422 182.86 482.818 182.938 483.274 182.938C483.706 182.938 484.054 182.878 484.318 182.758C484.594 182.626 484.798 182.458 484.93 182.254C485.074 182.038 485.146 181.804 485.146 181.552C485.146 181.18 485.056 180.898 484.876 180.706C484.708 180.514 484.456 180.364 484.12 180.256C483.784 180.148 483.382 180.052 482.914 179.968C482.53 179.896 482.146 179.8 481.762 179.68C481.39 179.548 481.048 179.392 480.736 179.212C480.436 179.02 480.196 178.78 480.016 178.492C479.836 178.204 479.746 177.85 479.746 177.43C479.746 176.914 479.878 176.458 480.142 176.062C480.418 175.654 480.796 175.336 481.276 175.108C481.768 174.88 482.35 174.766 483.022 174.766C483.982 174.766 484.762 175 485.362 175.468C485.962 175.936 486.316 176.614 486.424 177.502H484.93C484.87 177.046 484.672 176.692 484.336 176.44C484.012 176.176 483.568 176.044 483.004 176.044C482.44 176.044 482.008 176.158 481.708 176.386C481.42 176.614 481.276 176.914 481.276 177.286C481.276 177.526 481.36 177.736 481.528 177.916C481.696 178.096 481.936 178.252 482.248 178.384C482.572 178.504 482.962 178.612 483.418 178.708C484.006 178.816 484.546 178.96 485.038 179.14C485.53 179.32 485.926 179.584 486.226 179.932C486.538 180.28 486.694 180.778 486.694 181.426C486.706 181.978 486.568 182.464 486.28 182.884C485.992 183.304 485.59 183.634 485.074 183.874C484.57 184.102 483.964 184.216 483.256 184.216Z" fill="#A192FE"/>
</g>
<defs>
<filter id="filter0_d_536_4391" x="94.3281" y="243.04" width="186.602" height="21.1758" filterUnits="userSpaceOnUse" color-interpolation-filters="sRGB">
<feFlood flood-opacity="0" result="BackgroundImageFix"/>
<feColorMatrix in="SourceAlpha" type="matrix" values="0 0 0 0 0 0 0 0 0 0 0 0 0 0 0 0 0 0 127 0" result="hardAlpha"/>
<feOffset/>
<feGaussianBlur stdDeviation="2"/>
<feComposite in2="hardAlpha" operator="out"/>
<feColorMatrix type="matrix" values="0 0 0 0 1 0 0 0 0 1 0 0 0 0 1 0 0 0 0.25 0"/>
<feBlend mode="normal" in2="BackgroundImageFix" result="effect1_dropShadow_536_4391"/>
<feBlend mode="normal" in="SourceGraphic" in2="effect1_dropShadow_536_4391" result="shape"/>
</filter>
<filter id="filter1_d_536_4391" x="94.1328" y="84.248" width="179.031" height="25.7119" filterUnits="userSpaceOnUse" color-interpolation-filters="sRGB">
<feFlood flood-opacity="0" result="BackgroundImageFix"/>
<feColorMatrix in="SourceAlpha" type="matrix" values="0 0 0 0 0 0 0 0 0 0 0 0 0 0 0 0 0 0 127 0" result="hardAlpha"/>
<feOffset/>
<feGaussianBlur stdDeviation="2"/>
<feComposite in2="hardAlpha" operator="out"/>
<feColorMatrix type="matrix" values="0 0 0 0 1 0 0 0 0 1 0 0 0 0 1 0 0 0 0.25 0"/>
<feBlend mode="normal" in2="BackgroundImageFix" result="effect1_dropShadow_536_4391"/>
<feBlend mode="normal" in="SourceGraphic" in2="effect1_dropShadow_536_4391" result="shape"/>
</filter>
<filter id="filter2_d_536_4391" x="328.844" y="285.986" width="326.133" height="25.1895" filterUnits="userSpaceOnUse" color-interpolation-filters="sRGB">
<feFlood flood-opacity="0" result="BackgroundImageFix"/>
<feColorMatrix in="SourceAlpha" type="matrix" values="0 0 0 0 0 0 0 0 0 0 0 0 0 0 0 0 0 0 127 0" result="hardAlpha"/>
<feOffset/>
<feGaussianBlur stdDeviation="2"/>
<feComposite in2="hardAlpha" operator="out"/>
<feColorMatrix type="matrix" values="0 0 0 0 1 0 0 0 0 1 0 0 0 0 1 0 0 0 0.25 0"/>
<feBlend mode="normal" in2="BackgroundImageFix" result="effect1_dropShadow_536_4391"/>
<feBlend mode="normal" in="SourceGraphic" in2="effect1_dropShadow_536_4391" result="shape"/>
</filter>
<filter id="filter3_d_536_4391" x="206.328" y="166.986" width="284.383" height="24.9736" filterUnits="userSpaceOnUse" color-interpolation-filters="sRGB">
<feFlood flood-opacity="0" result="BackgroundImageFix"/>
<feColorMatrix in="SourceAlpha" type="matrix" values="0 0 0 0 0 0 0 0 0 0 0 0 0 0 0 0 0 0 127 0" result="hardAlpha"/>
<feOffset/>
<feGaussianBlur stdDeviation="2"/>
<feComposite in2="hardAlpha" operator="out"/>
<feColorMatrix type="matrix" values="0 0 0 0 1 0 0 0 0 1 0 0 0 0 1 0 0 0 0.25 0"/>
<feBlend mode="normal" in2="BackgroundImageFix" result="effect1_dropShadow_536_4391"/>
<feBlend mode="normal" in="SourceGraphic" in2="effect1_dropShadow_536_4391" result="shape"/>
</filter>
<linearGradient id="paint0_linear_536_4391" x1="221.406" y1="278" x2="-32.0593" y2="190.299" gradientUnits="userSpaceOnUse">
<stop stop-color="#523AE7" stop-opacity="0.1"/>
<stop offset="1" stop-color="#523AE7"/>
</linearGradient>
<linearGradient id="paint1_linear_536_4391" x1="216.792" y1="120" x2="-30.05" y2="37.3975" gradientUnits="userSpaceOnUse">
<stop stop-color="#523AE7" stop-opacity="0.1"/>
<stop offset="1" stop-color="#523AE7"/>
</linearGradient>
<linearGradient id="paint2_linear_536_4391" x1="548.692" y1="321" x2="194.73" y2="118.027" gradientUnits="userSpaceOnUse">
<stop stop-color="#523AE7" stop-opacity="0.1"/>
<stop offset="1" stop-color="#523AE7"/>
</linearGradient>
<linearGradient id="paint3_linear_536_4391" x1="398.006" y1="202" x2="67.8756" y2="35.2164" gradientUnits="userSpaceOnUse">
<stop stop-color="#523AE7" stop-opacity="0.1"/>
<stop offset="1" stop-color="#523AE7"/>
</linearGradient>
</defs>
</svg>
