<svg width="740" height="540" viewBox="0 0 740 540" fill="none" xmlns="http://www.w3.org/2000/svg">
<path d="M24 0.659668H716C728.979 0.659668 739.5 11.181 739.5 24.1597V515.16C739.5 528.138 728.979 538.66 716 538.66H24C11.0213 538.66 0.5 528.138 0.5 515.16V24.1597C0.5 11.181 11.0213 0.659668 24 0.659668Z" fill="#0C0E1D" stroke="#1D1F2E"/>
<g clip-path="url(#clip0_534_3256)">
<path d="M27.7734 321.203H712.223" stroke="#141628" stroke-linecap="round" stroke-linejoin="round"/>
<path d="M27.7734 264.11H712.223" stroke="#141628" stroke-linecap="round" stroke-linejoin="round"/>
<path d="M27.7734 202.086H712.223" stroke="#141628" stroke-linecap="round" stroke-linejoin="round"/>
<path d="M27.7734 140.101H712.223" stroke="#141628" stroke-linecap="round" stroke-linejoin="round"/>
<path d="M27.7734 78.1162H712.223" stroke="#141628" stroke-linecap="round" stroke-linejoin="round"/>
<path d="M27.7734 78.1162V321.203" stroke="#141628" stroke-linecap="round" stroke-linejoin="round"/>
<path d="M141.836 141.471V321.203" stroke="#141628" stroke-linecap="round" stroke-linejoin="round"/>
<path d="M255.938 78.1162V321.203" stroke="#141628" stroke-linecap="round" stroke-linejoin="round"/>
<path d="M370 78.1162V321.203" stroke="#141628" stroke-linecap="round" stroke-linejoin="round"/>
<path d="M484.102 78.1162V321.203" stroke="#141628" stroke-linecap="round" stroke-linejoin="round"/>
<path d="M598.164 78.1162V321.203" stroke="#141628" stroke-linecap="round" stroke-linejoin="round"/>
<path d="M712.219 78.1162V321.203" stroke="#141628" stroke-linecap="round" stroke-linejoin="round"/>
<path d="M27.7734 235.27C27.7734 235.27 83.0429 202.086 141.835 202.086C200.628 202.086 215.306 264.071 255.897 264.071C296.488 264.071 321.422 140.101 369.959 140.101C418.496 140.101 431.491 202.086 484.021 202.086C536.55 202.086 559.84 140.101 598.082 140.101C636.325 140.101 655.544 202.086 712.144 202.086" stroke="url(#paint0_linear_534_3256)" stroke-width="2.44" stroke-linecap="round" stroke-linejoin="round"/>
<path d="M712.223 202.086C655.583 202.086 636.403 140.101 598.161 140.101C559.918 140.101 536.628 202.086 484.099 202.086C431.569 202.086 418.574 140.101 370.037 140.101C321.5 140.101 296.566 264.071 255.975 264.071C215.384 264.071 200.706 202.086 141.914 202.086C83.1212 202.086 27.7734 235.27 27.7734 235.27V321.164H712.262V202.086H712.223Z" fill="url(#paint1_linear_534_3256)"/>
<path d="M27.7734 196.803C27.7734 196.803 89.5798 264.071 141.835 264.071C194.091 264.071 216.598 168.08 255.897 168.08C295.196 168.08 323.379 237.226 369.959 237.226C416.539 237.226 443.234 157.671 484.021 157.671C524.807 157.671 559.409 227.443 598.552 227.443C637.695 227.443 653.587 124.409 712.183 124.409" stroke="url(#paint2_linear_534_3256)" stroke-miterlimit="10"/>
<path style="mix-blend-mode:screen" d="M598.163 194.181C627.434 194.181 651.162 170.582 651.162 141.471C651.162 112.36 627.434 88.7603 598.163 88.7603C568.893 88.7603 545.164 112.36 545.164 141.471C545.164 170.582 568.893 194.181 598.163 194.181Z" fill="url(#paint3_radial_534_3256)"/>
<rect x="53" y="98.1597" width="52" height="52" rx="26" fill="#523AE7"/>
<path d="M69.3516 117.764L76.1016 124.514L80.3877 121.228C82.4232 122.78 83.9796 124.994 84.6935 127.658L85.47 130.556M85.47 130.556L88.6519 125.044M85.47 130.556L79.9586 127.374" stroke="white" stroke-width="1.5" stroke-linecap="round" stroke-linejoin="round"/>
<g filter="url(#filter0_d_534_3256)">
<path d="M126.88 134.16V129.66H116.23V127.71L126.43 113.16H129.37V127.44H132.49V129.66H129.37V134.16H126.88ZM119.02 127.44H127V115.95L119.02 127.44ZM143.898 134.52C142.158 134.52 140.658 134.07 139.398 133.17C138.158 132.25 137.198 130.98 136.518 129.36C135.838 127.72 135.498 125.82 135.498 123.66C135.498 121.5 135.838 119.61 136.518 117.99C137.198 116.35 138.158 115.08 139.398 114.18C140.658 113.26 142.158 112.8 143.898 112.8C145.638 112.8 147.128 113.26 148.368 114.18C149.608 115.08 150.558 116.35 151.218 117.99C151.898 119.61 152.238 121.5 152.238 123.66C152.238 125.82 151.898 127.72 151.218 129.36C150.558 130.98 149.608 132.25 148.368 133.17C147.128 134.07 145.638 134.52 143.898 134.52ZM143.898 132.3C144.998 132.3 145.978 131.96 146.838 131.28C147.698 130.58 148.378 129.59 148.878 128.31C149.398 127.01 149.658 125.46 149.658 123.66C149.658 121.84 149.398 120.29 148.878 119.01C148.378 117.73 147.698 116.75 146.838 116.07C145.978 115.39 144.998 115.05 143.898 115.05C142.778 115.05 141.778 115.39 140.898 116.07C140.018 116.75 139.328 117.73 138.828 119.01C138.328 120.29 138.078 121.84 138.078 123.66C138.078 125.46 138.328 127.01 138.828 128.31C139.328 129.59 140.018 130.58 140.898 131.28C141.778 131.96 142.778 132.3 143.898 132.3ZM164.185 134.52C162.445 134.52 160.945 134.07 159.685 133.17C158.445 132.25 157.485 130.98 156.805 129.36C156.125 127.72 155.785 125.82 155.785 123.66C155.785 121.5 156.125 119.61 156.805 117.99C157.485 116.35 158.445 115.08 159.685 114.18C160.945 113.26 162.445 112.8 164.185 112.8C165.925 112.8 167.415 113.26 168.655 114.18C169.895 115.08 170.845 116.35 171.505 117.99C172.185 119.61 172.525 121.5 172.525 123.66C172.525 125.82 172.185 127.72 171.505 129.36C170.845 130.98 169.895 132.25 168.655 133.17C167.415 134.07 165.925 134.52 164.185 134.52ZM164.185 132.3C165.285 132.3 166.265 131.96 167.125 131.28C167.985 130.58 168.665 129.59 169.165 128.31C169.685 127.01 169.945 125.46 169.945 123.66C169.945 121.84 169.685 120.29 169.165 119.01C168.665 117.73 167.985 116.75 167.125 116.07C166.265 115.39 165.285 115.05 164.185 115.05C163.065 115.05 162.065 115.39 161.185 116.07C160.305 116.75 159.615 117.73 159.115 119.01C158.615 120.29 158.365 121.84 158.365 123.66C158.365 125.46 158.615 127.01 159.115 128.31C159.615 129.59 160.305 130.58 161.185 131.28C162.065 131.96 163.065 132.3 164.185 132.3ZM179.523 134.16L191.733 113.16H194.253L182.043 134.16H179.523ZM193.233 134.52C192.333 134.52 191.523 134.32 190.803 133.92C190.083 133.5 189.503 132.91 189.063 132.15C188.643 131.39 188.433 130.5 188.433 129.48C188.433 128.44 188.643 127.55 189.063 126.81C189.503 126.05 190.083 125.47 190.803 125.07C191.523 124.65 192.333 124.44 193.233 124.44C194.153 124.44 194.963 124.65 195.663 125.07C196.383 125.47 196.953 126.05 197.373 126.81C197.793 127.55 198.003 128.44 198.003 129.48C198.003 130.5 197.793 131.39 197.373 132.15C196.953 132.91 196.383 133.5 195.663 133.92C194.943 134.32 194.133 134.52 193.233 134.52ZM193.203 132.57C193.683 132.57 194.123 132.46 194.523 132.24C194.923 132 195.243 131.65 195.483 131.19C195.743 130.73 195.873 130.16 195.873 129.48C195.873 128.78 195.753 128.2 195.513 127.74C195.273 127.28 194.953 126.94 194.553 126.72C194.153 126.48 193.713 126.36 193.233 126.36C192.773 126.36 192.333 126.48 191.913 126.72C191.513 126.94 191.183 127.28 190.923 127.74C190.683 128.2 190.563 128.78 190.563 129.48C190.563 130.16 190.683 130.73 190.923 131.19C191.183 131.65 191.513 132 191.913 132.24C192.313 132.46 192.743 132.57 193.203 132.57ZM180.753 122.91C179.853 122.91 179.043 122.71 178.323 122.31C177.603 121.89 177.023 121.3 176.583 120.54C176.163 119.78 175.953 118.89 175.953 117.87C175.953 116.83 176.163 115.94 176.583 115.2C177.023 114.44 177.603 113.86 178.323 113.46C179.063 113.04 179.883 112.83 180.783 112.83C181.683 112.83 182.493 113.04 183.213 113.46C183.933 113.86 184.503 114.44 184.923 115.2C185.343 115.94 185.553 116.83 185.553 117.87C185.553 118.89 185.343 119.78 184.923 120.54C184.503 121.3 183.923 121.89 183.183 122.31C182.463 122.71 181.653 122.91 180.753 122.91ZM180.753 120.96C181.233 120.96 181.673 120.85 182.073 120.63C182.473 120.39 182.793 120.04 183.033 119.58C183.273 119.12 183.393 118.55 183.393 117.87C183.393 117.17 183.273 116.59 183.033 116.13C182.793 115.65 182.473 115.3 182.073 115.08C181.673 114.84 181.243 114.72 180.783 114.72C180.323 114.72 179.883 114.84 179.463 115.08C179.043 115.3 178.703 115.65 178.443 116.13C178.203 116.59 178.083 117.17 178.083 117.87C178.083 118.55 178.203 119.12 178.443 119.58C178.703 120.04 179.033 120.39 179.433 120.63C179.853 120.85 180.293 120.96 180.753 120.96ZM217.526 134.52C216.086 134.52 214.806 134.18 213.686 133.5C212.566 132.8 211.686 131.83 211.046 130.59C210.406 129.35 210.086 127.91 210.086 126.27C210.086 124.61 210.406 123.17 211.046 121.95C211.686 120.71 212.566 119.75 213.686 119.07C214.806 118.37 216.086 118.02 217.526 118.02C219.326 118.02 220.826 118.5 222.026 119.46C223.246 120.42 224.026 121.71 224.366 123.33H221.786C221.566 122.33 221.056 121.56 220.256 121.02C219.476 120.46 218.556 120.18 217.496 120.18C216.576 120.18 215.746 120.41 215.006 120.87C214.286 121.33 213.716 122.01 213.296 122.91C212.876 123.81 212.666 124.93 212.666 126.27C212.666 127.27 212.786 128.16 213.026 128.94C213.266 129.7 213.596 130.34 214.016 130.86C214.456 131.36 214.966 131.74 215.546 132C216.146 132.26 216.796 132.39 217.496 132.39C218.216 132.39 218.866 132.27 219.446 132.03C220.046 131.77 220.546 131.4 220.946 130.92C221.366 130.44 221.646 129.87 221.786 129.21H224.366C224.046 130.79 223.266 132.07 222.026 133.05C220.806 134.03 219.306 134.52 217.526 134.52ZM235.41 134.52C233.95 134.52 232.66 134.18 231.54 133.5C230.42 132.82 229.55 131.86 228.93 130.62C228.31 129.38 228 127.93 228 126.27C228 124.59 228.31 123.14 228.93 121.92C229.57 120.68 230.45 119.72 231.57 119.04C232.71 118.36 234.01 118.02 235.47 118.02C236.95 118.02 238.24 118.36 239.34 119.04C240.46 119.72 241.33 120.68 241.95 121.92C242.57 123.14 242.88 124.59 242.88 126.27C242.88 127.93 242.56 129.38 241.92 130.62C241.3 131.86 240.43 132.82 239.31 133.5C238.19 134.18 236.89 134.52 235.41 134.52ZM235.41 132.36C236.33 132.36 237.16 132.14 237.9 131.7C238.64 131.24 239.22 130.56 239.64 129.66C240.08 128.74 240.3 127.61 240.3 126.27C240.3 124.91 240.09 123.78 239.67 122.88C239.25 121.98 238.67 121.31 237.93 120.87C237.21 120.41 236.39 120.18 235.47 120.18C234.57 120.18 233.75 120.41 233.01 120.87C232.27 121.31 231.68 121.98 231.24 122.88C230.8 123.78 230.58 124.91 230.58 126.27C230.58 127.61 230.79 128.74 231.21 129.66C231.65 130.56 232.23 131.24 232.95 131.7C233.69 132.14 234.51 132.36 235.41 132.36ZM252.831 134.52C251.411 134.52 250.231 134.31 249.291 133.89C248.371 133.45 247.671 132.85 247.191 132.09C246.711 131.31 246.421 130.41 246.321 129.39H248.901C248.981 129.93 249.161 130.43 249.441 130.89C249.741 131.33 250.171 131.69 250.731 131.97C251.291 132.25 252.001 132.39 252.861 132.39C253.541 132.39 254.121 132.29 254.601 132.09C255.081 131.87 255.441 131.57 255.681 131.19C255.941 130.81 256.071 130.37 256.071 129.87C256.071 129.21 255.921 128.7 255.621 128.34C255.341 127.96 254.921 127.68 254.361 127.5C253.821 127.3 253.141 127.15 252.321 127.05C251.441 126.93 250.661 126.76 249.981 126.54C249.301 126.32 248.721 126.03 248.241 125.67C247.781 125.31 247.431 124.86 247.191 124.32C246.951 123.78 246.831 123.14 246.831 122.4C246.831 121.54 247.061 120.78 247.521 120.12C247.981 119.46 248.631 118.95 249.471 118.59C250.331 118.21 251.341 118.02 252.501 118.02C254.201 118.02 255.541 118.41 256.521 119.19C257.521 119.97 258.111 121.08 258.291 122.52H255.801C255.701 121.78 255.361 121.2 254.781 120.78C254.201 120.36 253.431 120.15 252.471 120.15C251.451 120.15 250.681 120.34 250.161 120.72C249.641 121.1 249.381 121.6 249.381 122.22C249.381 122.68 249.491 123.1 249.711 123.48C249.951 123.84 250.351 124.15 250.911 124.41C251.471 124.65 252.221 124.83 253.161 124.95C254.341 125.09 255.341 125.32 256.161 125.64C256.981 125.94 257.601 126.41 258.021 127.05C258.461 127.69 258.671 128.56 258.651 129.66C258.651 130.7 258.401 131.58 257.901 132.3C257.421 133.02 256.741 133.57 255.861 133.95C255.001 134.33 253.991 134.52 252.831 134.52ZM268.441 134.16C267.541 134.16 266.761 134.02 266.101 133.74C265.441 133.46 264.931 132.99 264.571 132.33C264.231 131.65 264.061 130.74 264.061 129.6V120.51H261.301V118.38H264.061L264.391 114.45H266.581V118.38H271.051V120.51H266.581V129.6C266.581 130.54 266.771 131.18 267.151 131.52C267.531 131.84 268.201 132 269.161 132H270.991V134.16H268.441ZM280.808 134.52C279.388 134.52 278.208 134.31 277.268 133.89C276.348 133.45 275.648 132.85 275.168 132.09C274.688 131.31 274.398 130.41 274.298 129.39H276.878C276.958 129.93 277.138 130.43 277.418 130.89C277.718 131.33 278.148 131.69 278.708 131.97C279.268 132.25 279.978 132.39 280.838 132.39C281.518 132.39 282.098 132.29 282.578 132.09C283.058 131.87 283.418 131.57 283.658 131.19C283.918 130.81 284.048 130.37 284.048 129.87C284.048 129.21 283.898 128.7 283.598 128.34C283.318 127.96 282.898 127.68 282.338 127.5C281.798 127.3 281.118 127.15 280.298 127.05C279.418 126.93 278.638 126.76 277.958 126.54C277.278 126.32 276.698 126.03 276.218 125.67C275.758 125.31 275.408 124.86 275.168 124.32C274.928 123.78 274.808 123.14 274.808 122.4C274.808 121.54 275.038 120.78 275.498 120.12C275.958 119.46 276.608 118.95 277.448 118.59C278.308 118.21 279.318 118.02 280.478 118.02C282.178 118.02 283.518 118.41 284.498 119.19C285.498 119.97 286.088 121.08 286.268 122.52H283.778C283.678 121.78 283.338 121.2 282.758 120.78C282.178 120.36 281.408 120.15 280.448 120.15C279.428 120.15 278.658 120.34 278.138 120.72C277.618 121.1 277.358 121.6 277.358 122.22C277.358 122.68 277.468 123.1 277.688 123.48C277.928 123.84 278.328 124.15 278.888 124.41C279.448 124.65 280.198 124.83 281.138 124.95C282.318 125.09 283.318 125.32 284.138 125.64C284.958 125.94 285.578 126.41 285.998 127.05C286.438 127.69 286.648 128.56 286.628 129.66C286.628 130.7 286.378 131.58 285.878 132.3C285.398 133.02 284.718 133.57 283.838 133.95C282.978 134.33 281.968 134.52 280.808 134.52Z" fill="white"/>
</g>
</g>
<rect x="561" y="38.1597" width="68" height="68" rx="16" fill="url(#paint4_linear_534_3256)"/>
<rect x="561.5" y="38.6597" width="67" height="67" rx="15.5" stroke="white" stroke-opacity="0.3"/>
<path d="M589.439 63.9938C589.709 62.8816 591.291 62.8816 591.561 63.9938L592.303 67.0538C592.399 67.4509 592.709 67.7609 593.106 67.8571L596.166 68.5992C597.278 68.8688 597.278 70.4505 596.166 70.7202L593.106 71.4622C592.709 71.5585 592.399 71.8685 592.303 72.2655L591.561 75.3256C591.291 76.4377 589.709 76.4377 589.439 75.3256L588.697 72.2655C588.601 71.8685 588.291 71.5585 587.894 71.4622L584.834 70.7202C583.722 70.4505 583.722 68.8688 584.834 68.5992L587.894 67.8571C588.291 67.7609 588.601 67.4509 588.697 67.0538L589.439 63.9938Z" fill="#AF87FF"/>
<path d="M598.347 74.6729C598.513 73.9886 599.487 73.9886 599.653 74.6729L600.109 76.5561C600.168 76.8004 600.359 76.9912 600.604 77.0504L602.487 77.507C603.171 77.673 603.171 78.6463 602.487 78.8123L600.604 79.2689C600.359 79.3282 600.168 79.5189 600.109 79.7633L599.653 81.6464C599.487 82.3308 598.513 82.3308 598.347 81.6464L597.891 79.7633C597.832 79.5189 597.641 79.3282 597.396 79.2689L595.513 78.8123C594.829 78.6463 594.829 77.673 595.513 77.507L597.396 77.0504C597.641 76.9912 597.832 76.8004 597.891 76.5561L598.347 74.6729Z" fill="#AF87FF"/>
<path d="M601.572 63.8715C601.681 63.4224 602.319 63.4224 602.428 63.8715L602.728 65.1073C602.767 65.2676 602.892 65.3928 603.052 65.4317L604.288 65.7314C604.737 65.8403 604.737 66.479 604.288 66.5879L603.052 66.8876C602.892 66.9265 602.767 67.0517 602.728 67.212L602.428 68.4478C602.319 68.8969 601.681 68.8969 601.572 68.4478L601.272 67.212C601.233 67.0517 601.108 66.9265 600.948 66.8876L599.712 66.5879C599.263 66.479 599.263 65.8403 599.712 65.7314L600.948 65.4317C601.108 65.3928 601.233 65.2676 601.272 65.1073L601.572 63.8715Z" fill="#AF87FF"/>
<path fill-rule="evenodd" clip-rule="evenodd" d="M602 64.0908L601.755 65.0994C601.658 65.5025 601.343 65.8173 600.94 65.9151L599.931 66.1597L600.94 66.4042C601.343 66.502 601.658 66.8168 601.755 67.22L602 68.2286L602.245 67.22C602.342 66.8168 602.657 66.502 603.06 66.4042L604.069 66.1597L603.06 65.9151C602.657 65.8173 602.342 65.5025 602.245 65.0994L602 64.0908ZM602.489 63.5446C602.365 63.0313 601.635 63.0313 601.511 63.5446L601.168 64.957C601.124 65.1402 600.981 65.2833 600.797 65.3277L599.385 65.6702C598.872 65.7947 598.872 66.5247 599.385 66.6491L600.797 66.9916C600.981 67.036 601.124 67.1791 601.168 67.3624L601.511 68.7747C601.635 69.288 602.365 69.288 602.489 68.7747L602.832 67.3624C602.876 67.1791 603.019 67.036 603.203 66.9916L604.615 66.6491C605.128 66.5247 605.128 65.7947 604.615 65.6702L603.203 65.3277C603.019 65.2833 602.876 65.1402 602.832 64.957L602.489 63.5446Z" fill="#AF87FF"/>
<path d="M590 83.1597C589.448 83.1597 589 82.712 589 82.1597C589 81.6074 589.448 81.1597 590 81.1597C590.552 81.1597 591 81.6074 591 82.1597C591 82.712 590.552 83.1597 590 83.1597Z" fill="#AF87FF"/>
<path d="M585 79.1597C584.448 79.1597 584 78.712 584 78.1597C584 77.6074 584.448 77.1597 585 77.1597C585.552 77.1597 586 77.6074 586 78.1597C586 78.712 585.552 79.1597 585 79.1597Z" fill="#AF87FF"/>
<path d="M596 63.1597C595.448 63.1597 595 62.712 595 62.1597C595 61.6074 595.448 61.1597 596 61.1597C596.552 61.1597 597 61.6074 597 62.1597C597 62.712 596.552 63.1597 596 63.1597Z" fill="#AF87FF"/>
<path d="M605 74.1597C604.448 74.1597 604 73.712 604 73.1597C604 72.6074 604.448 72.1597 605 72.1597C605.552 72.1597 606 72.6074 606 73.1597C606 73.712 605.552 74.1597 605 74.1597Z" fill="#AF87FF"/>
<defs>
<filter id="filter0_d_534_3256" x="76.2266" y="72.7998" width="250.43" height="101.72" filterUnits="userSpaceOnUse" color-interpolation-filters="sRGB">
<feFlood flood-opacity="0" result="BackgroundImageFix"/>
<feColorMatrix in="SourceAlpha" type="matrix" values="0 0 0 0 0 0 0 0 0 0 0 0 0 0 0 0 0 0 127 0" result="hardAlpha"/>
<feOffset/>
<feGaussianBlur stdDeviation="20"/>
<feComposite in2="hardAlpha" operator="out"/>
<feColorMatrix type="matrix" values="0 0 0 0 0 0 0 0 0 0 0 0 0 0 0 0 0 0 0.05 0"/>
<feBlend mode="normal" in2="BackgroundImageFix" result="effect1_dropShadow_534_3256"/>
<feBlend mode="normal" in="SourceGraphic" in2="effect1_dropShadow_534_3256" result="shape"/>
</filter>
<linearGradient id="paint0_linear_534_3256" x1="22.998" y1="202.086" x2="716.998" y2="202.086" gradientUnits="userSpaceOnUse">
<stop stop-color="#523AE7" stop-opacity="0"/>
<stop offset="0.16" stop-color="#523AE7" stop-opacity="0.14"/>
<stop offset="0.52" stop-color="#523AE7" stop-opacity="0.49"/>
<stop offset="1" stop-color="#FCE3F7"/>
</linearGradient>
<linearGradient id="paint1_linear_534_3256" x1="369.998" y1="321.203" x2="369.998" y2="140.101" gradientUnits="userSpaceOnUse">
<stop stop-color="#523AE7" stop-opacity="0"/>
<stop offset="0.14" stop-color="#523AE7" stop-opacity="0.01"/>
<stop offset="0.27" stop-color="#523AE7" stop-opacity="0.06"/>
<stop offset="0.39" stop-color="#523AE7" stop-opacity="0.13"/>
<stop offset="0.51" stop-color="#523AE7" stop-opacity="0.24"/>
<stop offset="0.63" stop-color="#523AE7" stop-opacity="0.37"/>
<stop offset="0.75" stop-color="#523AE7" stop-opacity="0.54"/>
<stop offset="0.86" stop-color="#523AE7" stop-opacity="0.73"/>
<stop offset="0.98" stop-color="#FBD9F7" stop-opacity="0.95"/>
<stop offset="1" stop-color="#FCE3F7"/>
</linearGradient>
<linearGradient id="paint2_linear_534_3256" x1="26.3252" y1="194.259" x2="712.223" y2="194.259" gradientUnits="userSpaceOnUse">
<stop stop-color="#523AE7"/>
<stop offset="0.16" stop-color="#523AE7" stop-opacity="0.14"/>
<stop offset="0.52" stop-color="#523AE7" stop-opacity="0.49"/>
<stop offset="1" stop-color="#523AE7"/>
</linearGradient>
<radialGradient id="paint3_radial_534_3256" cx="0" cy="0" r="1" gradientUnits="userSpaceOnUse" gradientTransform="translate(597.234 144.74) scale(53.128 53.1132)">
<stop stop-color="#FBE1F7" stop-opacity="0.99"/>
<stop offset="0.08" stop-color="#523AE7" stop-opacity="0.79"/>
<stop offset="0.17" stop-color="#523AE7" stop-opacity="0.6"/>
<stop offset="0.26" stop-color="#523AE7" stop-opacity="0.44"/>
<stop offset="0.35" stop-color="#523AE7" stop-opacity="0.3"/>
<stop offset="0.45" stop-color="#523AE7" stop-opacity="0.19"/>
<stop offset="0.55" stop-color="#523AE7" stop-opacity="0.11"/>
<stop offset="0.67" stop-color="#523AE7" stop-opacity="0.05"/>
<stop offset="0.8" stop-color="#523AE7" stop-opacity="0.01"/>
<stop offset="1" stop-color="#523AE7" stop-opacity="0"/>
</radialGradient>
<linearGradient id="paint4_linear_534_3256" x1="605.824" y1="106.16" x2="515.766" y2="99.1374" gradientUnits="userSpaceOnUse">
<stop stop-color="#523AE7" stop-opacity="0.1"/>
<stop offset="1" stop-color="#523AE7"/>
</linearGradient>
<clipPath id="clip0_534_3256">
<rect width="694" height="247" fill="white" transform="translate(23 76.1597)"/>
</clipPath>
</defs>
</svg>
